<svg id="svg" version="1.1" xmlns="http://www.w3.org/2000/svg" xmlns:xlink="http://www.w3.org/1999/xlink" width="400" height="266.2068965517241" viewBox="0, 0, 400,266.2068965517241"><g id="svgg"><path id="path0" d="M113.715 63.039 C 109.559 63.782,105.603 67.988,104.675 72.650 C 104.211 74.981,104.308 192.252,104.776 194.141 C 105.634 197.610,107.144 199.737,110.179 201.748 C 112.986 203.609,105.550 203.474,200.680 203.395 C 276.191 203.333,286.798 203.276,287.617 202.927 C 292.060 201.036,294.574 197.824,295.327 193.076 C 295.804 190.073,295.702 74.869,295.222 72.703 C 294.173 67.981,291.981 65.298,287.617 63.395 C 286.723 63.005,115.857 62.656,113.715 63.039 M233.768 69.294 C 234.296 69.822,234.216 83.988,233.682 84.522 C 233.179 85.025,215.823 85.174,214.906 84.683 C 214.264 84.339,214.071 69.924,214.700 69.294 C 215.158 68.836,233.310 68.836,233.768 69.294 M256.937 69.294 C 257.543 69.899,257.377 84.338,256.761 84.667 C 255.780 85.193,238.434 84.956,237.940 84.410 C 237.417 83.833,237.341 69.947,237.857 69.325 C 238.261 68.839,256.452 68.809,256.937 69.294 M280.150 69.490 C 280.613 70.354,280.515 83.642,280.041 84.319 C 279.444 85.171,261.834 85.270,260.990 84.425 C 260.111 83.547,260.161 70.008,261.045 69.389 C 262.056 68.681,279.767 68.774,280.150 69.490 M185.729 70.062 C 188.768 70.827,189.938 72.930,189.907 77.574 C 189.878 81.883,189.104 83.383,186.319 84.529 C 184.957 85.090,119.868 85.186,118.588 84.630 C 115.566 83.316,114.913 82.022,114.913 77.343 L 114.913 73.594 115.846 72.376 C 116.663 71.308,118.048 70.333,119.308 69.940 C 120.210 69.659,184.596 69.777,185.729 70.062 M285.619 141.411 L 285.619 191.079 200.000 191.079 L 114.381 191.079 114.312 141.678 C 114.275 114.507,114.301 92.127,114.371 91.944 C 114.472 91.678,131.749 91.624,200.058 91.677 L 285.619 91.744 285.619 141.411 " stroke="none" fill="#0d263b" fill-rule="evenodd"></path><path id="path1" d="M0.000 133.156 L 0.000 266.312 200.000 266.312 L 400.000 266.312 400.000 133.156 L 400.000 0.000 200.000 0.000 L 0.000 0.000 0.000 133.156 M286.551 62.485 C 290.618 63.401,293.810 66.428,295.641 71.105 C 295.946 71.885,296.005 82.081,296.005 133.422 L 296.005 194.807 295.024 196.813 C 293.309 200.322,290.039 203.129,286.857 203.826 C 285.097 204.211,114.510 204.210,113.049 203.825 C 109.608 202.917,106.882 200.607,105.152 197.132 L 103.995 194.807 103.995 133.156 L 103.995 71.505 105.007 69.434 C 106.703 65.962,110.759 62.591,113.253 62.579 C 113.727 62.577,114.294 62.459,114.514 62.316 C 115.075 61.953,284.929 62.120,286.551 62.485 M215.076 70.191 C 214.751 71.039,214.894 83.496,215.233 83.835 C 215.604 84.206,232.651 84.298,233.227 83.932 C 233.488 83.766,233.548 82.159,233.493 76.812 L 233.422 69.907 224.331 69.837 C 216.214 69.774,215.222 69.812,215.076 70.191 M238.260 69.951 C 238.162 70.049,238.083 73.222,238.083 77.003 L 238.083 83.878 238.682 84.024 C 239.011 84.104,243.116 84.137,247.803 84.096 L 256.325 84.021 256.396 76.897 L 256.467 69.774 247.452 69.774 C 242.494 69.774,238.358 69.854,238.260 69.951 M261.433 69.948 C 261.091 70.289,261.223 83.486,261.571 83.835 C 261.910 84.174,278.082 84.311,279.299 83.985 L 279.902 83.824 279.831 76.865 L 279.760 69.907 270.687 69.837 C 265.697 69.798,261.532 69.848,261.433 69.948 M118.375 71.042 C 114.203 73.198,114.049 81.112,118.130 83.635 C 119.011 84.179,184.664 84.504,186.053 83.971 C 190.291 82.345,190.764 73.806,186.756 71.282 L 185.630 70.573 152.402 70.601 C 122.948 70.626,119.084 70.676,118.375 71.042 M125.630 72.266 C 128.875 73.950,127.669 78.828,124.008 78.828 C 122.686 78.828,122.620 78.867,121.048 80.559 C 120.164 81.511,119.243 82.290,119.003 82.290 C 118.269 82.290,117.982 81.006,118.575 80.378 C 120.587 78.251,120.639 78.134,120.571 75.922 C 120.463 72.439,122.761 70.778,125.630 72.266 M252.705 72.781 C 253.092 73.814,252.857 81.780,252.432 82.049 C 251.595 82.579,242.387 82.336,242.087 81.775 C 241.747 81.141,241.716 73.112,242.051 72.486 C 242.473 71.695,252.402 71.970,252.705 72.781 M269.163 73.369 C 270.096 74.539,270.548 74.538,271.307 73.366 C 271.988 72.315,272.709 72.177,273.482 72.950 C 274.126 73.594,273.975 74.250,272.760 76.088 L 271.843 77.475 272.766 78.751 C 273.976 80.423,274.138 81.122,273.469 81.791 C 272.732 82.528,270.839 81.708,270.839 80.652 C 270.839 80.086,269.830 80.518,269.090 81.399 C 267.337 83.487,265.785 81.670,267.385 79.404 C 268.476 77.860,268.482 77.190,267.419 75.470 C 266.501 73.984,266.442 73.721,266.854 72.952 C 267.295 72.127,268.319 72.312,269.163 73.369 M122.780 74.351 C 122.112 75.068,122.105 75.587,122.755 76.365 C 123.427 77.170,124.461 77.134,125.132 76.281 C 126.370 74.708,124.147 72.884,122.780 74.351 M244.393 74.767 C 244.200 75.109,244.173 78.462,244.357 79.196 C 244.595 80.145,249.828 80.305,250.324 79.378 C 250.708 78.661,250.675 75.282,250.280 74.887 C 249.925 74.533,244.586 74.424,244.393 74.767 M178.798 75.977 C 179.514 76.500,179.284 78.055,178.429 78.485 C 177.320 79.043,131.885 78.975,131.085 78.414 C 130.393 77.929,130.322 77.060,130.907 76.224 L 131.322 75.632 154.824 75.632 C 173.634 75.632,178.421 75.701,178.798 75.977 M229.827 76.165 C 230.553 76.892,230.495 77.617,229.658 78.276 C 228.719 79.015,219.721 79.128,218.701 78.414 C 217.865 77.828,217.869 76.244,218.708 75.907 C 220.049 75.368,229.243 75.582,229.827 76.165 M198.269 92.410 L 114.913 92.543 114.846 141.250 C 114.797 177.030,114.858 190.053,115.078 190.318 C 115.496 190.821,284.398 190.862,284.900 190.360 C 285.377 189.882,285.364 92.704,284.887 92.557 C 284.045 92.297,276.674 92.285,198.269 92.410 M267.744 107.203 C 269.080 107.870,270.353 108.515,270.573 108.639 C 270.792 108.762,271.439 109.086,272.009 109.358 C 275.164 110.865,275.613 112.331,274.026 115.937 C 272.512 119.374,272.307 119.542,270.659 118.694 C 258.730 112.553,259.265 112.915,259.998 111.475 C 260.228 111.023,260.487 110.398,260.575 110.087 C 261.731 105.968,263.688 105.180,267.744 107.203 M244.621 114.130 C 246.562 115.083,246.961 117.726,245.387 119.210 L 244.436 120.107 186.785 120.107 C 133.680 120.107,129.067 120.072,128.282 119.666 C 125.873 118.421,126.353 114.405,128.971 113.903 C 130.916 113.529,243.849 113.751,244.621 114.130 M265.533 118.689 C 271.707 121.973,271.493 121.703,270.155 124.546 C 269.616 125.693,268.965 127.111,268.710 127.696 C 268.110 129.072,266.762 131.993,265.638 134.354 C 265.150 135.379,264.371 137.057,263.907 138.083 C 263.442 139.108,262.728 140.666,262.320 141.545 C 261.912 142.423,260.953 144.521,260.189 146.205 C 259.426 147.889,258.470 149.987,258.065 150.866 C 257.106 152.948,256.419 154.455,255.430 156.643 C 253.192 161.597,253.737 160.928,245.273 169.114 C 239.146 175.040,238.571 174.678,239.545 165.513 C 239.763 163.462,239.945 160.586,239.950 159.121 C 239.956 157.656,240.081 155.933,240.229 155.292 C 240.491 154.152,240.706 153.625,242.469 149.800 C 242.941 148.775,243.516 147.517,243.747 147.004 C 244.514 145.300,246.104 141.826,246.610 140.746 C 246.885 140.160,247.235 139.381,247.389 139.015 C 247.543 138.648,247.777 138.169,247.910 137.949 C 248.043 137.730,248.583 136.564,249.111 135.359 C 249.639 134.153,250.476 132.296,250.971 131.231 C 251.466 130.166,252.413 128.096,253.076 126.631 C 256.366 119.355,257.778 116.366,258.151 115.886 C 258.658 115.235,259.998 115.744,265.533 118.689 M259.856 120.706 C 259.482 120.994,258.612 122.711,257.055 126.232 C 256.676 127.089,256.313 127.882,254.192 132.490 C 253.787 133.369,252.933 135.206,252.294 136.573 C 251.655 137.940,251.132 139.105,251.132 139.163 C 251.132 139.221,250.426 140.800,249.564 142.670 C 248.702 144.541,247.738 146.671,247.423 147.403 C 247.107 148.136,246.554 149.303,246.194 149.998 C 245.178 151.959,245.497 153.432,246.845 153.004 C 247.352 152.843,247.685 152.251,249.396 148.469 C 249.793 147.590,250.596 145.852,251.180 144.607 C 253.555 139.545,253.795 139.020,253.795 138.873 C 253.795 138.789,254.405 137.438,255.150 135.871 C 255.896 134.304,256.750 132.483,257.050 131.824 C 257.349 131.165,258.046 129.667,258.598 128.495 C 259.150 127.324,259.857 125.766,260.170 125.033 C 260.482 124.301,260.845 123.507,260.976 123.268 C 261.563 122.204,261.588 120.962,261.028 120.662 C 260.358 120.303,260.379 120.303,259.856 120.706 M242.485 132.557 C 242.384 132.959,241.952 134.046,241.524 134.972 C 241.096 135.898,240.746 136.748,240.746 136.861 C 240.746 138.005,243.379 137.958,184.082 137.885 L 128.397 137.816 127.581 137.034 C 126.172 135.684,126.517 133.075,128.229 132.133 C 128.612 131.923,144.813 131.838,185.715 131.832 L 242.668 131.824 242.485 132.557 M234.169 150.466 C 234.141 150.832,233.986 151.731,233.825 152.463 C 233.663 153.196,233.462 154.131,233.378 154.542 C 233.078 156.001,235.925 155.930,180.257 155.858 L 128.423 155.790 127.594 154.941 C 126.179 153.494,126.508 150.924,128.229 149.976 C 128.613 149.765,143.505 149.699,181.491 149.741 L 234.221 149.800 234.169 150.466 M243.574 157.490 C 243.014 162.468,243.020 162.629,243.814 163.365 C 244.906 164.376,245.226 164.251,247.598 161.893 C 250.032 159.471,250.052 159.336,248.121 158.363 C 247.360 157.980,246.438 157.492,246.072 157.279 C 245.706 157.066,245.029 156.720,244.567 156.509 L 243.728 156.126 243.574 157.490 M231.978 167.935 C 232.377 168.415,232.353 172.195,231.945 173.269 L 231.704 173.901 180.598 173.901 C 125.212 173.901,128.208 173.979,127.182 172.515 C 126.365 171.349,126.624 169.286,127.706 168.337 L 128.647 167.510 180.136 167.510 C 226.943 167.510,231.658 167.549,231.978 167.935 " stroke="none" fill="#fbfbfb" fill-rule="evenodd"></path><path id="path2" d="M121.964 73.202 C 121.001 74.164,120.743 75.171,121.109 76.540 C 121.443 77.792,121.303 78.147,119.799 79.864 C 118.647 81.180,118.548 81.491,119.286 81.491 C 119.577 81.491,120.032 81.111,120.344 80.606 C 121.533 78.682,122.089 78.296,123.669 78.296 C 126.192 78.296,127.583 76.404,126.669 74.217 C 125.865 72.293,123.404 71.762,121.964 73.202 M242.521 72.881 C 242.148 73.254,242.323 81.143,242.712 81.465 C 242.965 81.675,244.485 81.748,247.572 81.698 L 252.064 81.625 252.197 78.570 C 252.270 76.891,252.289 74.883,252.239 74.110 L 252.148 72.703 247.423 72.703 C 244.825 72.703,242.619 72.783,242.521 72.881 M125.405 74.008 C 126.439 74.974,126.464 75.843,125.485 76.781 C 123.423 78.756,120.561 76.233,122.394 74.055 C 123.292 72.987,124.295 72.972,125.405 74.008 M267.224 73.591 C 267.149 73.787,267.512 74.578,268.031 75.349 C 269.211 77.102,269.211 77.698,268.034 79.409 C 267.024 80.879,266.978 81.313,267.822 81.438 C 268.180 81.491,268.600 81.202,269.080 80.572 C 269.991 79.378,270.439 79.384,271.495 80.606 C 273.149 82.519,273.795 81.311,272.304 79.095 C 271.155 77.387,271.155 77.340,272.315 75.616 C 273.331 74.106,273.407 73.412,272.567 73.296 C 272.219 73.248,271.854 73.505,271.505 74.046 C 270.587 75.465,270.181 75.510,269.210 74.303 C 268.352 73.235,267.480 72.923,267.224 73.591 M250.930 74.525 C 251.052 74.647,251.118 75.935,251.075 77.387 L 250.999 80.027 247.403 80.027 L 243.808 80.027 243.808 77.230 L 243.808 74.434 245.672 74.282 C 247.938 74.097,250.626 74.221,250.930 74.525 M131.742 76.350 C 131.400 76.440,131.284 76.682,131.343 77.186 L 131.425 77.896 135.020 78.064 C 139.991 78.297,175.920 78.308,177.230 78.077 C 178.532 77.848,178.961 76.633,177.844 76.340 C 177.130 76.152,132.460 76.162,131.742 76.350 M219.185 76.552 C 218.611 77.243,218.975 77.858,220.108 78.109 C 221.198 78.350,228.381 78.159,229.139 77.868 C 229.806 77.612,229.644 76.716,228.877 76.425 C 227.719 75.985,219.567 76.091,219.185 76.552 M263.147 106.991 C 262.839 107.247,262.053 108.561,261.400 109.911 L 260.213 112.366 260.932 112.860 C 261.327 113.133,262.403 113.740,263.323 114.210 C 264.242 114.680,265.380 115.293,265.853 115.571 C 267.078 116.293,271.633 118.509,271.892 118.509 C 272.518 118.509,274.656 113.495,274.424 112.571 C 274.122 111.368,273.060 110.559,269.150 108.553 C 265.054 106.451,264.096 106.202,263.147 106.991 M127.882 115.392 C 126.821 116.487,126.799 117.320,127.800 118.519 L 128.570 119.441 186.279 119.510 L 243.989 119.580 244.897 118.671 C 246.080 117.489,246.122 116.387,245.027 115.292 L 244.249 114.514 186.491 114.514 L 128.733 114.514 127.882 115.392 M258.655 116.039 C 258.472 116.103,258.322 116.255,258.322 116.376 C 258.322 116.496,257.783 117.749,257.124 119.160 C 256.465 120.571,255.925 121.775,255.925 121.837 C 255.925 121.898,255.326 123.212,254.594 124.756 C 253.862 126.300,252.663 128.827,251.931 130.371 C 251.198 131.915,250.599 133.228,250.599 133.290 C 250.599 133.351,250.060 134.556,249.401 135.966 C 248.742 137.377,248.202 138.587,248.202 138.656 C 248.202 138.724,247.735 139.762,247.163 140.961 C 246.191 143.001,245.398 144.718,243.942 147.936 C 243.611 148.668,242.797 150.406,242.133 151.798 C 240.792 154.611,240.728 155.008,240.247 163.648 C 240.108 166.138,239.909 168.799,239.805 169.560 C 239.302 173.237,240.221 173.147,244.401 169.108 C 246.144 167.423,247.862 165.788,248.219 165.474 C 251.834 162.292,254.640 158.215,255.795 154.470 C 255.907 154.109,256.401 153.010,256.894 152.028 C 257.386 151.046,257.790 150.167,257.790 150.074 C 257.790 149.981,258.569 148.277,259.521 146.288 C 260.473 144.299,261.252 142.632,261.252 142.584 C 261.252 142.536,261.791 141.343,262.450 139.932 C 263.109 138.522,263.648 137.215,263.648 137.029 C 263.648 136.842,263.888 136.385,264.181 136.013 C 264.474 135.640,264.714 135.208,264.714 135.053 C 264.714 134.818,265.928 132.209,267.023 130.093 C 267.322 129.515,267.946 128.089,268.364 127.031 C 268.508 126.664,269.004 125.554,269.466 124.562 C 270.722 121.867,270.828 122.036,266.511 119.839 C 264.424 118.776,261.877 117.460,260.852 116.914 C 259.827 116.368,258.838 115.974,258.655 116.039 M261.775 120.355 C 262.329 121.391,261.105 125.417,259.739 127.052 C 259.546 127.283,259.387 127.614,259.387 127.788 C 259.387 127.961,259.285 128.311,259.160 128.566 C 259.035 128.820,258.741 129.447,258.507 129.960 C 258.272 130.473,257.476 132.194,256.737 133.785 C 255.997 135.376,255.393 136.720,255.393 136.771 C 255.393 136.822,254.870 137.977,254.232 139.337 C 252.546 142.931,251.271 145.740,249.423 149.933 C 249.197 150.446,248.908 151.045,248.780 151.265 C 248.653 151.485,248.362 152.024,248.133 152.463 C 247.584 153.519,246.687 153.989,245.956 153.605 C 244.700 152.944,244.695 151.772,245.939 149.209 C 246.451 148.152,246.871 147.228,246.871 147.157 C 246.871 147.037,248.637 143.199,250.188 139.947 C 251.354 137.503,252.996 133.924,252.996 133.827 C 252.996 133.775,253.547 132.553,254.220 131.114 C 254.892 129.674,255.671 127.986,255.951 127.364 C 256.230 126.741,256.686 125.722,256.965 125.100 C 258.565 121.529,259.177 120.404,259.696 120.075 C 260.348 119.662,261.486 119.816,261.775 120.355 M128.711 132.626 C 127.200 133.234,126.781 135.424,127.952 136.595 L 128.641 137.284 184.210 137.284 L 239.780 137.284 240.789 135.286 C 241.344 134.188,241.800 133.079,241.804 132.823 C 241.812 132.304,129.993 132.109,128.711 132.626 M128.697 150.474 C 127.060 151.132,126.676 153.094,127.936 154.354 L 128.842 155.260 180.500 155.260 C 224.584 155.260,232.204 155.205,232.470 154.885 C 232.641 154.679,232.901 153.870,233.048 153.087 C 233.195 152.305,233.383 151.335,233.466 150.932 L 233.616 150.200 181.455 150.217 C 151.120 150.226,129.044 150.334,128.697 150.474 M250.418 159.198 C 250.836 160.136,245.990 164.664,244.769 164.475 C 243.430 164.268,242.610 163.374,242.610 162.122 C 242.610 160.486,243.199 155.956,243.455 155.624 C 243.772 155.214,250.086 158.455,250.418 159.198 M129.374 168.232 C 127.442 168.527,126.595 170.723,127.858 172.162 L 128.685 173.104 180.121 173.037 L 231.558 172.969 231.558 170.573 L 231.558 168.176 180.826 168.149 C 152.923 168.134,129.770 168.171,129.374 168.232 " stroke="none" fill="#e7862c" fill-rule="evenodd"></path><path id="path3" d="M197.470 62.315 C 134.491 62.416,113.369 62.528,112.728 62.761 C 108.666 64.240,105.930 67.014,104.530 71.072 C 103.807 73.168,103.934 193.495,104.662 195.609 C 106.158 199.958,109.399 202.761,114.167 203.831 C 117.049 204.477,282.649 204.491,285.746 203.845 C 290.323 202.890,293.470 200.258,295.170 195.960 L 295.872 194.183 295.872 133.240 C 295.872 65.186,296.044 71.531,294.115 68.241 C 291.946 64.538,286.531 61.766,282.157 62.116 C 281.718 62.152,243.609 62.241,197.470 62.315 M287.617 63.395 C 291.981 65.298,294.173 67.981,295.222 72.703 C 295.702 74.869,295.804 190.073,295.327 193.076 C 294.574 197.824,292.060 201.036,287.617 202.927 C 286.197 203.531,115.471 203.670,113.123 203.068 C 110.055 202.282,106.826 199.501,105.542 196.538 C 104.378 193.852,104.414 195.819,104.404 133.369 C 104.394 72.969,104.400 72.598,105.392 70.173 C 106.750 66.855,110.539 63.607,113.715 63.039 C 115.857 62.656,286.723 63.005,287.617 63.395 M214.700 69.294 C 214.071 69.924,214.264 84.339,214.906 84.683 C 215.823 85.174,233.179 85.025,233.682 84.522 C 234.216 83.988,234.296 69.822,233.768 69.294 C 233.310 68.836,215.158 68.836,214.700 69.294 M237.857 69.325 C 237.341 69.947,237.417 83.833,237.940 84.410 C 238.434 84.956,255.780 85.193,256.761 84.667 C 257.377 84.338,257.543 69.899,256.937 69.294 C 256.452 68.809,238.261 68.839,237.857 69.325 M261.045 69.389 C 260.161 70.008,260.111 83.547,260.990 84.425 C 261.834 85.270,279.444 85.171,280.041 84.319 C 280.515 83.642,280.613 70.354,280.150 69.490 C 279.767 68.774,262.056 68.681,261.045 69.389 M232.956 69.675 L 233.555 69.836 233.555 76.995 L 233.555 84.154 224.421 84.154 C 217.671 84.154,215.203 84.071,214.967 83.835 C 214.430 83.298,214.521 70.470,215.066 69.926 C 215.495 69.496,231.453 69.272,232.956 69.675 M256.398 69.736 C 256.657 69.897,256.717 71.548,256.662 76.983 L 256.591 84.021 247.337 84.091 L 238.083 84.161 238.083 76.987 C 238.083 70.377,238.119 69.803,238.549 69.693 C 239.374 69.481,256.051 69.522,256.398 69.736 M279.228 69.664 L 279.893 69.831 279.893 76.993 L 279.893 84.154 270.601 84.154 C 262.373 84.154,261.290 84.106,261.147 83.733 C 260.604 82.318,260.990 70.021,261.585 69.789 C 262.268 69.522,278.212 69.409,279.228 69.664 M119.308 69.940 C 118.048 70.333,116.663 71.308,115.846 72.376 L 114.913 73.594 114.913 77.343 C 114.913 82.022,115.566 83.316,118.588 84.630 C 119.868 85.186,184.957 85.090,186.319 84.529 C 189.104 83.383,189.878 81.883,189.907 77.574 C 189.938 72.930,188.768 70.827,185.729 70.062 C 184.596 69.777,120.210 69.659,119.308 69.940 M186.094 70.720 C 191.335 72.909,190.899 82.645,185.487 84.274 C 183.843 84.769,123.112 84.893,120.107 84.408 C 116.557 83.835,115.324 82.036,115.317 77.419 C 115.312 73.269,115.795 72.232,118.372 70.868 L 119.433 70.306 152.268 70.306 C 181.351 70.306,185.217 70.354,186.094 70.720 M114.371 91.944 C 114.301 92.127,114.275 114.507,114.312 141.678 L 114.381 191.079 200.000 191.079 L 285.619 191.079 285.619 141.411 L 285.619 91.744 200.058 91.677 C 131.749 91.624,114.472 91.678,114.371 91.944 M285.076 92.393 C 285.423 92.954,285.238 190.503,284.890 190.724 C 284.400 191.035,115.539 190.996,115.047 190.685 C 114.646 190.431,114.252 94.365,114.645 92.743 L 114.790 92.144 199.856 92.144 C 252.389 92.144,284.981 92.239,285.076 92.393 " stroke="none" fill="#6b7784" fill-rule="evenodd"></path><path id="path4" d="M114.606 62.254 C 114.330 62.430,195.568 62.427,257.656 62.249 C 270.692 62.211,243.908 62.153,198.136 62.120 C 152.364 62.086,114.775 62.147,114.606 62.254 M283.644 62.146 C 283.705 62.199,284.234 62.315,284.820 62.405 C 285.546 62.516,285.758 62.487,285.486 62.313 C 285.122 62.081,283.386 61.924,283.644 62.146 M111.702 63.002 C 111.418 63.233,111.344 63.340,111.539 63.240 C 111.733 63.140,112.213 62.962,112.604 62.844 C 113.175 62.671,113.207 62.624,112.767 62.606 C 112.466 62.594,111.986 62.772,111.702 63.002 M107.576 65.712 L 106.658 66.711 107.656 65.793 C 108.206 65.289,108.655 64.839,108.655 64.795 C 108.655 64.591,108.430 64.783,107.576 65.712 M292.846 66.378 C 293.348 67.211,294.541 68.769,294.541 68.592 C 294.541 68.368,292.906 66.045,292.749 66.045 C 292.692 66.045,292.735 66.195,292.846 66.378 M219.791 69.707 C 222.253 69.751,226.208 69.751,228.579 69.706 C 230.950 69.662,228.935 69.626,224.101 69.627 C 219.268 69.627,217.328 69.663,219.791 69.707 M239.608 69.700 C 240.081 69.758,240.920 69.759,241.472 69.702 C 242.025 69.644,241.638 69.596,240.613 69.595 C 239.587 69.594,239.135 69.641,239.608 69.700 M245.739 69.706 C 247.533 69.752,250.469 69.752,252.264 69.706 C 254.058 69.660,252.590 69.622,249.001 69.622 C 245.413 69.622,243.945 69.660,245.739 69.706 M262.383 69.691 C 262.640 69.758,263.059 69.758,263.316 69.691 C 263.572 69.624,263.362 69.569,262.850 69.569 C 262.337 69.569,262.127 69.624,262.383 69.691 M267.726 69.707 C 269.895 69.751,273.371 69.751,275.449 69.706 C 277.527 69.661,275.752 69.625,271.505 69.625 C 267.257 69.625,265.557 69.662,267.726 69.707 M214.809 70.195 C 214.370 71.340,214.640 83.551,215.113 83.922 C 215.530 84.249,215.543 84.241,215.233 83.845 C 214.965 83.502,214.905 81.869,214.967 76.588 C 215.011 72.840,215.029 69.773,215.009 69.773 C 214.988 69.774,214.898 69.963,214.809 70.195 M256.458 76.885 C 256.385 80.869,256.417 84.036,256.529 83.924 C 256.641 83.811,256.701 80.552,256.662 76.680 L 256.591 69.640 256.458 76.885 M261.163 69.951 C 260.608 70.506,261.008 84.154,261.579 84.154 C 261.744 84.154,261.730 84.010,261.542 83.784 C 261.322 83.519,261.255 81.461,261.309 76.593 C 261.351 72.842,261.375 69.773,261.363 69.773 C 261.350 69.774,261.261 69.854,261.163 69.951 M135.752 70.506 C 144.870 70.545,159.790 70.545,168.908 70.506 C 178.026 70.467,170.566 70.435,152.330 70.435 C 134.095 70.435,126.634 70.467,135.752 70.506 M185.885 70.673 C 185.885 70.735,186.312 71.038,186.834 71.346 C 187.355 71.653,187.707 71.784,187.616 71.636 C 187.437 71.348,185.885 70.483,185.885 70.673 M116.721 71.972 C 116.160 72.585,115.310 74.107,115.316 74.487 C 115.318 74.605,115.624 74.161,115.996 73.502 C 116.368 72.843,116.867 72.155,117.105 71.973 C 117.343 71.792,117.477 71.583,117.403 71.508 C 117.329 71.434,117.022 71.643,116.721 71.972 M122.370 72.134 C 120.729 73.146,120.500 73.629,120.571 75.922 C 120.639 78.134,120.587 78.251,118.575 80.378 C 117.982 81.006,118.269 82.290,119.003 82.290 C 119.243 82.290,120.164 81.511,121.048 80.559 C 122.620 78.867,122.686 78.828,124.008 78.828 C 125.521 78.828,126.500 78.248,127.169 76.954 C 128.651 74.088,125.055 70.477,122.370 72.134 M242.051 72.486 C 241.716 73.112,241.747 81.141,242.087 81.775 C 242.387 82.336,251.595 82.579,252.432 82.049 C 252.857 81.780,253.092 73.814,252.705 72.781 C 252.402 71.970,242.473 71.695,242.051 72.486 M125.668 72.871 C 128.200 74.644,126.854 78.296,123.669 78.296 C 122.089 78.296,121.533 78.682,120.344 80.606 C 120.032 81.111,119.577 81.491,119.286 81.491 C 118.548 81.491,118.647 81.180,119.799 79.864 C 121.303 78.147,121.443 77.792,121.109 76.540 C 120.335 73.641,123.328 71.232,125.668 72.871 M266.854 72.952 C 266.442 73.721,266.501 73.984,267.419 75.470 C 268.482 77.190,268.476 77.860,267.385 79.404 C 265.785 81.670,267.337 83.487,269.090 81.399 C 269.830 80.518,270.839 80.086,270.839 80.652 C 270.839 81.708,272.732 82.528,273.469 81.791 C 274.138 81.122,273.976 80.423,272.766 78.751 L 271.843 77.475 272.760 76.088 C 273.975 74.250,274.126 73.594,273.482 72.950 C 272.709 72.177,271.988 72.315,271.307 73.366 C 270.548 74.538,270.096 74.539,269.163 73.369 C 268.319 72.312,267.295 72.127,266.854 72.952 M103.992 133.289 C 103.992 166.684,104.023 180.307,104.061 163.561 C 104.099 146.814,104.099 119.491,104.061 102.842 C 104.023 86.192,103.992 99.893,103.992 133.289 M252.239 74.110 C 252.289 74.883,252.270 76.891,252.197 78.570 L 252.064 81.625 247.572 81.698 C 244.485 81.748,242.965 81.675,242.712 81.465 C 242.323 81.143,242.148 73.254,242.521 72.881 C 242.619 72.783,244.825 72.703,247.423 72.703 L 252.148 72.703 252.239 74.110 M296.003 133.289 C 296.003 166.538,296.034 180.179,296.072 163.603 C 296.110 147.027,296.110 119.823,296.072 103.150 C 296.034 86.478,296.003 100.040,296.003 133.289 M122.394 74.055 C 121.143 75.542,122.023 77.483,123.953 77.493 C 125.912 77.503,126.817 75.328,125.405 74.008 C 124.295 72.972,123.292 72.987,122.394 74.055 M269.210 74.303 C 270.181 75.510,270.587 75.465,271.505 74.046 C 271.854 73.505,272.219 73.248,272.567 73.296 C 273.407 73.412,273.331 74.106,272.315 75.616 C 271.155 77.340,271.155 77.387,272.304 79.095 C 273.795 81.311,273.149 82.519,271.495 80.606 C 270.439 79.384,269.991 79.378,269.080 80.572 C 268.600 81.202,268.180 81.491,267.822 81.438 C 266.978 81.313,267.024 80.879,268.034 79.409 C 269.211 77.698,269.211 77.102,268.031 75.349 C 266.557 73.158,267.569 72.260,269.210 74.303 M124.952 74.234 C 125.927 75.371,125.328 76.964,123.925 76.964 C 123.215 76.964,122.261 76.047,122.246 75.350 C 122.220 74.124,124.167 73.321,124.952 74.234 M245.672 74.282 L 243.808 74.434 243.808 77.230 L 243.808 80.027 247.403 80.027 L 250.999 80.027 251.075 77.387 C 251.118 75.935,251.052 74.647,250.930 74.525 C 250.626 74.221,247.938 74.097,245.672 74.282 M189.447 77.364 C 189.448 78.975,189.492 79.599,189.545 78.752 C 189.598 77.904,189.597 76.586,189.544 75.822 C 189.490 75.059,189.447 75.752,189.447 77.364 M250.280 74.887 C 250.675 75.282,250.708 78.661,250.324 79.378 C 249.828 80.305,244.595 80.145,244.357 79.196 C 244.173 78.462,244.200 75.109,244.393 74.767 C 244.586 74.424,249.925 74.533,250.280 74.887 M130.907 76.224 C 130.322 77.060,130.393 77.929,131.085 78.414 C 131.885 78.975,177.320 79.043,178.429 78.485 C 179.284 78.055,179.514 76.500,178.798 75.977 C 178.421 75.701,173.634 75.632,154.824 75.632 L 131.322 75.632 130.907 76.224 M218.708 75.907 C 217.869 76.244,217.865 77.828,218.701 78.414 C 220.642 79.773,230.360 78.771,230.360 77.211 C 230.360 75.771,221.511 74.781,218.708 75.907 M177.844 76.340 C 178.961 76.633,178.532 77.848,177.230 78.077 C 175.920 78.308,139.991 78.297,135.020 78.064 L 131.425 77.896 131.343 77.186 C 131.284 76.682,131.400 76.440,131.742 76.350 C 132.460 76.162,177.130 76.152,177.844 76.340 M228.877 76.425 C 229.644 76.716,229.806 77.612,229.139 77.868 C 228.381 78.159,221.198 78.350,220.108 78.109 C 218.975 77.858,218.611 77.243,219.185 76.552 C 219.567 76.091,227.719 75.985,228.877 76.425 M188.818 81.218 C 188.634 81.663,188.078 82.382,187.584 82.816 C 187.089 83.250,186.684 83.693,186.684 83.799 C 186.684 83.906,187.114 83.580,187.639 83.075 C 188.589 82.162,189.493 80.749,189.270 80.526 C 189.206 80.462,189.002 80.773,188.818 81.218 M117.262 83.156 C 117.839 83.705,118.442 84.154,118.602 84.154 C 118.762 84.154,118.597 83.956,118.235 83.714 C 117.873 83.472,117.270 83.023,116.895 82.715 C 116.520 82.408,116.685 82.607,117.262 83.156 M119.640 84.338 C 119.897 84.405,120.316 84.405,120.573 84.338 C 120.829 84.271,120.619 84.216,120.107 84.216 C 119.594 84.216,119.384 84.271,119.640 84.338 M121.438 84.421 C 120.943 84.747,184.166 84.746,184.953 84.421 C 185.246 84.299,171.165 84.191,153.662 84.179 C 133.157 84.166,121.695 84.252,121.438 84.421 M114.676 92.565 C 114.587 92.797,114.543 114.817,114.579 141.500 L 114.645 190.013 114.779 141.278 L 114.913 92.543 198.269 92.409 L 281.625 92.276 198.231 92.210 C 122.394 92.150,114.823 92.182,114.676 92.565 M282.557 92.294 C 283.491 92.500,285.165 92.537,285.048 92.348 C 284.979 92.236,284.300 92.158,283.540 92.175 C 282.779 92.192,282.337 92.245,282.557 92.294 M262.947 106.255 C 262.406 106.474,260.911 108.887,260.575 110.087 C 260.487 110.398,260.228 111.023,259.998 111.475 C 259.352 112.743,259.707 113.056,264.749 115.651 C 267.293 116.961,269.952 118.330,270.659 118.694 C 272.307 119.542,272.512 119.374,274.026 115.937 C 275.613 112.331,275.164 110.865,272.009 109.358 C 271.439 109.086,270.792 108.762,270.573 108.639 C 266.468 106.336,264.370 105.681,262.947 106.255 M269.150 108.553 C 273.060 110.559,274.122 111.368,274.424 112.571 C 274.656 113.495,272.518 118.509,271.892 118.509 C 271.633 118.509,267.078 116.293,265.853 115.571 C 265.380 115.293,264.242 114.680,263.323 114.210 C 262.403 113.740,261.327 113.133,260.932 112.860 L 260.213 112.366 261.400 109.911 C 263.393 105.790,263.671 105.741,269.150 108.553 M128.971 113.903 C 126.353 114.405,125.873 118.421,128.282 119.666 C 129.067 120.072,133.680 120.107,186.785 120.107 L 244.436 120.107 245.387 119.210 C 246.961 117.726,246.562 115.083,244.621 114.130 C 243.849 113.751,130.916 113.529,128.971 113.903 M245.027 115.292 C 246.122 116.387,246.080 117.489,244.897 118.671 L 243.989 119.580 186.279 119.510 L 128.570 119.441 127.800 118.519 C 126.799 117.320,126.821 116.487,127.882 115.392 L 128.733 114.514 186.491 114.514 L 244.249 114.514 245.027 115.292 M258.151 115.886 C 257.778 116.366,256.366 119.355,253.076 126.631 C 252.413 128.096,251.466 130.166,250.971 131.231 C 250.476 132.296,249.639 134.153,249.111 135.359 C 248.583 136.564,248.043 137.730,247.910 137.949 C 247.777 138.169,247.543 138.648,247.389 139.015 C 247.235 139.381,246.885 140.160,246.610 140.746 C 246.104 141.826,244.514 145.300,243.747 147.004 C 243.516 147.517,242.941 148.775,242.469 149.800 C 240.706 153.625,240.491 154.152,240.229 155.292 C 240.081 155.933,239.956 157.656,239.950 159.121 C 239.945 160.586,239.763 163.462,239.545 165.513 C 238.571 174.678,239.146 175.040,245.273 169.114 C 253.737 160.928,253.192 161.597,255.430 156.643 C 256.419 154.455,257.106 152.948,258.065 150.866 C 258.470 149.987,259.426 147.889,260.189 146.205 C 260.953 144.521,261.912 142.423,262.320 141.545 C 262.728 140.666,263.442 139.108,263.907 138.083 C 264.371 137.057,265.150 135.379,265.638 134.354 C 266.762 131.993,268.110 129.072,268.710 127.696 C 268.965 127.111,269.616 125.693,270.155 124.546 C 271.493 121.703,271.707 121.973,265.533 118.689 C 259.998 115.744,258.658 115.235,258.151 115.886 M266.511 119.839 C 270.828 122.036,270.722 121.867,269.466 124.562 C 269.004 125.554,268.508 126.664,268.364 127.031 C 267.946 128.089,267.322 129.515,267.023 130.093 C 265.928 132.209,264.714 134.818,264.714 135.053 C 264.714 135.208,264.474 135.640,264.181 136.013 C 263.888 136.385,263.648 136.842,263.648 137.029 C 263.648 137.215,263.109 138.522,262.450 139.932 C 261.791 141.343,261.252 142.536,261.252 142.584 C 261.252 142.632,260.473 144.299,259.521 146.288 C 258.569 148.277,257.790 149.981,257.790 150.074 C 257.790 150.167,257.386 151.046,256.894 152.028 C 256.401 153.010,255.907 154.109,255.795 154.470 C 254.640 158.215,251.834 162.292,248.219 165.474 C 247.862 165.788,246.144 167.423,244.401 169.108 C 240.221 173.147,239.302 173.237,239.805 169.560 C 239.909 168.799,240.108 166.138,240.247 163.648 C 240.728 155.008,240.792 154.611,242.133 151.798 C 242.797 150.406,243.611 148.668,243.942 147.936 C 245.398 144.718,246.191 143.001,247.163 140.961 C 247.735 139.762,248.202 138.724,248.202 138.656 C 248.202 138.587,248.742 137.377,249.401 135.966 C 250.060 134.556,250.599 133.351,250.599 133.290 C 250.599 133.228,251.198 131.915,251.931 130.371 C 252.663 128.827,253.862 126.300,254.594 124.756 C 255.326 123.212,255.925 121.898,255.925 121.837 C 255.925 121.775,256.465 120.571,257.124 119.160 C 257.783 117.749,258.322 116.496,258.322 116.376 C 258.322 115.825,259.132 115.998,260.852 116.914 C 261.877 117.460,264.424 118.776,266.511 119.839 M259.696 120.075 C 259.177 120.404,258.565 121.529,256.965 125.100 C 256.686 125.722,256.230 126.741,255.951 127.364 C 255.671 127.986,254.892 129.674,254.220 131.114 C 253.547 132.553,252.996 133.775,252.996 133.827 C 252.996 133.924,251.354 137.503,250.188 139.947 C 248.637 143.199,246.871 147.037,246.871 147.157 C 246.871 147.228,246.451 148.152,245.939 149.209 C 244.695 151.772,244.700 152.944,245.956 153.605 C 246.687 153.989,247.584 153.519,248.133 152.463 C 248.362 152.024,248.653 151.485,248.780 151.265 C 248.908 151.045,249.197 150.446,249.423 149.933 C 251.271 145.740,252.546 142.931,254.232 139.337 C 254.870 137.977,255.393 136.822,255.393 136.771 C 255.393 136.720,255.997 135.376,256.737 133.785 C 257.476 132.194,258.272 130.473,258.507 129.960 C 258.741 129.447,259.035 128.820,259.160 128.566 C 259.285 128.311,259.387 127.961,259.387 127.788 C 259.387 127.614,259.546 127.283,259.739 127.052 C 260.352 126.318,262.051 122.286,262.051 121.564 C 262.051 120.089,260.861 119.336,259.696 120.075 M261.028 120.662 C 261.588 120.962,261.563 122.204,260.976 123.268 C 260.845 123.507,260.482 124.301,260.170 125.033 C 259.857 125.766,259.150 127.324,258.598 128.495 C 258.046 129.667,257.349 131.165,257.050 131.824 C 256.750 132.483,255.896 134.304,255.150 135.871 C 254.405 137.438,253.795 138.789,253.795 138.873 C 253.795 139.020,253.555 139.545,251.180 144.607 C 250.596 145.852,249.793 147.590,249.396 148.469 C 247.685 152.251,247.352 152.843,246.845 153.004 C 245.497 153.432,245.178 151.959,246.194 149.998 C 246.554 149.303,247.107 148.136,247.423 147.403 C 247.738 146.671,248.702 144.541,249.564 142.670 C 250.426 140.800,251.132 139.221,251.132 139.163 C 251.132 139.105,251.655 137.940,252.294 136.573 C 252.933 135.206,253.787 133.369,254.192 132.490 C 256.313 127.882,256.676 127.089,257.055 126.232 C 259.594 120.490,259.901 120.059,261.028 120.662 M128.229 132.133 C 126.517 133.075,126.172 135.684,127.581 137.034 L 128.397 137.816 184.082 137.885 C 243.379 137.958,240.746 138.005,240.746 136.861 C 240.746 136.748,241.096 135.898,241.524 134.972 C 241.952 134.046,242.384 132.959,242.485 132.557 L 242.668 131.824 185.715 131.832 C 144.813 131.838,128.612 131.923,128.229 132.133 M241.804 132.823 C 241.800 133.079,241.344 134.188,240.789 135.286 L 239.780 137.284 184.210 137.284 L 128.641 137.284 127.952 136.595 C 126.781 135.424,127.200 133.234,128.711 132.626 C 129.993 132.109,241.812 132.304,241.804 132.823 M128.229 149.976 C 126.508 150.924,126.179 153.494,127.594 154.941 L 128.423 155.790 180.257 155.858 C 235.925 155.930,233.078 156.001,233.378 154.542 C 233.462 154.131,233.663 153.196,233.825 152.463 C 233.986 151.731,234.141 150.832,234.169 150.466 L 234.221 149.800 181.491 149.741 C 143.505 149.699,128.613 149.765,128.229 149.976 M233.466 150.932 C 233.383 151.335,233.195 152.305,233.048 153.087 C 232.901 153.870,232.641 154.679,232.470 154.885 C 232.204 155.205,224.584 155.260,180.500 155.260 L 128.842 155.260 127.936 154.354 C 126.676 153.094,127.060 151.132,128.697 150.474 C 129.044 150.334,151.120 150.226,181.455 150.217 L 233.616 150.200 233.466 150.932 M243.455 155.624 C 243.199 155.956,242.610 160.486,242.610 162.122 C 242.610 163.374,243.430 164.268,244.769 164.475 C 245.990 164.664,250.836 160.136,250.418 159.198 C 250.086 158.455,243.772 155.214,243.455 155.624 M246.072 157.279 C 246.438 157.492,247.360 157.980,248.121 158.363 C 250.052 159.336,250.032 159.471,247.598 161.893 C 245.226 164.251,244.906 164.376,243.814 163.365 C 243.020 162.629,243.014 162.468,243.574 157.490 L 243.728 156.126 244.567 156.509 C 245.029 156.720,245.706 157.066,246.072 157.279 M127.706 168.337 C 126.624 169.286,126.365 171.349,127.182 172.515 C 128.208 173.979,125.212 173.901,180.598 173.901 L 231.704 173.901 231.945 173.269 C 232.353 172.195,232.377 168.415,231.978 167.935 C 231.658 167.549,226.943 167.510,180.136 167.510 L 128.647 167.510 127.706 168.337 M231.558 170.573 L 231.558 172.969 180.121 173.037 L 128.685 173.104 127.858 172.162 C 126.822 170.982,126.819 170.432,127.843 169.267 C 128.938 168.020,124.251 168.119,180.826 168.149 L 231.558 168.176 231.558 170.573 M114.780 190.331 C 114.780 190.927,117.358 190.945,200.000 190.945 C 282.642 190.945,285.220 190.927,285.220 190.331 C 285.220 190.136,285.114 190.146,284.900 190.360 C 284.435 190.825,115.565 190.825,115.100 190.360 C 114.886 190.146,114.780 190.136,114.780 190.331 M294.850 196.683 C 294.404 197.662,294.489 197.871,294.972 196.980 C 295.197 196.565,295.331 196.175,295.270 196.114 C 295.210 196.053,295.020 196.309,294.850 196.683 M105.992 198.770 C 105.992 199.379,110.008 202.929,110.697 202.929 C 110.815 202.929,110.302 202.519,109.557 202.017 C 108.813 201.516,107.706 200.540,107.098 199.849 C 106.490 199.159,105.992 198.673,105.992 198.770 M292.163 200.475 C 291.222 201.443,290.802 201.982,291.231 201.674 C 291.980 201.136,292.977 200.119,293.721 199.134 C 294.350 198.302,293.908 198.683,292.163 200.475 M111.585 203.329 C 111.951 203.538,112.490 203.708,112.783 203.707 C 113.076 203.706,112.836 203.532,112.250 203.321 C 110.916 202.840,110.734 202.843,111.585 203.329 M287.750 203.339 C 287.310 203.540,287.130 203.705,287.350 203.707 C 287.570 203.708,288.049 203.538,288.415 203.329 C 289.257 202.848,288.808 202.854,287.750 203.339 M113.981 203.991 C 114.201 204.135,114.670 204.255,115.024 204.257 C 115.879 204.262,115.663 204.111,114.514 203.900 C 113.858 203.780,113.700 203.807,113.981 203.991 M284.953 203.995 C 284.405 204.170,284.381 204.212,284.820 204.230 C 285.113 204.243,285.533 204.137,285.752 203.995 C 286.219 203.693,285.895 203.693,284.953 203.995 " stroke="none" fill="#eebb8b" fill-rule="evenodd"></path></g></svg>