<svg id="svg" version="1.1" xmlns="http://www.w3.org/2000/svg" xmlns:xlink="http://www.w3.org/1999/xlink" width="400" height="390.4761904761905" viewBox="0, 0, 400,390.4761904761905"><g id="svgg"><path id="path0" d="M86.297 130.762 C 86.280 131.353,86.178 131.616,86.069 131.348 C 85.397 129.681,83.203 131.378,83.203 133.566 C 83.203 135.074,83.142 135.156,82.027 135.156 L 80.850 135.156 80.952 199.823 L 81.055 264.489 80.167 264.266 C 79.578 264.118,79.203 264.243,79.051 264.639 C 78.926 264.966,78.578 265.234,78.279 265.234 C 77.979 265.234,77.734 265.498,77.734 265.820 C 77.734 266.143,77.471 266.406,77.148 266.406 C 76.826 266.406,76.563 266.680,76.563 267.015 C 76.563 267.350,76.387 267.516,76.172 267.383 C 75.951 267.247,75.781 267.565,75.781 268.112 C 75.781 268.709,76.045 269.152,76.465 269.262 C 77.006 269.403,76.974 269.450,76.314 269.486 C 75.249 269.544,73.372 270.507,73.695 270.830 C 73.830 270.965,73.651 271.186,73.298 271.322 C 72.945 271.457,72.656 271.725,72.656 271.917 C 72.656 272.391,71.188 273.828,70.703 273.828 C 70.488 273.828,70.313 274.086,70.313 274.402 C 70.313 274.742,70.082 274.887,69.746 274.758 C 69.297 274.586,69.200 274.891,69.276 276.235 C 69.384 278.129,68.246 279.987,67.609 278.957 C 67.379 278.585,67.206 278.560,67.014 278.871 C 66.865 279.112,66.579 279.208,66.379 279.085 C 66.179 278.961,66.016 279.134,66.016 279.469 C 66.016 279.804,65.840 280.078,65.625 280.078 C 65.410 280.078,65.234 280.342,65.234 280.664 C 65.234 280.986,64.971 281.250,64.648 281.250 C 64.326 281.250,64.063 281.426,64.063 281.641 C 64.063 281.855,63.836 282.031,63.560 282.031 C 62.872 282.031,62.804 283.585,63.481 283.845 C 64.563 284.260,63.239 285.598,62.012 285.329 C 61.113 285.133,60.938 285.225,60.938 285.894 C 60.938 286.489,60.762 286.631,60.254 286.449 C 59.878 286.314,59.703 286.349,59.864 286.527 C 60.229 286.929,59.053 288.281,58.338 288.281 C 58.049 288.281,57.813 288.545,57.813 288.867 C 57.813 289.189,57.549 289.453,57.227 289.453 C 56.247 289.453,56.418 293.918,57.436 294.936 C 58.302 295.802,58.150 296.589,57.187 296.220 C 56.700 296.033,56.611 296.274,56.712 297.507 C 56.815 298.769,56.994 299.046,57.778 299.157 C 58.524 299.262,58.606 299.370,58.169 299.676 C 57.770 299.956,57.908 300.000,58.667 299.835 C 59.245 299.709,59.827 299.783,59.960 299.999 C 60.093 300.214,59.928 300.391,59.593 300.391 C 59.258 300.391,58.984 300.552,58.984 300.749 C 58.984 300.947,58.875 301.393,58.741 301.742 C 58.607 302.090,58.651 302.331,58.839 302.277 C 59.388 302.118,60.938 303.266,60.938 303.832 C 60.938 304.150,61.279 304.299,61.816 304.217 C 62.300 304.143,62.651 303.867,62.598 303.604 C 62.544 303.341,62.686 303.125,62.914 303.125 C 63.155 303.125,63.251 303.616,63.143 304.297 C 63.012 305.133,63.117 305.469,63.511 305.469 C 63.814 305.469,64.063 305.728,64.063 306.045 C 64.063 306.717,66.397 306.432,66.889 305.700 C 67.046 305.466,67.178 305.757,67.182 306.348 C 67.189 307.773,70.841 308.039,71.207 306.641 C 71.411 305.862,71.740 305.859,189.453 305.859 L 307.495 305.859 307.704 306.660 C 308.075 308.078,311.563 307.600,311.411 306.152 C 311.349 305.562,311.481 305.078,311.704 305.078 C 311.927 305.078,312.109 305.342,312.109 305.664 C 312.109 305.986,312.329 306.252,312.598 306.255 C 312.866 306.258,313.481 306.367,313.965 306.496 C 314.592 306.664,314.844 306.563,314.844 306.142 C 314.844 305.818,315.119 305.447,315.454 305.318 C 315.790 305.189,315.956 304.907,315.822 304.690 C 315.679 304.459,316.071 304.297,316.774 304.297 C 317.431 304.297,317.969 304.123,317.969 303.911 C 317.969 303.310,319.242 301.970,319.601 302.192 C 319.777 302.301,319.922 301.852,319.922 301.195 C 319.922 300.393,320.115 300.000,320.508 300.000 C 320.830 300.000,321.094 299.824,321.094 299.609 C 321.094 299.395,321.369 299.219,321.706 299.219 C 322.132 299.219,322.280 298.920,322.194 298.230 C 322.126 297.686,321.914 297.262,321.723 297.287 C 321.375 297.333,320.720 296.518,320.709 296.024 C 320.706 295.878,320.963 295.499,321.281 295.181 C 322.089 294.373,322.463 289.453,321.716 289.453 C 321.420 289.453,321.084 289.211,320.971 288.915 C 320.840 288.573,320.397 288.448,319.752 288.571 C 318.962 288.722,318.789 288.634,318.967 288.171 C 319.122 287.765,318.970 287.596,318.484 287.637 C 318.021 287.675,317.730 287.388,317.648 286.811 C 317.579 286.324,317.359 286.027,317.160 286.150 C 316.960 286.273,316.797 285.924,316.797 285.375 C 316.797 284.825,316.621 284.375,316.406 284.375 C 316.191 284.375,316.016 283.848,316.016 283.203 C 316.016 282.497,315.812 282.031,315.503 282.031 C 314.974 282.031,314.000 281.201,312.764 279.697 C 312.296 279.127,311.781 278.901,311.261 279.037 C 310.622 279.204,310.509 279.094,310.673 278.467 C 310.828 277.874,310.759 277.787,310.383 278.099 C 310.111 278.325,309.773 278.393,309.632 278.252 C 309.186 277.805,309.353 277.344,309.961 277.344 C 310.283 277.344,310.547 277.075,310.547 276.746 C 310.547 276.417,310.283 276.046,309.961 275.923 C 309.639 275.799,309.375 275.528,309.375 275.321 C 309.375 274.834,308.370 273.828,307.882 273.828 C 307.675 273.828,307.405 273.565,307.281 273.244 C 307.155 272.916,306.667 272.703,306.165 272.756 C 305.443 272.833,305.266 272.653,305.234 271.808 C 305.195 270.742,304.295 269.531,303.544 269.531 C 303.313 269.531,303.125 269.152,303.125 268.690 C 303.125 268.216,302.442 267.198,301.563 266.361 C 300.703 265.544,300.000 264.692,300.000 264.469 C 300.000 264.245,299.638 264.063,299.196 264.063 C 298.753 264.063,298.501 263.885,298.635 263.669 C 298.768 263.453,298.603 263.170,298.267 263.041 C 297.723 262.833,297.656 260.360,297.656 240.388 L 297.656 217.969 290.847 217.969 C 284.380 217.969,284.025 217.929,283.789 217.188 C 283.653 216.758,283.198 216.406,282.778 216.406 C 282.033 216.406,282.016 216.788,282.042 232.715 C 282.065 247.133,281.998 249.038,281.464 249.150 C 281.113 249.223,280.859 249.686,280.859 250.252 C 280.859 251.443,280.025 252.344,278.922 252.344 C 278.156 252.344,277.225 253.741,277.583 254.354 C 277.787 254.704,276.572 255.130,276.137 254.861 C 275.941 254.740,275.781 254.388,275.781 254.079 C 275.781 253.590,264.332 253.516,189.258 253.516 C 114.183 253.516,102.734 253.590,102.734 254.079 C 102.734 255.749,101.229 255.093,101.086 253.360 C 100.997 252.294,100.943 252.268,99.228 252.489 C 97.917 252.658,97.637 252.613,98.145 252.316 C 98.870 251.890,99.098 250.391,98.438 250.391 C 98.223 250.391,98.047 250.126,98.047 249.803 C 98.047 249.381,97.691 249.244,96.777 249.315 C 95.657 249.402,95.508 249.299,95.508 248.438 C 95.508 247.724,95.692 247.492,96.191 247.576 C 96.840 247.685,96.875 245.048,96.875 196.740 C 96.875 148.456,96.839 145.793,96.191 145.844 C 95.750 145.879,95.508 145.621,95.508 145.117 C 95.508 144.470,95.727 144.357,96.786 144.460 L 98.064 144.584 97.858 142.897 C 97.744 141.970,97.754 141.431,97.881 141.699 C 98.250 142.479,99.409 142.267,100.547 141.212 L 101.600 140.237 152.069 140.138 L 202.539 140.039 202.649 135.254 C 202.749 130.886,202.698 130.468,202.063 130.463 C 201.471 130.458,201.454 130.400,201.953 130.078 C 202.333 129.833,182.800 129.697,146.432 129.693 C 90.651 129.688,90.324 129.692,90.121 130.469 C 90.009 130.898,89.725 131.250,89.490 131.250 C 89.255 131.250,89.063 130.898,89.063 130.469 C 89.063 129.074,86.337 129.362,86.297 130.762 M245.866 190.202 C 245.219 190.848,247.005 190.977,257.031 191.004 C 264.517 191.024,268.359 190.899,268.359 190.634 C 268.359 190.414,268.140 190.229,267.871 190.222 C 262.771 190.098,245.986 190.083,245.866 190.202 M243.816 203.406 C 243.758 211.672,243.824 212.838,244.336 212.641 C 245.021 212.378,245.237 196.875,244.555 196.875 C 244.353 196.875,244.119 196.216,244.035 195.410 C 243.950 194.604,243.852 198.202,243.816 203.406 M205.339 199.089 C 204.904 199.523,205.031 214.453,205.469 214.453 C 205.716 214.453,205.859 211.589,205.859 206.641 C 205.859 202.344,205.801 198.828,205.729 198.828 C 205.658 198.828,205.482 198.945,205.339 199.089 M251.098 215.917 C 254.172 215.983,259.094 215.983,262.035 215.917 C 264.976 215.851,262.461 215.797,256.445 215.797 C 250.430 215.797,248.023 215.851,251.098 215.917 M222.180 284.001 C 222.018 285.106,222.077 285.174,223.017 284.968 C 223.820 284.791,224.290 285.023,225.301 286.096 C 226.801 287.685,226.299 288.403,224.716 286.934 C 223.653 285.949,222.656 285.627,222.656 286.268 C 222.656 286.788,224.067 288.281,224.558 288.281 C 224.801 288.281,225.000 288.524,225.000 288.822 C 225.000 289.119,225.396 289.470,225.879 289.603 C 226.612 289.804,226.661 289.908,226.172 290.228 C 225.663 290.563,225.670 290.614,226.228 290.619 C 226.581 290.622,226.971 290.361,227.094 290.039 C 227.387 289.275,228.086 289.289,228.384 290.064 C 229.051 291.801,229.251 291.792,189.289 291.895 C 168.539 291.948,151.562 291.881,151.562 291.745 C 151.562 291.609,151.168 291.394,150.686 291.268 C 149.862 291.053,149.849 290.999,150.471 290.377 C 151.016 289.833,151.239 289.804,151.734 290.214 C 152.229 290.626,152.377 290.603,152.576 290.083 C 152.709 289.737,153.063 289.453,153.362 289.453 C 153.661 289.453,153.906 289.189,153.906 288.867 C 153.906 288.545,154.170 288.281,154.492 288.281 C 154.814 288.281,155.078 288.105,155.078 287.891 C 155.078 287.676,155.331 287.500,155.640 287.500 C 155.961 287.500,156.176 287.165,156.143 286.719 C 156.065 285.693,155.685 285.733,154.111 286.934 C 152.426 288.218,152.085 287.666,153.550 286.027 C 154.579 284.874,154.831 284.779,156.249 285.006 C 157.863 285.264,158.627 284.272,157.227 283.735 C 155.152 282.939,159.573 282.813,189.497 282.813 L 222.354 282.813 222.180 284.001 M210.156 298.981 C 210.156 299.652,209.881 299.984,209.180 300.160 C 208.643 300.295,208.203 300.668,208.203 300.988 C 208.203 301.497,205.841 301.557,189.355 301.469 C 171.218 301.371,170.510 301.340,170.570 300.637 C 170.623 300.007,170.423 299.935,169.105 300.111 C 168.265 300.224,167.578 300.157,167.578 299.963 C 167.578 299.768,167.842 299.609,168.164 299.609 C 168.490 299.609,168.750 299.262,168.750 298.828 C 168.750 298.057,169.010 298.047,189.453 298.047 L 210.156 298.047 210.156 298.981 " stroke="none" fill="#545453" fill-rule="evenodd"></path><path id="path1" d="M177.344 0.977 C 177.344 1.456,176.671 1.563,173.633 1.563 C 170.595 1.563,169.922 1.669,169.922 2.148 C 169.922 2.628,169.249 2.734,166.211 2.734 C 163.095 2.734,162.500 2.833,162.500 3.349 C 162.500 3.843,162.103 3.943,160.475 3.857 C 159.163 3.787,158.396 3.914,158.294 4.218 C 158.190 4.531,157.105 4.688,155.046 4.688 C 152.557 4.688,151.953 4.802,151.953 5.273 C 151.953 5.697,151.519 5.859,150.391 5.859 C 149.262 5.859,148.828 6.022,148.828 6.445 C 148.828 6.895,148.329 7.031,146.680 7.031 C 145.498 7.031,144.531 7.207,144.531 7.422 C 144.531 7.637,143.828 7.813,142.969 7.813 C 141.840 7.813,141.406 7.975,141.406 8.398 C 141.406 8.822,140.972 8.984,139.844 8.984 C 138.715 8.984,138.281 9.147,138.281 9.570 C 138.281 10.020,137.782 10.156,136.133 10.156 C 134.951 10.156,133.984 10.332,133.984 10.547 C 133.984 10.762,133.539 10.938,132.996 10.937 C 132.452 10.937,131.906 11.201,131.782 11.523 C 131.635 11.905,131.028 12.109,130.036 12.109 C 128.945 12.109,128.516 12.275,128.516 12.695 C 128.516 13.118,128.082 13.281,126.953 13.281 C 125.825 13.281,125.391 13.444,125.391 13.867 C 125.391 14.232,125.022 14.453,124.414 14.453 C 123.877 14.453,123.438 14.629,123.438 14.844 C 123.438 15.059,122.753 15.234,121.917 15.234 C 120.925 15.234,120.318 15.438,120.171 15.820 C 120.048 16.143,119.501 16.406,118.958 16.406 C 118.339 16.406,117.969 16.626,117.969 16.992 C 117.969 17.357,117.600 17.578,116.992 17.578 C 116.455 17.578,116.016 17.754,116.016 17.969 C 116.016 18.184,115.488 18.359,114.844 18.359 C 114.063 18.359,113.672 18.555,113.672 18.945 C 113.672 19.368,113.238 19.531,112.109 19.531 C 110.981 19.531,110.547 19.694,110.547 20.117 C 110.547 20.439,110.283 20.703,109.961 20.703 C 109.639 20.703,109.375 20.967,109.375 21.289 C 109.375 21.701,108.960 21.875,107.980 21.875 C 106.615 21.875,105.469 22.575,105.469 23.410 C 105.469 23.640,104.941 23.828,104.297 23.828 C 103.516 23.828,103.125 24.023,103.125 24.414 C 103.125 24.779,102.756 25.000,102.148 25.000 C 101.611 25.000,101.172 25.176,101.172 25.391 C 101.172 25.605,100.645 25.781,100.000 25.781 C 99.219 25.781,98.828 25.977,98.828 26.367 C 98.828 26.732,98.459 26.953,97.852 26.953 C 97.244 26.953,96.875 27.174,96.875 27.539 C 96.875 27.861,96.611 28.125,96.289 28.125 C 95.967 28.125,95.703 28.389,95.703 28.711 C 95.703 29.076,95.334 29.297,94.727 29.297 C 94.189 29.297,93.750 29.473,93.750 29.688 C 93.750 29.902,93.486 30.078,93.164 30.078 C 92.842 30.078,92.578 30.342,92.578 30.664 C 92.578 31.029,92.209 31.250,91.602 31.250 C 90.994 31.250,90.625 31.471,90.625 31.836 C 90.625 32.215,90.245 32.422,89.546 32.422 C 88.851 32.422,88.206 32.769,87.733 33.398 C 87.314 33.957,86.605 34.375,86.078 34.375 C 85.519 34.375,85.156 34.606,85.156 34.961 C 85.156 35.283,84.893 35.547,84.570 35.547 C 84.248 35.547,83.984 35.811,83.984 36.133 C 83.984 36.497,83.615 36.719,83.008 36.719 C 82.471 36.719,82.031 36.895,82.031 37.109 C 82.031 37.324,81.768 37.500,81.445 37.500 C 81.123 37.500,80.859 37.764,80.859 38.086 C 80.859 38.408,80.684 38.672,80.469 38.672 C 80.254 38.672,80.078 38.936,80.078 39.258 C 80.078 39.648,79.688 39.844,78.906 39.844 C 78.262 39.844,77.734 40.020,77.734 40.234 C 77.734 40.449,77.471 40.625,77.148 40.625 C 76.826 40.625,76.563 40.889,76.563 41.211 C 76.563 41.533,76.387 41.797,76.172 41.797 C 75.957 41.797,75.781 42.061,75.781 42.383 C 75.781 42.705,75.518 42.969,75.195 42.969 C 74.873 42.969,74.609 43.145,74.609 43.359 C 74.609 43.574,74.252 43.750,73.816 43.750 C 73.379 43.750,72.921 44.014,72.798 44.336 C 72.674 44.658,72.328 44.922,72.029 44.922 C 71.729 44.922,71.484 45.186,71.484 45.508 C 71.484 45.830,71.221 46.094,70.898 46.094 C 70.576 46.094,70.313 46.357,70.313 46.680 C 70.313 47.002,70.124 47.266,69.894 47.266 C 69.353 47.266,68.359 48.259,68.359 48.800 C 68.359 49.030,67.832 49.219,67.188 49.219 C 66.543 49.219,66.016 49.400,66.016 49.623 C 66.016 50.128,63.778 52.344,63.268 52.344 C 63.060 52.344,62.891 52.533,62.891 52.764 C 62.891 53.311,60.733 55.469,60.186 55.469 C 59.955 55.469,59.766 55.732,59.766 56.055 C 59.766 56.377,59.502 56.641,59.180 56.641 C 58.857 56.641,58.594 56.829,58.594 57.059 C 58.594 57.600,57.600 58.594,57.059 58.594 C 56.829 58.594,56.641 58.857,56.641 59.180 C 56.641 59.502,56.377 59.766,56.055 59.766 C 55.732 59.766,55.469 60.029,55.469 60.352 C 55.469 60.674,55.293 60.938,55.078 60.938 C 54.863 60.938,54.688 61.201,54.688 61.523 C 54.688 61.846,54.424 62.109,54.102 62.109 C 53.779 62.109,53.516 62.285,53.516 62.500 C 53.516 62.715,53.252 62.891,52.930 62.891 C 52.607 62.891,52.344 63.154,52.344 63.477 C 52.344 63.799,52.080 64.063,51.758 64.063 C 51.436 64.063,51.172 64.251,51.172 64.481 C 51.172 65.022,50.178 66.016,49.637 66.016 C 49.407 66.016,49.219 66.279,49.219 66.602 C 49.219 66.924,48.955 67.188,48.633 67.188 C 48.311 67.188,48.047 67.451,48.047 67.773 C 48.047 68.096,47.871 68.359,47.656 68.359 C 47.441 68.359,47.266 68.623,47.266 68.945 C 47.266 69.268,47.002 69.531,46.680 69.531 C 46.315 69.531,46.094 69.900,46.094 70.508 C 46.094 71.115,45.872 71.484,45.508 71.484 C 45.186 71.484,44.922 71.748,44.922 72.070 C 44.922 72.393,44.734 72.656,44.503 72.656 C 43.963 72.656,42.969 73.650,42.969 74.191 C 42.969 74.421,42.705 74.609,42.383 74.609 C 42.061 74.609,41.797 74.873,41.797 75.195 C 41.797 75.518,41.533 75.781,41.211 75.781 C 40.846 75.781,40.625 76.150,40.625 76.758 C 40.625 77.295,40.449 77.734,40.234 77.734 C 40.020 77.734,39.844 77.998,39.844 78.320 C 39.844 78.643,39.580 78.906,39.258 78.906 C 38.936 78.906,38.672 79.170,38.672 79.492 C 38.672 79.814,38.408 80.078,38.086 80.078 C 37.721 80.078,37.500 80.447,37.500 81.055 C 37.500 81.662,37.279 82.031,36.914 82.031 C 36.592 82.031,36.328 82.295,36.328 82.617 C 36.328 82.939,36.152 83.203,35.938 83.203 C 35.723 83.203,35.547 83.643,35.547 84.180 C 35.547 84.787,35.326 85.156,34.961 85.156 C 34.639 85.156,34.375 85.420,34.375 85.742 C 34.375 86.064,34.111 86.328,33.789 86.328 C 33.467 86.328,33.203 86.592,33.203 86.914 C 33.203 87.236,33.027 87.500,32.813 87.500 C 32.598 87.500,32.422 87.939,32.422 88.477 C 32.422 89.084,32.201 89.453,31.836 89.453 C 31.514 89.453,31.250 89.717,31.250 90.039 C 31.250 90.361,30.986 90.625,30.664 90.625 C 30.299 90.625,30.078 90.994,30.078 91.602 C 30.078 92.139,29.902 92.578,29.688 92.578 C 29.473 92.578,29.297 93.105,29.297 93.750 C 29.297 94.531,29.102 94.922,28.711 94.922 C 28.389 94.922,28.125 95.098,28.125 95.313 C 28.125 95.527,27.861 95.703,27.539 95.703 C 27.148 95.703,26.953 96.094,26.953 96.875 C 26.953 97.656,26.758 98.047,26.367 98.047 C 26.003 98.047,25.781 98.416,25.781 99.023 C 25.781 99.561,25.605 100.000,25.391 100.000 C 25.176 100.000,25.000 100.264,25.000 100.586 C 25.000 100.908,24.736 101.172,24.414 101.172 C 24.049 101.172,23.828 101.541,23.828 102.148 C 23.828 102.756,23.607 103.125,23.242 103.125 C 22.852 103.125,22.656 103.516,22.656 104.297 C 22.656 104.941,22.480 105.469,22.266 105.469 C 22.051 105.469,21.875 105.908,21.875 106.445 C 21.875 107.053,21.654 107.422,21.289 107.422 C 20.898 107.422,20.703 107.812,20.703 108.594 C 20.703 109.323,20.519 109.729,20.215 109.668 C 19.940 109.613,19.672 110.040,19.603 110.645 C 19.532 111.259,19.240 111.719,18.919 111.719 C 18.582 111.719,18.359 112.108,18.359 112.695 C 18.359 113.232,18.184 113.672,17.969 113.672 C 17.754 113.672,17.578 114.199,17.578 114.844 C 17.578 115.625,17.383 116.016,16.992 116.016 C 16.569 116.016,16.406 116.450,16.406 117.578 C 16.406 118.707,16.243 119.141,15.820 119.141 C 15.456 119.141,15.234 119.510,15.234 120.117 C 15.234 120.654,15.059 121.094,14.844 121.094 C 14.629 121.094,14.453 121.621,14.453 122.266 C 14.453 123.047,14.258 123.438,13.867 123.438 C 13.444 123.438,13.281 123.872,13.281 125.000 C 13.281 126.128,13.118 126.563,12.695 126.563 C 12.338 126.563,12.109 126.927,12.109 127.497 C 12.109 128.011,11.846 128.533,11.523 128.657 C 11.156 128.798,10.938 129.395,10.938 130.261 C 10.938 131.020,10.762 131.641,10.547 131.641 C 10.332 131.641,10.156 132.432,10.156 133.398 C 10.156 134.701,10.004 135.156,9.570 135.156 C 9.147 135.156,8.984 135.590,8.984 136.719 C 8.984 137.847,8.822 138.281,8.398 138.281 C 7.975 138.281,7.813 138.715,7.813 139.844 C 7.813 140.703,7.637 141.406,7.422 141.406 C 7.207 141.406,7.031 142.373,7.031 143.555 C 7.031 145.204,6.895 145.703,6.445 145.703 C 6.002 145.703,5.859 146.182,5.859 147.669 C 5.859 149.055,5.687 149.700,5.273 149.859 C 4.874 150.012,4.688 150.638,4.688 151.828 C 4.688 152.857,4.447 153.812,4.102 154.157 C 3.757 154.502,3.516 155.456,3.516 156.473 C 3.516 157.425,3.340 158.203,3.125 158.203 C 2.892 158.203,2.734 159.701,2.734 161.914 C 2.734 164.952,2.628 165.625,2.148 165.625 C 1.676 165.625,1.563 166.233,1.563 168.750 C 1.563 171.267,1.449 171.875,0.977 171.875 C 0.462 171.875,0.391 174.783,0.391 195.703 C 0.391 216.623,0.462 219.531,0.977 219.531 C 1.449 219.531,1.562 220.140,1.562 222.669 C 1.562 225.097,1.695 225.857,2.148 226.031 C 2.611 226.208,2.734 227.020,2.734 229.892 C 2.734 231.892,2.901 233.587,3.104 233.659 C 3.307 233.730,3.516 234.624,3.568 235.645 C 3.630 236.868,3.836 237.500,4.175 237.500 C 4.536 237.500,4.688 238.135,4.688 239.648 C 4.688 241.298,4.824 241.797,5.273 241.797 C 5.723 241.797,5.859 242.296,5.859 243.945 C 5.859 245.595,5.996 246.094,6.445 246.094 C 6.868 246.094,7.031 246.528,7.031 247.656 C 7.031 248.516,7.207 249.219,7.422 249.219 C 7.637 249.219,7.813 250.186,7.813 251.367 C 7.813 253.016,7.949 253.516,8.398 253.516 C 8.822 253.516,8.984 253.950,8.984 255.078 C 8.984 256.207,9.147 256.641,9.570 256.641 C 9.993 256.641,10.156 257.075,10.156 258.203 C 10.156 259.063,10.332 259.766,10.547 259.766 C 10.762 259.766,10.938 260.469,10.938 261.328 C 10.938 262.457,11.100 262.891,11.523 262.891 C 11.914 262.891,12.109 263.281,12.109 264.063 C 12.109 264.844,12.305 265.234,12.695 265.234 C 13.118 265.234,13.281 265.668,13.281 266.797 C 13.281 267.925,13.444 268.359,13.867 268.359 C 14.232 268.359,14.453 268.728,14.453 269.336 C 14.453 269.873,14.629 270.313,14.844 270.313 C 15.059 270.313,15.234 270.840,15.234 271.484 C 15.234 272.266,15.430 272.656,15.820 272.656 C 16.243 272.656,16.406 273.090,16.406 274.219 C 16.406 275.347,16.569 275.781,16.992 275.781 C 17.357 275.781,17.578 276.150,17.578 276.758 C 17.578 277.295,17.754 277.734,17.969 277.734 C 18.184 277.734,18.359 278.179,18.359 278.723 C 18.359 279.267,18.623 279.813,18.945 279.937 C 19.268 280.061,19.531 280.582,19.531 281.096 C 19.531 281.667,19.760 282.031,20.117 282.031 C 20.508 282.031,20.703 282.422,20.703 283.203 C 20.703 283.984,20.898 284.375,21.289 284.375 C 21.654 284.375,21.875 284.744,21.875 285.352 C 21.875 285.889,22.051 286.328,22.266 286.328 C 22.480 286.328,22.656 286.768,22.656 287.305 C 22.656 287.912,22.878 288.281,23.242 288.281 C 23.633 288.281,23.828 288.672,23.828 289.453 C 23.828 290.234,24.023 290.625,24.414 290.625 C 24.736 290.625,25.000 290.889,25.000 291.211 C 25.000 291.533,25.176 291.797,25.391 291.797 C 25.605 291.797,25.781 292.236,25.781 292.773 C 25.781 293.381,26.003 293.750,26.367 293.750 C 26.732 293.750,26.953 294.119,26.953 294.727 C 26.953 295.334,27.174 295.703,27.539 295.703 C 27.861 295.703,28.125 295.967,28.125 296.289 C 28.125 296.611,28.389 296.875,28.711 296.875 C 29.102 296.875,29.297 297.266,29.297 298.047 C 29.297 298.691,29.473 299.219,29.688 299.219 C 29.902 299.219,30.078 299.658,30.078 300.195 C 30.078 300.803,30.299 301.172,30.664 301.172 C 30.986 301.172,31.250 301.436,31.250 301.758 C 31.250 302.080,31.438 302.344,31.669 302.344 C 32.414 302.344,33.203 303.434,33.203 304.464 C 33.203 305.017,33.379 305.469,33.594 305.469 C 34.215 305.469,35.547 306.969,35.547 307.670 C 35.547 308.021,35.986 308.716,36.523 309.214 C 37.061 309.712,37.500 310.479,37.500 310.919 C 37.500 311.369,37.756 311.719,38.086 311.719 C 38.408 311.719,38.672 311.982,38.672 312.305 C 38.672 312.627,38.936 312.891,39.258 312.891 C 39.580 312.891,39.844 313.165,39.844 313.500 C 39.844 313.835,40.020 314.000,40.234 313.867 C 40.462 313.726,40.625 314.124,40.625 314.821 C 40.625 315.622,40.818 316.016,41.211 316.016 C 41.533 316.016,41.797 316.279,41.797 316.602 C 41.797 316.924,41.979 317.188,42.201 317.188 C 42.706 317.188,44.922 319.425,44.922 319.935 C 44.922 320.143,45.186 320.313,45.508 320.313 C 45.872 320.313,46.094 320.681,46.094 321.289 C 46.094 321.897,46.315 322.266,46.680 322.266 C 47.002 322.266,47.266 322.455,47.266 322.686 C 47.266 323.233,49.423 325.391,49.970 325.391 C 50.201 325.391,50.391 325.580,50.391 325.811 C 50.391 326.358,52.548 328.516,53.095 328.516 C 53.326 328.516,53.516 328.779,53.516 329.102 C 53.516 329.424,53.779 329.688,54.102 329.688 C 54.424 329.688,54.687 329.877,54.687 330.108 C 54.687 330.655,56.845 332.813,57.392 332.813 C 57.623 332.813,57.813 333.002,57.812 333.233 C 57.812 333.780,59.970 335.937,60.517 335.938 C 60.748 335.938,60.938 336.122,60.938 336.347 C 60.938 336.572,61.377 337.163,61.914 337.661 C 62.451 338.159,62.891 338.766,62.891 339.010 C 62.891 339.254,63.154 339.453,63.477 339.453 C 63.799 339.453,64.063 339.629,64.063 339.844 C 64.063 340.059,64.326 340.234,64.648 340.234 C 64.971 340.234,65.234 340.408,65.234 340.621 C 65.234 341.312,66.562 342.578,67.287 342.578 C 68.020 342.578,70.313 344.661,70.313 345.326 C 70.313 345.533,70.576 345.703,70.898 345.703 C 71.221 345.703,71.484 345.967,71.484 346.289 C 71.484 346.611,71.748 346.875,72.070 346.875 C 72.393 346.875,72.656 347.051,72.656 347.266 C 72.656 347.480,73.096 347.656,73.633 347.656 C 74.240 347.656,74.609 347.878,74.609 348.242 C 74.609 348.564,74.873 348.828,75.195 348.828 C 75.518 348.828,75.781 349.016,75.781 349.247 C 75.781 349.787,76.775 350.781,77.316 350.781 C 77.546 350.781,77.734 351.045,77.734 351.367 C 77.734 351.758,78.125 351.953,78.906 351.953 C 79.551 351.953,80.078 352.141,80.078 352.372 C 80.078 352.912,81.072 353.906,81.613 353.906 C 81.843 353.906,82.031 354.170,82.031 354.492 C 82.031 354.857,82.400 355.078,83.008 355.078 C 83.615 355.078,83.984 355.299,83.984 355.664 C 83.984 355.986,84.248 356.250,84.570 356.250 C 84.893 356.250,85.156 356.514,85.156 356.836 C 85.156 357.179,85.520 357.427,86.035 357.434 C 87.043 357.449,88.281 358.273,88.281 358.930 C 88.281 359.175,88.809 359.375,89.453 359.375 C 90.234 359.375,90.625 359.570,90.625 359.961 C 90.625 360.326,90.994 360.547,91.602 360.547 C 92.139 360.547,92.578 360.723,92.578 360.938 C 92.578 361.152,92.842 361.328,93.164 361.328 C 93.486 361.328,93.750 361.592,93.750 361.914 C 93.750 362.279,94.119 362.500,94.727 362.500 C 95.334 362.500,95.703 362.721,95.703 363.086 C 95.703 363.408,95.967 363.672,96.289 363.672 C 96.611 363.672,96.875 363.936,96.875 364.258 C 96.875 364.622,97.244 364.844,97.852 364.844 C 98.389 364.844,98.828 365.020,98.828 365.234 C 98.828 365.449,99.355 365.625,100.000 365.625 C 100.781 365.625,101.172 365.820,101.172 366.211 C 101.172 366.576,101.541 366.797,102.148 366.797 C 102.756 366.797,103.125 367.018,103.125 367.383 C 103.125 367.752,103.497 367.969,104.129 367.969 C 105.160 367.969,106.250 368.758,106.250 369.503 C 106.250 369.734,106.909 369.929,107.715 369.938 C 108.850 369.951,109.395 370.215,110.138 371.110 C 110.845 371.963,111.434 372.266,112.384 372.266 C 113.092 372.266,113.672 372.441,113.672 372.656 C 113.672 372.871,114.199 373.047,114.844 373.047 C 115.625 373.047,116.016 373.242,116.016 373.633 C 116.016 373.997,116.385 374.219,116.992 374.219 C 117.600 374.219,117.969 374.440,117.969 374.805 C 117.969 375.165,118.335 375.391,118.922 375.391 C 119.447 375.391,119.984 375.566,120.117 375.781 C 120.250 375.996,121.051 376.172,121.898 376.172 C 123.006 376.172,123.438 376.336,123.438 376.758 C 123.438 377.122,123.806 377.344,124.414 377.344 C 125.022 377.344,125.391 377.565,125.391 377.930 C 125.391 378.353,125.825 378.516,126.953 378.516 C 128.082 378.516,128.516 378.678,128.516 379.102 C 128.516 379.525,128.950 379.688,130.078 379.688 C 130.938 379.688,131.641 379.863,131.641 380.078 C 131.641 380.293,132.168 380.469,132.813 380.469 C 133.594 380.469,133.984 380.664,133.984 381.055 C 133.984 381.504,134.484 381.641,136.133 381.641 C 137.782 381.641,138.281 381.777,138.281 382.227 C 138.281 382.650,138.715 382.813,139.844 382.813 C 140.703 382.813,141.406 382.988,141.406 383.203 C 141.406 383.418,142.109 383.594,142.969 383.594 C 144.097 383.594,144.531 383.757,144.531 384.180 C 144.531 384.629,145.030 384.766,146.680 384.766 C 148.329 384.766,148.828 384.902,148.828 385.352 C 148.828 385.773,149.259 385.938,150.358 385.937 C 151.200 385.937,151.956 386.141,152.039 386.390 C 152.140 386.692,153.194 386.814,155.197 386.756 C 157.702 386.682,158.203 386.770,158.203 387.279 C 158.203 387.760,158.662 387.891,160.352 387.891 C 162.001 387.891,162.500 388.027,162.500 388.477 C 162.500 388.956,163.173 389.063,166.211 389.063 C 169.058 389.063,169.922 389.185,169.922 389.588 C 169.922 390.362,177.631 390.622,200.586 390.622 C 223.541 390.622,231.250 390.362,231.250 389.588 C 231.250 389.185,232.114 389.063,234.961 389.063 C 237.999 389.063,238.672 388.956,238.672 388.477 C 238.672 388.027,239.171 387.891,240.820 387.891 C 242.513 387.891,242.969 387.760,242.969 387.277 C 242.969 386.775,243.408 386.681,245.386 386.762 C 246.977 386.827,247.857 386.703,247.958 386.399 C 248.051 386.120,248.947 385.937,250.228 385.938 C 251.848 385.938,252.344 385.800,252.344 385.352 C 252.344 384.902,252.843 384.766,254.492 384.766 C 256.141 384.766,256.641 384.629,256.641 384.180 C 256.641 383.757,257.075 383.594,258.203 383.594 C 259.063 383.594,259.766 383.418,259.766 383.203 C 259.766 382.988,260.469 382.813,261.328 382.813 C 262.457 382.813,262.891 382.650,262.891 382.227 C 262.891 381.777,263.390 381.641,265.039 381.641 C 266.688 381.641,267.188 381.504,267.188 381.055 C 267.188 380.690,267.556 380.469,268.164 380.469 C 268.701 380.469,269.141 380.293,269.141 380.078 C 269.141 379.863,269.849 379.688,270.715 379.688 C 271.755 379.688,272.367 379.488,272.515 379.102 C 272.662 378.720,273.269 378.516,274.261 378.516 C 275.352 378.516,275.781 378.350,275.781 377.930 C 275.781 377.565,276.150 377.344,276.758 377.344 C 277.365 377.344,277.734 377.122,277.734 376.758 C 277.734 376.335,278.168 376.172,279.297 376.172 C 280.156 376.172,280.859 375.996,280.859 375.781 C 280.859 375.566,281.304 375.391,281.848 375.391 C 282.392 375.391,282.938 375.127,283.062 374.805 C 283.186 374.482,283.707 374.219,284.221 374.219 C 284.792 374.219,285.156 373.990,285.156 373.633 C 285.156 373.268,285.525 373.047,286.133 373.047 C 286.670 373.047,287.109 372.871,287.109 372.656 C 287.109 372.441,287.773 372.266,288.585 372.266 C 290.006 372.266,291.406 371.294,291.406 370.308 C 291.406 370.096,292.109 369.922,292.969 369.922 C 294.097 369.922,294.531 369.759,294.531 369.336 C 294.531 369.014,294.795 368.750,295.117 368.750 C 295.439 368.750,295.703 368.574,295.703 368.359 C 295.703 368.145,296.230 367.969,296.875 367.969 C 297.656 367.969,298.047 367.773,298.047 367.383 C 298.047 367.018,298.416 366.797,299.023 366.797 C 299.631 366.797,300.000 366.576,300.000 366.211 C 300.000 365.846,300.369 365.625,300.977 365.625 C 301.514 365.625,301.953 365.449,301.953 365.234 C 301.953 365.020,302.398 364.844,302.942 364.844 C 303.486 364.844,304.032 364.580,304.156 364.258 C 304.279 363.936,304.625 363.672,304.925 363.672 C 305.224 363.672,305.469 363.408,305.469 363.086 C 305.469 362.721,305.838 362.500,306.445 362.500 C 307.053 362.500,307.422 362.279,307.422 361.914 C 307.422 361.592,307.686 361.328,308.008 361.328 C 308.330 361.328,308.594 361.152,308.594 360.938 C 308.594 360.723,309.033 360.547,309.570 360.547 C 310.158 360.547,310.547 360.324,310.547 359.987 C 310.547 359.666,311.006 359.374,311.621 359.303 C 312.225 359.234,312.653 358.966,312.598 358.691 C 312.544 358.423,312.764 358.203,313.086 358.203 C 313.408 358.203,313.672 358.027,313.672 357.813 C 313.672 357.598,314.199 357.422,314.844 357.422 C 315.625 357.422,316.016 357.227,316.016 356.836 C 316.016 356.514,316.191 356.250,316.406 356.250 C 316.621 356.250,316.797 355.986,316.797 355.664 C 316.797 355.342,317.061 355.078,317.383 355.078 C 317.705 355.078,317.969 354.814,317.969 354.492 C 317.969 354.128,318.338 353.906,318.945 353.906 C 319.482 353.906,319.922 353.730,319.922 353.516 C 319.922 353.301,320.186 353.125,320.508 353.125 C 320.830 353.125,321.094 352.861,321.094 352.539 C 321.094 352.148,321.484 351.953,322.266 351.953 C 322.910 351.953,323.438 351.765,323.438 351.535 C 323.438 350.994,324.431 350.000,324.972 350.000 C 325.202 350.000,325.391 349.736,325.391 349.414 C 325.391 349.092,325.654 348.828,325.977 348.828 C 326.299 348.828,326.563 348.564,326.563 348.242 C 326.563 347.912,326.912 347.656,327.362 347.656 C 327.802 347.656,328.570 347.217,329.067 346.680 C 329.565 346.143,330.172 345.703,330.416 345.703 C 330.660 345.703,330.859 345.439,330.859 345.117 C 330.859 344.795,331.035 344.531,331.250 344.531 C 331.465 344.531,331.641 344.268,331.641 343.945 C 331.641 343.623,331.904 343.359,332.227 343.359 C 332.549 343.359,332.813 343.184,332.813 342.969 C 332.813 342.754,333.252 342.578,333.789 342.578 C 334.397 342.578,334.766 342.357,334.766 341.992 C 334.766 341.670,335.029 341.406,335.352 341.406 C 335.674 341.406,335.938 341.143,335.938 340.820 C 335.938 340.498,336.127 340.234,336.358 340.234 C 336.905 340.234,339.063 338.077,339.063 337.530 C 339.063 337.299,339.326 337.109,339.648 337.109 C 339.971 337.109,340.234 336.846,340.234 336.523 C 340.234 336.201,340.423 335.938,340.653 335.938 C 341.194 335.938,342.188 334.944,342.188 334.403 C 342.188 334.173,342.451 333.984,342.773 333.984 C 343.096 333.984,343.359 333.721,343.359 333.398 C 343.359 333.076,343.548 332.813,343.778 332.813 C 344.319 332.812,345.313 331.819,345.313 331.278 C 345.313 331.048,345.576 330.859,345.898 330.859 C 346.221 330.859,346.484 330.596,346.484 330.273 C 346.484 329.951,346.748 329.688,347.070 329.688 C 347.393 329.688,347.656 329.424,347.656 329.102 C 347.656 328.779,347.845 328.516,348.075 328.516 C 348.616 328.516,349.609 327.522,349.609 326.981 C 349.609 326.751,349.873 326.563,350.195 326.563 C 350.518 326.563,350.781 326.299,350.781 325.977 C 350.781 325.654,350.970 325.391,351.200 325.391 C 351.741 325.391,352.734 324.397,352.734 323.856 C 352.734 323.626,352.998 323.438,353.320 323.438 C 353.643 323.438,353.906 323.174,353.906 322.852 C 353.906 322.529,354.170 322.266,354.492 322.266 C 354.857 322.266,355.078 321.897,355.078 321.289 C 355.078 320.681,355.299 320.313,355.664 320.313 C 355.986 320.313,356.250 320.049,356.250 319.727 C 356.250 319.404,356.426 319.141,356.641 319.141 C 356.855 319.141,357.031 318.877,357.031 318.555 C 357.031 318.232,357.221 317.969,357.452 317.969 C 358.150 317.969,360.156 315.737,360.156 314.961 C 360.156 314.222,361.415 312.891,362.114 312.891 C 362.326 312.891,362.500 312.393,362.500 311.785 C 362.500 311.005,362.788 310.525,363.477 310.156 C 364.014 309.869,364.453 309.400,364.453 309.114 C 364.453 308.828,364.717 308.594,365.039 308.594 C 365.369 308.594,365.625 308.244,365.625 307.794 C 365.625 307.354,366.064 306.587,366.602 306.089 C 367.167 305.565,367.578 304.751,367.578 304.154 C 367.578 303.500,367.791 303.125,368.164 303.125 C 368.486 303.125,368.750 302.949,368.750 302.734 C 368.750 302.520,369.014 302.344,369.336 302.344 C 369.658 302.344,369.922 302.080,369.922 301.758 C 369.922 301.436,370.098 301.172,370.313 301.172 C 370.527 301.172,370.703 300.732,370.703 300.195 C 370.703 299.588,370.924 299.219,371.289 299.219 C 371.680 299.219,371.875 298.828,371.875 298.047 C 371.875 297.266,372.070 296.875,372.461 296.875 C 372.783 296.875,373.047 296.611,373.047 296.289 C 373.047 295.967,373.311 295.703,373.633 295.703 C 373.997 295.703,374.219 295.334,374.219 294.727 C 374.219 294.189,374.395 293.750,374.609 293.750 C 374.824 293.750,375.000 293.311,375.000 292.773 C 375.000 292.166,375.221 291.797,375.586 291.797 C 375.908 291.797,376.172 291.533,376.172 291.211 C 376.172 290.889,376.436 290.625,376.758 290.625 C 377.148 290.625,377.344 290.234,377.344 289.453 C 377.344 288.809,377.520 288.281,377.734 288.281 C 377.949 288.281,378.125 287.842,378.125 287.305 C 378.125 286.697,378.346 286.328,378.711 286.328 C 379.076 286.328,379.297 285.959,379.297 285.352 C 379.297 284.744,379.518 284.375,379.883 284.375 C 380.273 284.375,380.469 283.984,380.469 283.203 C 380.469 282.422,380.664 282.031,381.055 282.031 C 381.419 282.031,381.641 281.662,381.641 281.055 C 381.641 280.518,381.816 280.078,382.031 280.078 C 382.246 280.078,382.422 279.551,382.422 278.906 C 382.422 278.125,382.617 277.734,383.008 277.734 C 383.372 277.734,383.594 277.365,383.594 276.758 C 383.594 276.150,383.815 275.781,384.180 275.781 C 384.603 275.781,384.766 275.347,384.766 274.219 C 384.766 273.359,384.941 272.656,385.156 272.656 C 385.371 272.656,385.547 272.129,385.547 271.484 C 385.547 270.703,385.742 270.313,386.133 270.313 C 386.497 270.313,386.719 269.944,386.719 269.336 C 386.719 268.728,386.940 268.359,387.305 268.359 C 387.728 268.359,387.891 267.925,387.891 266.797 C 387.891 265.668,388.053 265.234,388.477 265.234 C 388.867 265.234,389.063 264.844,389.063 264.063 C 389.063 263.418,389.238 262.891,389.453 262.891 C 389.668 262.891,389.844 262.188,389.844 261.328 C 389.844 260.200,390.007 259.766,390.430 259.766 C 390.853 259.766,391.016 259.332,391.016 258.203 C 391.016 257.075,391.178 256.641,391.602 256.641 C 392.025 256.641,392.188 256.207,392.188 255.078 C 392.188 254.219,392.363 253.516,392.578 253.516 C 392.793 253.516,392.969 252.549,392.969 251.367 C 392.969 249.718,393.105 249.219,393.555 249.219 C 393.978 249.219,394.141 248.785,394.141 247.656 C 394.141 246.528,394.303 246.094,394.727 246.094 C 395.176 246.094,395.313 245.595,395.313 243.945 C 395.313 242.425,395.463 241.797,395.829 241.797 C 396.179 241.797,396.374 241.139,396.436 239.746 C 396.486 238.618,396.694 237.637,396.897 237.565 C 397.100 237.493,397.266 236.589,397.266 235.556 C 397.266 234.246,397.443 233.609,397.852 233.452 C 398.310 233.277,398.438 232.491,398.437 229.840 C 398.437 227.080,398.563 226.362,399.113 225.959 C 400.455 224.978,400.325 165.625,398.981 165.625 C 398.555 165.625,398.438 164.823,398.438 161.914 C 398.438 158.876,398.331 158.203,397.852 158.203 C 397.403 158.203,397.266 157.708,397.266 156.087 C 397.266 154.924,397.099 153.913,396.896 153.841 C 396.693 153.770,396.484 152.882,396.433 151.870 C 396.378 150.782,396.130 149.947,395.826 149.831 C 395.496 149.704,395.313 148.932,395.313 147.669 C 395.313 146.182,395.170 145.703,394.727 145.703 C 394.303 145.703,394.141 145.269,394.141 144.141 C 394.141 143.012,393.978 142.578,393.555 142.578 C 393.105 142.578,392.969 142.079,392.969 140.430 C 392.969 139.248,392.793 138.281,392.578 138.281 C 392.363 138.281,392.188 137.578,392.188 136.719 C 392.188 135.590,392.025 135.156,391.602 135.156 C 391.168 135.156,391.016 134.701,391.016 133.398 C 391.016 132.096,390.864 131.641,390.430 131.641 C 390.007 131.641,389.844 131.207,389.844 130.078 C 389.844 129.219,389.668 128.516,389.453 128.516 C 389.238 128.516,389.063 128.159,389.063 127.722 C 389.063 127.286,388.799 126.827,388.477 126.704 C 388.095 126.557,387.891 125.950,387.891 124.958 C 387.891 123.867,387.725 123.438,387.305 123.438 C 386.914 123.438,386.719 123.047,386.719 122.266 C 386.719 121.484,386.523 121.094,386.133 121.094 C 385.768 121.094,385.547 120.725,385.547 120.117 C 385.547 119.580,385.371 119.141,385.156 119.141 C 384.941 119.141,384.766 118.438,384.766 117.578 C 384.766 116.450,384.603 116.016,384.180 116.016 C 383.789 116.016,383.594 115.625,383.594 114.844 C 383.594 114.063,383.398 113.672,383.008 113.672 C 382.643 113.672,382.422 113.303,382.422 112.695 C 382.422 112.158,382.246 111.719,382.031 111.719 C 381.816 111.719,381.641 111.298,381.641 110.784 C 381.641 110.270,381.377 109.748,381.055 109.624 C 380.732 109.501,380.469 108.955,380.469 108.411 C 380.469 107.792,380.249 107.422,379.883 107.422 C 379.518 107.422,379.297 107.053,379.297 106.445 C 379.297 105.838,379.076 105.469,378.711 105.469 C 378.320 105.469,378.125 105.078,378.125 104.297 C 378.125 103.652,377.949 103.125,377.734 103.125 C 377.520 103.125,377.344 102.686,377.344 102.148 C 377.344 101.541,377.122 101.172,376.758 101.172 C 376.436 101.172,376.172 100.908,376.172 100.586 C 376.172 100.264,375.908 100.000,375.586 100.000 C 375.221 100.000,375.000 99.631,375.000 99.023 C 375.000 98.486,374.824 98.047,374.609 98.047 C 374.395 98.047,374.219 97.646,374.219 97.157 C 374.219 96.285,373.025 94.922,372.261 94.922 C 372.049 94.922,371.875 94.395,371.875 93.750 C 371.875 92.969,371.680 92.578,371.289 92.578 C 370.924 92.578,370.703 92.209,370.703 91.602 C 370.703 91.064,370.527 90.625,370.313 90.625 C 370.098 90.625,369.922 90.361,369.922 90.039 C 369.922 89.717,369.658 89.453,369.336 89.453 C 369.014 89.453,368.750 89.189,368.750 88.867 C 368.750 88.545,368.486 88.281,368.164 88.281 C 367.799 88.281,367.578 87.912,367.578 87.305 C 367.578 86.768,367.402 86.328,367.188 86.328 C 366.973 86.328,366.797 86.064,366.797 85.742 C 366.797 85.420,366.533 85.156,366.211 85.156 C 365.846 85.156,365.625 84.787,365.625 84.180 C 365.625 83.572,365.404 83.203,365.039 83.203 C 364.717 83.203,364.453 82.939,364.453 82.617 C 364.453 82.295,364.277 82.031,364.063 82.031 C 363.848 82.031,363.672 81.674,363.672 81.238 C 363.672 80.801,363.408 80.343,363.086 80.219 C 362.764 80.096,362.500 79.750,362.500 79.450 C 362.500 79.151,362.236 78.906,361.914 78.906 C 361.592 78.906,361.328 78.643,361.328 78.320 C 361.328 77.998,361.064 77.734,360.742 77.734 C 360.378 77.734,360.156 77.365,360.156 76.758 C 360.156 76.221,359.980 75.781,359.766 75.781 C 359.551 75.781,359.375 75.518,359.375 75.195 C 359.375 74.873,359.111 74.609,358.789 74.609 C 358.467 74.609,358.203 74.346,358.203 74.023 C 358.203 73.701,358.021 73.438,357.799 73.438 C 357.102 73.438,355.078 71.103,355.078 70.299 C 355.078 69.877,354.814 69.531,354.492 69.531 C 354.170 69.531,353.906 69.268,353.906 68.945 C 353.906 68.623,353.643 68.359,353.320 68.359 C 352.998 68.359,352.734 68.170,352.734 67.939 C 352.734 67.392,350.577 65.234,350.030 65.234 C 349.799 65.234,349.609 65.045,349.609 64.814 C 349.609 64.267,347.452 62.109,346.905 62.109 C 346.674 62.109,346.484 61.846,346.484 61.523 C 346.484 61.201,346.221 60.938,345.898 60.938 C 345.576 60.938,345.313 60.748,345.313 60.517 C 345.313 59.970,343.155 57.813,342.608 57.813 C 342.377 57.813,342.188 57.623,342.188 57.392 C 342.188 56.845,340.030 54.688,339.483 54.688 C 339.252 54.688,339.063 54.503,339.063 54.278 C 339.063 54.053,338.623 53.462,338.086 52.964 C 337.549 52.466,337.109 51.859,337.109 51.615 C 337.109 51.371,336.846 51.172,336.523 51.172 C 336.201 51.172,335.938 50.996,335.938 50.781 C 335.938 50.566,335.674 50.391,335.352 50.391 C 335.029 50.391,334.766 50.127,334.766 49.805 C 334.766 49.440,334.397 49.219,333.789 49.219 C 333.181 49.219,332.813 48.997,332.813 48.633 C 332.813 48.311,332.631 48.047,332.409 48.047 C 331.903 48.047,329.688 45.809,329.688 45.299 C 329.688 45.092,329.424 44.922,329.102 44.922 C 328.779 44.922,328.516 44.658,328.516 44.336 C 328.516 43.971,328.147 43.750,327.539 43.750 C 327.002 43.750,326.563 43.574,326.563 43.359 C 326.563 43.145,326.299 42.969,325.977 42.969 C 325.654 42.969,325.391 42.705,325.391 42.383 C 325.391 42.061,325.127 41.797,324.805 41.797 C 324.482 41.797,324.219 41.609,324.219 41.378 C 324.219 40.633,323.128 39.844,322.098 39.844 C 321.466 39.844,321.094 39.627,321.094 39.258 C 321.094 38.936,320.830 38.672,320.508 38.672 C 320.186 38.672,319.922 38.484,319.922 38.253 C 319.922 37.508,318.831 36.719,317.801 36.719 C 317.169 36.719,316.797 36.502,316.797 36.133 C 316.797 35.811,316.621 35.547,316.406 35.547 C 316.191 35.547,316.016 35.283,316.016 34.961 C 316.016 34.570,315.625 34.375,314.844 34.375 C 314.199 34.375,313.672 34.175,313.672 33.930 C 313.672 33.273,312.433 32.449,311.426 32.434 C 310.910 32.427,310.547 32.179,310.547 31.836 C 310.547 31.471,310.178 31.250,309.570 31.250 C 308.963 31.250,308.594 31.029,308.594 30.664 C 308.594 30.342,308.330 30.078,308.008 30.078 C 307.686 30.078,307.422 29.902,307.422 29.688 C 307.422 29.473,307.070 29.297,306.641 29.297 C 305.827 29.297,304.297 28.022,304.297 27.344 C 304.297 27.129,303.770 26.953,303.125 26.953 C 302.344 26.953,301.953 26.758,301.953 26.367 C 301.953 26.003,301.584 25.781,300.977 25.781 C 300.439 25.781,300.000 25.605,300.000 25.391 C 300.000 25.176,299.561 25.000,299.023 25.000 C 298.416 25.000,298.047 24.779,298.047 24.414 C 298.047 24.023,297.656 23.828,296.875 23.828 C 296.094 23.828,295.703 23.633,295.703 23.242 C 295.703 22.920,295.439 22.656,295.117 22.656 C 294.795 22.656,294.531 22.480,294.531 22.266 C 294.531 22.051,293.828 21.875,292.969 21.875 C 292.109 21.875,291.406 21.701,291.406 21.489 C 291.406 20.503,290.006 19.531,288.585 19.531 C 287.534 19.531,287.109 19.363,287.109 18.945 C 287.109 18.581,286.740 18.359,286.133 18.359 C 285.596 18.359,285.156 18.184,285.156 17.969 C 285.156 17.754,284.717 17.578,284.180 17.578 C 283.572 17.578,283.203 17.357,283.203 16.992 C 283.203 16.602,282.813 16.406,282.031 16.406 C 281.250 16.406,280.859 16.211,280.859 15.820 C 280.859 15.397,280.425 15.234,279.297 15.234 C 278.438 15.234,277.734 15.059,277.734 14.844 C 277.734 14.629,277.295 14.453,276.758 14.453 C 276.150 14.453,275.781 14.232,275.781 13.867 C 275.781 13.444,275.347 13.281,274.219 13.281 C 273.090 13.281,272.656 13.118,272.656 12.695 C 272.656 12.263,272.205 12.109,270.940 12.109 C 269.775 12.109,269.152 11.921,268.999 11.523 C 268.876 11.201,268.417 10.937,267.981 10.938 C 267.545 10.938,267.188 10.762,267.188 10.547 C 267.188 10.332,266.221 10.156,265.039 10.156 C 263.390 10.156,262.891 10.020,262.891 9.570 C 262.891 9.147,262.457 8.984,261.328 8.984 C 260.200 8.984,259.766 8.822,259.766 8.398 C 259.766 7.975,259.332 7.813,258.203 7.813 C 257.344 7.813,256.641 7.637,256.641 7.422 C 256.641 7.207,255.674 7.031,254.492 7.031 C 252.843 7.031,252.344 6.895,252.344 6.445 C 252.344 6.022,251.910 5.859,250.781 5.859 C 249.653 5.859,249.219 5.697,249.219 5.273 C 249.219 4.802,248.615 4.688,246.126 4.688 C 244.087 4.688,242.981 4.530,242.879 4.224 C 242.781 3.928,241.988 3.794,240.698 3.852 C 239.089 3.926,238.672 3.820,238.672 3.340 C 238.672 2.836,238.052 2.734,234.961 2.734 C 231.923 2.734,231.250 2.628,231.250 2.148 C 231.250 1.669,230.577 1.563,227.539 1.563 C 224.501 1.563,223.828 1.456,223.828 0.977 C 223.828 0.462,220.985 0.391,200.586 0.391 C 180.187 0.391,177.344 0.462,177.344 0.977 M203.765 20.117 C 203.954 20.611,205.214 20.703,211.761 20.703 C 218.407 20.703,219.531 20.788,219.531 21.289 C 219.531 21.779,220.334 21.875,224.414 21.875 C 227.409 21.875,229.297 22.026,229.297 22.266 C 229.297 22.486,230.404 22.656,231.836 22.656 C 233.832 22.656,234.375 22.781,234.375 23.242 C 234.375 23.707,234.939 23.828,237.109 23.828 C 239.280 23.828,239.844 23.949,239.844 24.414 C 239.844 24.857,240.321 25.000,241.797 25.000 C 242.871 25.000,243.750 25.176,243.750 25.391 C 243.750 25.605,244.717 25.781,245.898 25.781 C 247.548 25.781,248.047 25.917,248.047 26.367 C 248.047 26.817,248.546 26.953,250.195 26.953 C 251.845 26.953,252.344 27.089,252.344 27.539 C 252.344 27.951,252.759 28.125,253.739 28.125 C 254.506 28.125,255.398 28.389,255.720 28.711 C 256.042 29.033,256.821 29.297,257.450 29.297 C 258.079 29.297,258.594 29.473,258.594 29.688 C 258.594 29.902,259.302 30.078,260.169 30.078 C 261.208 30.078,261.820 30.277,261.968 30.664 C 262.115 31.046,262.722 31.250,263.714 31.250 C 264.805 31.250,265.234 31.415,265.234 31.836 C 265.234 32.201,265.603 32.422,266.211 32.422 C 266.748 32.422,267.188 32.598,267.188 32.813 C 267.188 33.027,267.891 33.203,268.750 33.203 C 269.878 33.203,270.313 33.366,270.313 33.789 C 270.313 34.180,270.703 34.375,271.484 34.375 C 272.266 34.375,272.656 34.570,272.656 34.961 C 272.656 35.326,273.025 35.547,273.633 35.547 C 274.170 35.547,274.609 35.723,274.609 35.938 C 274.609 36.152,275.313 36.328,276.172 36.328 C 277.300 36.328,277.734 36.491,277.734 36.914 C 277.734 37.305,278.125 37.500,278.906 37.500 C 279.688 37.500,280.078 37.695,280.078 38.086 C 280.078 38.451,280.447 38.672,281.055 38.672 C 281.662 38.672,282.031 38.893,282.031 39.258 C 282.031 39.622,282.400 39.844,283.008 39.844 C 283.545 39.844,283.984 40.020,283.984 40.234 C 283.984 40.449,284.512 40.625,285.156 40.625 C 285.938 40.625,286.328 40.820,286.328 41.211 C 286.328 41.576,286.697 41.797,287.305 41.797 C 287.912 41.797,288.281 42.018,288.281 42.383 C 288.281 42.705,288.545 42.969,288.867 42.969 C 289.189 42.969,289.453 43.145,289.453 43.359 C 289.453 43.574,289.893 43.750,290.430 43.750 C 291.037 43.750,291.406 43.971,291.406 44.336 C 291.406 44.727,291.797 44.922,292.578 44.922 C 293.359 44.922,293.750 45.117,293.750 45.508 C 293.750 45.838,294.099 46.094,294.550 46.094 C 294.990 46.094,295.757 46.533,296.255 47.070 C 296.753 47.607,297.535 48.047,297.994 48.047 C 298.475 48.047,298.828 48.295,298.828 48.633 C 298.828 48.955,299.092 49.219,299.414 49.219 C 299.736 49.219,300.000 49.482,300.000 49.805 C 300.000 50.169,300.369 50.391,300.977 50.391 C 301.514 50.391,301.953 50.566,301.953 50.781 C 301.953 50.996,302.217 51.172,302.539 51.172 C 302.861 51.172,303.125 51.436,303.125 51.758 C 303.125 52.148,303.516 52.344,304.297 52.344 C 305.078 52.344,305.469 52.539,305.469 52.930 C 305.469 53.252,305.645 53.516,305.859 53.516 C 306.074 53.516,306.250 53.779,306.250 54.102 C 306.250 54.470,306.622 54.688,307.254 54.687 C 308.285 54.687,309.375 55.477,309.375 56.222 C 309.375 56.452,309.639 56.641,309.961 56.641 C 310.283 56.641,310.547 56.904,310.547 57.227 C 310.547 57.595,310.919 57.813,311.551 57.813 C 312.581 57.813,313.672 58.602,313.672 59.347 C 313.672 59.577,313.936 59.766,314.258 59.766 C 314.580 59.766,314.844 60.029,314.844 60.352 C 314.844 60.674,315.089 60.938,315.388 60.938 C 315.687 60.938,316.033 61.201,316.157 61.523 C 316.281 61.846,316.739 62.109,317.175 62.109 C 317.612 62.109,317.969 62.285,317.969 62.500 C 317.969 62.715,318.232 62.891,318.555 62.891 C 318.877 62.891,319.141 63.060,319.141 63.268 C 319.141 63.778,321.356 66.016,321.862 66.016 C 322.084 66.016,322.266 66.279,322.266 66.602 C 322.266 66.924,322.529 67.188,322.852 67.188 C 323.174 67.188,323.438 67.369,323.438 67.591 C 323.438 68.198,325.725 70.313,326.381 70.313 C 327.029 70.313,328.516 71.672,328.516 72.266 C 328.516 72.480,328.779 72.656,329.102 72.656 C 329.466 72.656,329.688 73.025,329.688 73.633 C 329.688 74.414,329.883 74.609,330.664 74.609 C 331.445 74.609,331.641 74.805,331.641 75.586 C 331.641 76.194,331.862 76.563,332.227 76.563 C 332.549 76.563,332.813 76.826,332.813 77.148 C 332.813 77.471,333.076 77.734,333.398 77.734 C 333.721 77.734,333.984 77.924,333.984 78.155 C 333.984 78.702,336.142 80.859,336.689 80.859 C 336.920 80.859,337.109 81.123,337.109 81.445 C 337.109 81.768,337.373 82.031,337.695 82.031 C 338.018 82.031,338.281 82.220,338.281 82.450 C 338.281 82.991,339.275 83.984,339.816 83.984 C 340.046 83.984,340.234 84.512,340.234 85.156 C 340.234 85.938,340.430 86.328,340.820 86.328 C 341.143 86.328,341.406 86.516,341.406 86.747 C 341.406 87.291,342.120 87.951,343.457 88.640 C 344.048 88.945,344.531 89.341,344.531 89.519 C 344.531 89.698,332.931 89.844,318.753 89.844 L 292.975 89.844 292.874 114.746 C 292.779 138.188,292.733 139.645,292.090 139.594 C 291.616 139.557,291.406 139.824,291.406 140.463 L 291.406 141.386 318.359 141.401 L 345.313 141.416 345.313 116.814 C 345.313 95.106,345.381 92.238,345.898 92.437 C 346.221 92.561,346.484 92.907,346.484 93.206 C 346.484 93.505,346.748 93.750,347.070 93.750 C 347.435 93.750,347.656 94.119,347.656 94.727 C 347.656 95.334,347.878 95.703,348.242 95.703 C 348.564 95.703,348.828 95.967,348.828 96.289 C 348.828 96.611,349.004 96.875,349.219 96.875 C 349.434 96.875,349.609 97.314,349.609 97.852 C 349.609 98.459,349.831 98.828,350.195 98.828 C 350.518 98.828,350.781 99.092,350.781 99.414 C 350.781 99.736,351.045 100.000,351.367 100.000 C 351.765 100.000,351.953 100.398,351.953 101.237 C 351.953 101.917,352.056 102.371,352.181 102.246 C 352.607 101.820,353.906 103.511,353.906 104.492 C 353.906 105.100,354.128 105.469,354.492 105.469 C 354.814 105.469,355.078 105.645,355.078 105.859 C 355.078 106.074,355.342 106.250,355.664 106.250 C 356.055 106.250,356.250 106.641,356.250 107.422 C 356.250 108.066,356.426 108.594,356.641 108.594 C 356.855 108.594,357.031 109.033,357.031 109.570 C 357.031 110.178,357.253 110.547,357.617 110.547 C 357.939 110.547,358.203 110.811,358.203 111.133 C 358.203 111.455,358.467 111.719,358.789 111.719 C 359.154 111.719,359.375 112.088,359.375 112.695 C 359.375 113.232,359.551 113.672,359.766 113.672 C 359.980 113.672,360.156 114.199,360.156 114.844 C 360.156 115.625,360.352 116.016,360.742 116.016 C 361.107 116.016,361.328 116.385,361.328 116.992 C 361.328 117.600,361.549 117.969,361.914 117.969 C 362.305 117.969,362.500 118.359,362.500 119.141 C 362.500 119.922,362.695 120.313,363.086 120.313 C 363.451 120.313,363.672 120.681,363.672 121.289 C 363.672 121.826,363.848 122.266,364.063 122.266 C 364.277 122.266,364.453 122.969,364.453 123.828 C 364.453 124.957,364.616 125.391,365.039 125.391 C 365.406 125.391,365.625 125.761,365.625 126.379 C 365.625 126.923,365.889 127.469,366.211 127.593 C 366.533 127.717,366.797 128.239,366.797 128.753 C 366.797 129.267,366.973 129.688,367.188 129.688 C 367.402 129.688,367.578 130.391,367.578 131.250 C 367.578 132.378,367.741 132.813,368.164 132.813 C 368.531 132.813,368.750 133.183,368.750 133.801 C 368.750 134.345,369.014 134.891,369.336 135.015 C 369.718 135.162,369.922 135.769,369.922 136.761 C 369.922 137.852,370.087 138.281,370.508 138.281 C 370.931 138.281,371.094 138.715,371.094 139.844 C 371.094 140.703,371.270 141.406,371.484 141.406 C 371.699 141.406,371.875 141.846,371.875 142.383 C 371.875 142.990,372.096 143.359,372.461 143.359 C 372.911 143.359,373.047 143.859,373.047 145.508 C 373.047 147.157,373.183 147.656,373.633 147.656 C 374.056 147.656,374.219 148.090,374.219 149.219 C 374.219 150.078,374.395 150.781,374.609 150.781 C 374.830 150.781,375.000 151.892,375.000 153.333 C 375.000 155.240,375.148 155.941,375.586 156.109 C 375.997 156.266,376.172 156.908,376.172 158.257 C 376.172 159.607,376.347 160.248,376.758 160.406 C 377.194 160.573,377.344 161.268,377.344 163.128 C 377.344 164.532,377.515 165.625,377.734 165.625 C 377.967 165.625,378.125 167.122,378.125 169.336 C 378.125 172.374,378.231 173.047,378.711 173.047 C 379.191 173.047,379.297 173.720,379.297 176.758 C 379.297 179.796,379.403 180.469,379.883 180.469 C 380.394 180.469,380.469 182.444,380.469 195.898 C 380.469 209.353,380.394 211.328,379.883 211.328 C 379.404 211.328,379.297 211.996,379.297 214.997 C 379.297 217.898,379.174 218.713,378.711 218.891 C 378.250 219.068,378.125 219.868,378.125 222.644 C 378.125 224.735,377.966 226.172,377.734 226.172 C 377.514 226.172,377.344 227.279,377.344 228.711 C 377.344 230.707,377.219 231.250,376.758 231.250 C 376.308 231.250,376.172 231.749,376.172 233.398 C 376.172 235.048,376.036 235.547,375.586 235.547 C 375.121 235.547,375.000 236.111,375.000 238.281 C 375.000 239.844,374.833 241.016,374.609 241.016 C 374.395 241.016,374.219 241.719,374.219 242.578 C 374.219 243.707,374.056 244.141,373.633 244.141 C 373.183 244.141,373.047 244.640,373.047 246.289 C 373.047 247.938,372.911 248.438,372.461 248.438 C 372.096 248.438,371.875 248.806,371.875 249.414 C 371.875 249.951,371.699 250.391,371.484 250.391 C 371.270 250.391,371.094 251.094,371.094 251.953 C 371.094 253.082,370.931 253.516,370.508 253.516 C 370.085 253.516,369.922 253.950,369.922 255.078 C 369.922 256.207,369.759 256.641,369.336 256.641 C 368.945 256.641,368.750 257.031,368.750 257.813 C 368.750 258.594,368.555 258.984,368.164 258.984 C 367.741 258.984,367.578 259.418,367.578 260.547 C 367.578 261.406,367.402 262.109,367.188 262.109 C 366.973 262.109,366.797 262.549,366.797 263.086 C 366.797 263.694,366.576 264.063,366.211 264.063 C 365.820 264.063,365.625 264.453,365.625 265.234 C 365.625 266.016,365.430 266.406,365.039 266.406 C 364.616 266.406,364.453 266.840,364.453 267.969 C 364.453 268.828,364.277 269.531,364.063 269.531 C 363.848 269.531,363.672 269.971,363.672 270.508 C 363.672 271.115,363.451 271.484,363.086 271.484 C 362.695 271.484,362.500 271.875,362.500 272.656 C 362.500 273.438,362.305 273.828,361.914 273.828 C 361.549 273.828,361.328 274.197,361.328 274.805 C 361.328 275.412,361.107 275.781,360.742 275.781 C 360.378 275.781,360.156 276.150,360.156 276.758 C 360.156 277.295,359.980 277.734,359.766 277.734 C 359.551 277.734,359.375 278.262,359.375 278.906 C 359.375 279.688,359.180 280.078,358.789 280.078 C 358.467 280.078,358.203 280.342,358.203 280.664 C 358.203 280.986,357.939 281.250,357.617 281.250 C 357.253 281.250,357.031 281.619,357.031 282.227 C 357.031 282.764,356.855 283.203,356.641 283.203 C 356.426 283.203,356.250 283.643,356.250 284.180 C 356.250 284.787,356.029 285.156,355.664 285.156 C 355.342 285.156,355.078 285.420,355.078 285.742 C 355.078 286.064,354.814 286.328,354.492 286.328 C 354.162 286.328,353.906 286.677,353.906 287.128 C 353.906 287.568,353.467 288.335,352.930 288.833 C 352.364 289.357,351.953 290.171,351.953 290.767 C 351.953 291.334,351.779 291.797,351.567 291.797 C 350.839 291.797,349.609 293.142,349.609 293.939 C 349.609 294.378,349.170 295.066,348.633 295.470 C 348.074 295.889,347.656 296.598,347.656 297.125 C 347.656 297.684,347.426 298.047,347.070 298.047 C 346.748 298.047,346.484 298.281,346.484 298.567 C 346.484 298.853,346.045 299.322,345.508 299.609 C 344.819 299.978,344.531 300.458,344.531 301.238 C 344.531 301.846,344.342 302.344,344.111 302.344 C 343.879 302.344,343.176 302.858,342.548 303.486 C 341.920 304.114,341.406 304.817,341.406 305.048 C 341.406 305.279,341.143 305.469,340.820 305.469 C 340.456 305.469,340.234 305.838,340.234 306.445 C 340.234 307.053,340.013 307.422,339.648 307.422 C 339.326 307.422,339.063 307.686,339.063 308.008 C 339.063 308.330,338.887 308.594,338.672 308.594 C 338.457 308.594,338.281 308.857,338.281 309.180 C 338.281 309.502,338.092 309.766,337.860 309.766 C 337.311 309.766,333.984 313.092,333.984 313.641 C 333.984 313.873,333.721 314.063,333.398 314.063 C 333.076 314.063,332.813 314.238,332.813 314.453 C 332.813 314.668,332.549 314.844,332.227 314.844 C 331.836 314.844,331.641 315.234,331.641 316.016 C 331.641 317.005,331.489 317.188,330.664 317.188 C 329.883 317.188,329.688 317.383,329.688 318.164 C 329.688 318.772,329.466 319.141,329.102 319.141 C 328.779 319.141,328.516 319.404,328.516 319.727 C 328.516 320.049,328.252 320.313,327.930 320.313 C 327.607 320.313,327.344 320.597,327.344 320.944 C 327.344 321.389,327.107 321.513,326.539 321.365 C 326.046 321.236,325.651 321.370,325.520 321.710 C 325.403 322.016,325.062 322.266,324.763 322.266 C 324.464 322.266,324.219 322.529,324.219 322.852 C 324.219 323.174,324.043 323.438,323.828 323.438 C 323.613 323.438,323.438 323.701,323.438 324.023 C 323.438 324.346,323.174 324.609,322.852 324.609 C 322.529 324.609,322.266 324.785,322.266 325.000 C 322.266 325.215,322.002 325.391,321.680 325.391 C 321.357 325.391,321.094 325.654,321.094 325.977 C 321.094 326.299,320.830 326.563,320.508 326.563 C 320.186 326.563,319.922 326.744,319.922 326.966 C 319.922 327.663,317.587 329.688,316.783 329.688 C 316.361 329.688,316.016 329.951,316.016 330.273 C 316.016 330.596,315.752 330.859,315.430 330.859 C 315.107 330.859,314.844 331.123,314.844 331.445 C 314.844 331.768,314.655 332.031,314.425 332.031 C 313.884 332.031,312.891 333.025,312.891 333.566 C 312.891 333.796,312.363 333.984,311.719 333.984 C 310.938 333.984,310.547 334.180,310.547 334.570 C 310.547 334.893,310.359 335.156,310.128 335.156 C 309.588 335.156,308.594 336.150,308.594 336.691 C 308.594 336.921,308.066 337.109,307.422 337.109 C 306.641 337.109,306.250 337.305,306.250 337.695 C 306.250 338.018,306.074 338.281,305.859 338.281 C 305.645 338.281,305.469 338.545,305.469 338.867 C 305.469 339.258,305.078 339.453,304.297 339.453 C 303.652 339.453,303.125 339.629,303.125 339.844 C 303.125 340.059,302.861 340.234,302.539 340.234 C 302.217 340.234,301.953 340.498,301.953 340.820 C 301.953 341.185,301.584 341.406,300.977 341.406 C 300.369 341.406,300.000 341.628,300.000 341.992 C 300.000 342.314,299.736 342.578,299.414 342.578 C 299.092 342.578,298.828 342.754,298.828 342.969 C 298.828 343.184,298.389 343.359,297.852 343.359 C 297.244 343.359,296.875 343.581,296.875 343.945 C 296.875 344.268,296.611 344.531,296.289 344.531 C 295.967 344.531,295.703 344.795,295.703 345.117 C 295.703 345.482,295.334 345.703,294.727 345.703 C 294.119 345.703,293.750 345.924,293.750 346.289 C 293.750 346.680,293.359 346.875,292.578 346.875 C 291.934 346.875,291.406 347.051,291.406 347.266 C 291.406 347.480,290.967 347.656,290.430 347.656 C 289.822 347.656,289.453 347.878,289.453 348.242 C 289.453 348.564,289.189 348.828,288.867 348.828 C 288.545 348.828,288.281 349.092,288.281 349.414 C 288.281 349.779,287.912 350.000,287.305 350.000 C 286.768 350.000,286.328 350.176,286.328 350.391 C 286.328 350.605,285.801 350.781,285.156 350.781 C 284.375 350.781,283.984 350.977,283.984 351.367 C 283.984 351.732,283.615 351.953,283.008 351.953 C 282.400 351.953,282.031 352.174,282.031 352.539 C 282.031 352.904,281.662 353.125,281.055 353.125 C 280.447 353.125,280.078 353.346,280.078 353.711 C 280.078 354.102,279.688 354.297,278.906 354.297 C 278.262 354.297,277.734 354.473,277.734 354.688 C 277.734 354.902,277.031 355.078,276.172 355.078 C 275.043 355.078,274.609 355.241,274.609 355.664 C 274.609 356.029,274.240 356.250,273.633 356.250 C 273.025 356.250,272.656 356.471,272.656 356.836 C 272.656 357.227,272.266 357.422,271.484 357.422 C 270.840 357.422,270.313 357.598,270.313 357.813 C 270.313 358.027,269.609 358.203,268.750 358.203 C 267.622 358.203,267.188 358.366,267.188 358.789 C 267.188 359.154,266.819 359.375,266.211 359.375 C 265.603 359.375,265.234 359.596,265.234 359.961 C 265.234 360.396,264.776 360.547,263.454 360.547 C 262.366 360.547,261.767 360.699,261.914 360.937 C 262.057 361.169,261.602 361.328,260.793 361.328 C 260.044 361.328,259.167 361.592,258.845 361.914 C 258.523 362.236,257.631 362.500,256.864 362.500 C 255.884 362.500,255.469 362.674,255.469 363.086 C 255.469 363.509,255.035 363.672,253.906 363.672 C 252.778 363.672,252.344 363.835,252.344 364.258 C 252.344 364.708,251.845 364.844,250.195 364.844 C 249.014 364.844,248.047 365.020,248.047 365.234 C 248.047 365.449,247.162 365.625,246.081 365.625 C 244.695 365.625,244.050 365.798,243.891 366.211 C 243.734 366.621,243.094 366.797,241.755 366.797 C 240.317 366.797,239.844 366.942,239.844 367.383 C 239.844 367.848,239.280 367.969,237.109 367.969 C 235.547 367.969,234.375 368.136,234.375 368.359 C 234.375 368.580,233.268 368.750,231.836 368.750 C 229.839 368.750,229.297 368.875,229.297 369.336 C 229.297 369.826,228.494 369.922,224.414 369.922 C 220.334 369.922,219.531 370.018,219.531 370.508 C 219.531 371.009,218.407 371.094,211.761 371.094 C 205.214 371.094,203.954 371.186,203.765 371.680 C 203.436 372.537,197.266 372.537,197.266 371.680 C 197.266 371.178,196.142 371.094,189.495 371.094 C 182.948 371.094,181.689 371.001,181.499 370.508 C 181.317 370.032,180.397 369.922,176.617 369.922 C 172.836 369.922,171.916 369.811,171.734 369.336 C 171.568 368.905,170.887 368.750,169.153 368.750 C 167.843 368.750,166.797 368.577,166.797 368.359 C 166.797 368.136,165.625 367.969,164.063 367.969 C 161.892 367.969,161.328 367.848,161.328 367.383 C 161.328 366.933,160.829 366.797,159.180 366.797 C 157.530 366.797,157.031 366.661,157.031 366.211 C 157.031 365.761,156.532 365.625,154.883 365.625 C 153.701 365.625,152.734 365.449,152.734 365.234 C 152.734 365.020,151.855 364.844,150.781 364.844 C 149.306 364.844,148.828 364.701,148.828 364.258 C 148.828 363.824,148.372 363.672,147.070 363.672 C 145.768 363.672,145.313 363.520,145.313 363.086 C 145.313 362.663,144.878 362.500,143.750 362.500 C 142.731 362.500,142.188 362.324,142.188 361.994 C 142.188 361.687,141.612 361.450,140.723 361.391 C 139.917 361.338,139.199 361.126,139.128 360.920 C 139.056 360.715,138.309 360.547,137.467 360.547 C 136.368 360.547,135.938 360.382,135.938 359.961 C 135.938 359.603,135.573 359.375,135.003 359.375 C 134.489 359.375,133.967 359.111,133.843 358.789 C 133.702 358.421,133.105 358.203,132.239 358.203 C 131.480 358.203,130.859 358.027,130.859 357.813 C 130.859 357.598,130.332 357.422,129.688 357.422 C 128.906 357.422,128.516 357.227,128.516 356.836 C 128.516 356.471,128.147 356.250,127.539 356.250 C 126.931 356.250,126.563 356.029,126.563 355.664 C 126.563 355.241,126.128 355.078,125.000 355.078 C 124.141 355.078,123.438 354.902,123.438 354.688 C 123.438 354.473,122.910 354.297,122.266 354.297 C 121.484 354.297,121.094 354.102,121.094 353.711 C 121.094 353.346,120.725 353.125,120.117 353.125 C 119.510 353.125,119.141 352.904,119.141 352.539 C 119.141 352.148,118.750 351.953,117.969 351.953 C 117.188 351.953,116.797 351.758,116.797 351.367 C 116.797 351.003,116.428 350.781,115.820 350.781 C 115.283 350.781,114.844 350.605,114.844 350.391 C 114.844 350.176,114.306 350.000,113.649 350.000 C 112.946 350.000,112.554 349.838,112.697 349.607 C 112.831 349.390,112.665 349.108,112.329 348.979 C 111.994 348.850,111.719 348.500,111.719 348.200 C 111.719 347.856,111.288 347.656,110.547 347.656 C 109.902 347.656,109.375 347.480,109.375 347.266 C 109.375 347.051,108.936 346.875,108.398 346.875 C 107.791 346.875,107.422 346.654,107.422 346.289 C 107.422 345.924,107.053 345.703,106.445 345.703 C 105.838 345.703,105.469 345.482,105.469 345.117 C 105.469 344.795,105.224 344.531,104.925 344.531 C 104.625 344.531,104.279 344.268,104.156 343.945 C 104.032 343.623,103.561 343.359,103.109 343.359 C 102.234 343.359,101.172 342.518,101.172 341.825 C 101.172 341.595,100.645 341.406,100.000 341.406 C 99.355 341.406,98.828 341.218,98.828 340.988 C 98.828 340.242,97.738 339.453,96.708 339.453 C 96.075 339.453,95.703 339.236,95.703 338.867 C 95.703 338.545,95.439 338.281,95.117 338.281 C 94.795 338.281,94.531 338.018,94.531 337.695 C 94.531 337.373,94.186 337.109,93.763 337.109 C 92.960 337.109,90.625 335.085,90.625 334.388 C 90.625 334.166,90.098 333.984,89.453 333.984 C 88.672 333.984,88.281 333.789,88.281 333.398 C 88.281 333.076,88.093 332.813,87.863 332.813 C 87.322 332.813,86.328 331.819,86.328 331.278 C 86.328 331.048,86.064 330.859,85.742 330.859 C 85.420 330.859,85.156 330.596,85.156 330.273 C 85.156 329.936,84.803 329.688,84.322 329.688 C 83.863 329.688,83.081 329.248,82.583 328.711 C 82.085 328.174,81.494 327.734,81.269 327.734 C 81.044 327.734,80.859 327.565,80.859 327.357 C 80.859 326.847,78.644 324.609,78.138 324.609 C 77.916 324.609,77.734 324.346,77.734 324.023 C 77.734 323.701,77.471 323.438,77.148 323.438 C 76.826 323.438,76.563 323.238,76.563 322.995 C 76.563 322.231,75.011 321.164,74.205 321.375 C 73.744 321.495,73.438 321.380,73.438 321.086 C 73.438 320.817,72.998 320.190,72.461 319.692 C 71.924 319.195,71.484 318.603,71.484 318.378 C 71.484 318.153,71.221 317.969,70.898 317.969 C 70.576 317.969,70.313 317.793,70.313 317.578 C 70.313 317.363,70.049 317.188,69.727 317.188 C 69.336 317.188,69.141 316.797,69.141 316.016 C 69.141 315.026,68.989 314.844,68.164 314.844 C 67.383 314.844,67.188 314.648,67.188 313.867 C 67.188 313.260,66.966 312.891,66.602 312.891 C 66.279 312.891,66.016 312.701,66.016 312.470 C 66.016 311.923,63.858 309.766,63.311 309.766 C 63.080 309.766,62.891 309.502,62.891 309.180 C 62.891 308.857,62.627 308.594,62.305 308.594 C 61.982 308.594,61.719 308.330,61.719 308.008 C 61.719 307.686,61.543 307.422,61.328 307.422 C 61.113 307.422,60.938 306.982,60.938 306.445 C 60.938 305.838,60.716 305.469,60.352 305.469 C 60.029 305.469,59.766 305.205,59.766 304.883 C 59.766 304.561,59.502 304.297,59.180 304.297 C 58.857 304.297,58.594 304.109,58.594 303.878 C 58.594 303.338,57.600 302.344,57.059 302.344 C 56.829 302.344,56.641 301.816,56.641 301.172 C 56.641 300.391,56.445 300.000,56.055 300.000 C 55.732 300.000,55.469 299.824,55.469 299.609 C 55.469 299.395,55.195 299.219,54.860 299.219 C 54.525 299.219,54.360 299.042,54.494 298.825 C 54.628 298.609,54.462 298.327,54.126 298.198 C 53.790 298.069,53.516 297.582,53.516 297.115 C 53.516 296.277,52.306 294.922,51.558 294.922 C 51.346 294.922,51.172 294.470,51.172 293.917 C 51.172 292.887,50.383 291.797,49.637 291.797 C 49.407 291.797,49.219 291.270,49.219 290.625 C 49.219 289.844,49.023 289.453,48.633 289.453 C 48.311 289.453,48.047 289.179,48.047 288.844 C 48.047 288.509,47.871 288.344,47.656 288.477 C 47.428 288.617,47.266 288.220,47.266 287.523 C 47.266 286.721,47.073 286.328,46.680 286.328 C 46.357 286.328,46.094 286.064,46.094 285.742 C 46.094 285.420,45.830 285.156,45.508 285.156 C 45.143 285.156,44.922 284.787,44.922 284.180 C 44.922 283.572,44.701 283.203,44.336 283.203 C 43.971 283.203,43.750 282.834,43.750 282.227 C 43.750 281.689,43.574 281.250,43.359 281.250 C 43.145 281.250,42.969 280.986,42.969 280.664 C 42.969 280.342,42.705 280.078,42.383 280.078 C 41.992 280.078,41.797 279.688,41.797 278.906 C 41.797 278.125,41.602 277.734,41.211 277.734 C 40.846 277.734,40.625 277.365,40.625 276.758 C 40.625 276.221,40.449 275.781,40.234 275.781 C 40.020 275.781,39.844 275.342,39.844 274.805 C 39.844 274.197,39.622 273.828,39.258 273.828 C 38.867 273.828,38.672 273.438,38.672 272.656 C 38.672 271.875,38.477 271.484,38.086 271.484 C 37.721 271.484,37.500 271.115,37.500 270.508 C 37.500 269.900,37.279 269.531,36.914 269.531 C 36.491 269.531,36.328 269.097,36.328 267.969 C 36.328 267.109,36.152 266.406,35.938 266.406 C 35.723 266.406,35.547 265.879,35.547 265.234 C 35.547 264.453,35.352 264.063,34.961 264.063 C 34.596 264.063,34.375 263.694,34.375 263.086 C 34.375 262.478,34.154 262.109,33.789 262.109 C 33.366 262.109,33.203 261.675,33.203 260.547 C 33.203 259.688,33.027 258.984,32.813 258.984 C 32.598 258.984,32.422 258.539,32.422 257.996 C 32.422 257.452,32.158 256.906,31.836 256.782 C 31.454 256.635,31.250 256.028,31.250 255.036 C 31.250 253.945,31.085 253.516,30.664 253.516 C 30.241 253.516,30.078 253.082,30.078 251.953 C 30.078 250.825,29.915 250.391,29.492 250.391 C 29.128 250.391,28.906 250.022,28.906 249.414 C 28.906 248.877,28.730 248.438,28.516 248.438 C 28.301 248.438,28.125 247.471,28.125 246.289 C 28.125 244.640,27.989 244.141,27.539 244.141 C 27.116 244.141,26.953 243.707,26.953 242.578 C 26.953 241.450,26.790 241.016,26.367 241.016 C 25.902 241.016,25.781 240.451,25.781 238.281 C 25.781 236.719,25.614 235.547,25.391 235.547 C 25.176 235.547,25.000 234.580,25.000 233.398 C 25.000 231.749,24.864 231.250,24.414 231.250 C 23.953 231.250,23.828 230.707,23.828 228.711 C 23.828 226.714,23.703 226.172,23.242 226.172 C 22.767 226.172,22.656 225.543,22.656 222.852 C 22.656 220.898,22.495 219.531,22.266 219.531 C 22.031 219.531,21.875 217.965,21.875 215.613 C 21.875 212.490,21.756 211.649,21.289 211.469 C 20.403 211.129,20.403 180.469,21.289 180.469 C 21.769 180.469,21.875 179.796,21.875 176.758 C 21.875 174.544,22.033 173.047,22.266 173.047 C 22.499 173.047,22.656 171.549,22.656 169.336 C 22.656 166.298,22.762 165.625,23.242 165.625 C 23.702 165.625,23.828 165.087,23.828 163.128 C 23.828 161.268,23.978 160.573,24.414 160.406 C 24.827 160.247,25.000 159.602,25.000 158.215 C 25.000 157.134,25.176 156.250,25.391 156.250 C 25.614 156.250,25.781 155.078,25.781 153.516 C 25.781 151.345,25.902 150.781,26.367 150.781 C 26.790 150.781,26.953 150.347,26.953 149.219 C 26.953 148.090,27.116 147.656,27.539 147.656 C 27.989 147.656,28.125 147.157,28.125 145.508 C 28.125 144.326,28.301 143.359,28.516 143.359 C 28.730 143.359,28.906 142.656,28.906 141.797 C 28.906 140.668,29.069 140.234,29.492 140.234 C 29.857 140.234,30.078 139.865,30.078 139.258 C 30.078 138.650,30.299 138.281,30.664 138.281 C 31.088 138.281,31.250 137.846,31.250 136.706 C 31.250 135.667,31.449 135.055,31.836 134.907 C 32.158 134.783,32.422 134.261,32.422 133.747 C 32.422 133.233,32.598 132.813,32.813 132.813 C 33.027 132.813,33.203 132.109,33.203 131.250 C 33.203 130.122,33.366 129.688,33.789 129.688 C 34.154 129.688,34.375 129.319,34.375 128.711 C 34.375 128.103,34.596 127.734,34.961 127.734 C 35.352 127.734,35.547 127.344,35.547 126.563 C 35.547 125.918,35.723 125.391,35.938 125.391 C 36.152 125.391,36.328 124.688,36.328 123.828 C 36.328 122.700,36.491 122.266,36.914 122.266 C 37.272 122.266,37.500 121.901,37.500 121.331 C 37.500 120.817,37.764 120.295,38.086 120.171 C 38.408 120.048,38.672 119.501,38.672 118.958 C 38.672 118.339,38.891 117.969,39.258 117.969 C 39.622 117.969,39.844 117.600,39.844 116.992 C 39.844 116.455,40.020 116.016,40.234 116.016 C 40.449 116.016,40.625 115.488,40.625 114.844 C 40.625 114.063,40.820 113.672,41.211 113.672 C 41.576 113.672,41.797 113.303,41.797 112.695 C 41.797 112.088,42.018 111.719,42.383 111.719 C 42.705 111.719,42.969 111.455,42.969 111.133 C 42.969 110.811,43.145 110.547,43.359 110.547 C 43.574 110.547,43.750 110.107,43.750 109.570 C 43.750 108.963,43.971 108.594,44.336 108.594 C 44.727 108.594,44.922 108.203,44.922 107.422 C 44.922 106.777,45.096 106.250,45.308 106.250 C 46.016 106.250,47.266 104.914,47.266 104.157 C 47.266 103.746,47.705 103.003,48.242 102.505 C 48.779 102.007,49.219 101.240,49.219 100.800 C 49.219 100.349,49.475 100.000,49.805 100.000 C 50.127 100.000,50.391 99.736,50.391 99.414 C 50.391 99.092,50.566 98.828,50.781 98.828 C 50.996 98.828,51.172 98.389,51.172 97.852 C 51.172 97.244,51.393 96.875,51.758 96.875 C 52.080 96.875,52.344 96.611,52.344 96.289 C 52.344 95.967,52.607 95.703,52.930 95.703 C 53.294 95.703,53.516 95.334,53.516 94.727 C 53.516 94.189,53.691 93.750,53.906 93.750 C 54.121 93.750,54.297 93.486,54.297 93.164 C 54.297 92.842,54.561 92.578,54.883 92.578 C 55.205 92.578,55.469 92.314,55.469 91.992 C 55.469 91.670,55.732 91.406,56.055 91.406 C 56.419 91.406,56.641 91.037,56.641 90.430 C 56.641 89.822,56.862 89.453,57.227 89.453 C 57.549 89.453,57.813 89.271,57.812 89.049 C 57.812 88.544,60.050 86.328,60.560 86.328 C 60.768 86.328,60.938 85.876,60.937 85.324 C 60.937 84.294,61.727 83.203,62.472 83.203 C 62.702 83.203,62.891 82.939,62.891 82.617 C 62.891 82.295,63.154 82.031,63.477 82.031 C 63.799 82.031,64.063 81.768,64.063 81.445 C 64.063 81.123,64.251 80.859,64.481 80.859 C 65.022 80.859,66.016 79.866,66.016 79.325 C 66.016 79.095,66.279 78.906,66.602 78.906 C 66.992 78.906,67.188 78.516,67.188 77.734 C 67.188 76.745,67.339 76.563,68.164 76.563 C 68.945 76.563,69.141 76.367,69.141 75.586 C 69.141 74.978,69.362 74.609,69.727 74.609 C 70.049 74.609,70.313 74.346,70.313 74.023 C 70.313 73.701,70.502 73.438,70.733 73.438 C 71.280 73.438,73.438 71.280,73.438 70.733 C 73.438 70.502,73.935 70.313,74.543 70.313 C 75.323 70.313,75.803 70.025,76.172 69.336 C 76.459 68.799,76.928 68.359,77.214 68.359 C 77.500 68.359,77.734 68.096,77.734 67.773 C 77.734 67.451,77.998 67.188,78.320 67.188 C 78.643 67.188,78.906 66.954,78.906 66.668 C 78.906 66.382,79.346 65.912,79.883 65.625 C 80.420 65.338,80.859 64.868,80.859 64.582 C 80.859 64.296,81.123 64.063,81.445 64.063 C 81.768 64.063,82.031 63.799,82.031 63.477 C 82.031 63.154,82.295 62.891,82.617 62.891 C 82.939 62.891,83.203 62.715,83.203 62.500 C 83.203 62.285,83.643 62.109,84.180 62.109 C 84.787 62.109,85.156 61.888,85.156 61.523 C 85.156 61.201,85.420 60.938,85.742 60.938 C 86.064 60.938,86.328 60.674,86.328 60.352 C 86.328 60.029,86.504 59.766,86.719 59.766 C 86.934 59.766,87.109 59.502,87.109 59.180 C 87.109 58.857,87.373 58.594,87.695 58.594 C 88.018 58.594,88.281 58.418,88.281 58.203 C 88.281 57.988,88.809 57.813,89.453 57.813 C 90.234 57.813,90.625 57.617,90.625 57.227 C 90.625 56.904,90.801 56.641,91.016 56.641 C 91.230 56.641,91.406 56.377,91.406 56.055 C 91.406 55.732,91.670 55.469,91.992 55.469 C 92.314 55.469,92.578 55.293,92.578 55.078 C 92.578 54.863,93.018 54.688,93.555 54.688 C 94.162 54.688,94.531 54.466,94.531 54.102 C 94.531 53.779,94.795 53.516,95.117 53.516 C 95.439 53.516,95.703 53.252,95.703 52.930 C 95.703 52.539,96.094 52.344,96.875 52.344 C 97.520 52.344,98.047 52.155,98.047 51.925 C 98.047 51.180,99.137 50.391,100.167 50.391 C 100.800 50.391,101.172 50.174,101.172 49.805 C 101.172 49.482,101.348 49.219,101.563 49.219 C 101.777 49.219,101.953 48.955,101.953 48.633 C 101.953 48.260,102.328 48.047,102.983 48.047 C 103.579 48.047,104.393 47.636,104.917 47.070 C 105.415 46.533,106.182 46.094,106.622 46.094 C 107.073 46.094,107.422 45.838,107.422 45.508 C 107.422 45.143,107.791 44.922,108.398 44.922 C 109.006 44.922,109.375 44.701,109.375 44.336 C 109.375 43.956,109.755 43.750,110.454 43.750 C 111.149 43.750,111.794 43.402,112.267 42.773 C 112.686 42.215,113.395 41.797,113.922 41.797 C 114.481 41.797,114.844 41.566,114.844 41.211 C 114.844 40.846,115.213 40.625,115.820 40.625 C 116.357 40.625,116.797 40.449,116.797 40.234 C 116.797 40.020,117.242 39.844,117.786 39.844 C 118.330 39.844,118.876 39.580,118.999 39.258 C 119.123 38.936,119.645 38.672,120.159 38.672 C 120.729 38.672,121.094 38.444,121.094 38.086 C 121.094 37.695,121.484 37.500,122.266 37.500 C 123.047 37.500,123.438 37.305,123.438 36.914 C 123.438 36.491,123.872 36.328,125.000 36.328 C 125.859 36.328,126.563 36.152,126.563 35.938 C 126.563 35.723,127.002 35.547,127.539 35.547 C 128.147 35.547,128.516 35.326,128.516 34.961 C 128.516 34.594,128.886 34.375,129.504 34.375 C 130.048 34.375,130.594 34.111,130.718 33.789 C 130.865 33.407,131.472 33.203,132.464 33.203 C 133.300 33.203,133.984 33.027,133.984 32.813 C 133.984 32.598,134.424 32.422,134.961 32.422 C 135.569 32.422,135.938 32.201,135.938 31.836 C 135.938 31.413,136.372 31.250,137.500 31.250 C 138.628 31.250,139.063 31.087,139.063 30.664 C 139.063 30.243,139.493 30.078,140.592 30.078 C 141.434 30.078,142.181 29.910,142.253 29.705 C 142.324 29.499,143.042 29.287,143.848 29.234 C 144.737 29.175,145.313 28.938,145.313 28.631 C 145.313 28.300,145.858 28.125,146.887 28.125 C 147.927 28.125,148.538 27.926,148.687 27.539 C 148.844 27.129,149.484 26.953,150.823 26.953 C 152.262 26.953,152.734 26.808,152.734 26.367 C 152.734 25.917,153.234 25.781,154.883 25.781 C 156.064 25.781,157.031 25.605,157.031 25.391 C 157.031 25.176,157.998 25.000,159.180 25.000 C 160.829 25.000,161.328 24.864,161.328 24.414 C 161.328 23.949,161.892 23.828,164.063 23.828 C 166.233 23.828,166.797 23.707,166.797 23.242 C 166.797 22.781,167.339 22.656,169.336 22.656 C 170.768 22.656,171.875 22.486,171.875 22.266 C 171.875 22.027,173.702 21.875,176.575 21.875 C 180.392 21.875,181.317 21.765,181.499 21.289 C 181.689 20.795,182.948 20.703,189.495 20.703 C 196.142 20.703,197.266 20.618,197.266 20.117 C 197.266 19.645,197.875 19.531,200.403 19.531 C 202.831 19.531,203.591 19.664,203.765 20.117 M291.686 88.523 C 291.544 88.664,291.465 100.050,291.509 113.824 L 291.591 138.867 291.697 114.355 C 291.792 92.415,291.867 89.844,292.414 89.844 C 292.775 89.844,292.974 89.577,292.900 89.193 C 292.762 88.482,292.095 88.113,291.686 88.523 M257.123 104.785 L 257.227 116.602 268.848 116.705 L 280.469 116.809 280.469 104.889 L 280.469 92.969 268.744 92.969 L 257.020 92.969 257.123 104.785 M278.324 166.790 C 278.189 167.009,277.562 167.188,276.930 167.188 L 275.781 167.188 275.781 186.706 L 275.781 206.224 297.070 206.243 L 318.359 206.262 318.359 186.739 C 318.359 168.077,318.327 167.198,317.630 166.825 C 316.621 166.285,278.657 166.251,278.324 166.790 M187.203 172.346 C 187.297 172.624,187.137 173.730,186.849 174.805 C 186.482 176.167,186.336 179.153,186.365 184.675 L 186.407 192.591 196.231 192.487 L 206.055 192.383 206.160 183.289 C 206.231 177.124,206.123 173.931,205.826 173.376 C 205.494 172.755,205.505 172.485,205.871 172.259 C 206.136 172.095,202.006 171.933,196.693 171.900 C 188.940 171.852,187.066 171.940,187.203 172.346 M245.880 193.072 C 245.775 193.344,245.737 198.270,245.794 204.020 L 245.898 214.473 256.734 214.561 C 265.108 214.628,267.612 214.538,267.757 214.160 C 267.860 213.892,268.477 213.672,269.128 213.672 C 270.046 213.672,270.313 213.499,270.313 212.903 C 270.313 212.380,270.125 212.206,269.727 212.359 C 269.219 212.554,269.141 211.611,269.141 205.273 C 269.141 199.231,269.234 197.999,269.678 198.169 C 270.043 198.310,270.215 198.071,270.215 197.423 C 270.215 196.658,270.108 196.558,269.678 196.916 C 269.237 197.281,269.141 197.073,269.141 195.751 C 269.141 194.580,269.300 194.141,269.727 194.141 C 271.350 194.141,270.138 193.057,268.262 192.831 C 264.188 192.342,246.085 192.537,245.880 193.072 M206.641 207.024 L 206.641 214.829 205.664 215.074 C 204.972 215.248,204.688 215.584,204.688 216.230 C 204.688 217.247,205.244 217.763,205.901 217.357 C 206.139 217.210,210.797 217.122,216.253 217.161 L 226.172 217.233 226.172 208.226 L 226.172 199.219 216.406 199.219 L 206.641 199.219 206.641 207.024 M204.688 218.359 C 204.688 218.574,204.951 218.750,205.273 218.750 C 205.596 218.750,205.859 218.574,205.859 218.359 C 205.859 218.145,205.596 217.969,205.273 217.969 C 204.951 217.969,204.688 218.145,204.688 218.359 " stroke="none" fill="#eba53b" fill-rule="evenodd"></path><path id="path2" d="M89.063 130.501 C 89.063 131.453,89.975 131.319,90.165 130.339 C 90.240 129.953,90.041 129.688,89.677 129.688 C 89.315 129.688,89.063 130.021,89.063 130.501 M82.031 134.570 C 82.031 134.893,82.295 135.156,82.617 135.156 C 82.939 135.156,83.203 134.893,83.203 134.570 C 83.203 134.248,82.939 133.984,82.617 133.984 C 82.295 133.984,82.031 134.248,82.031 134.570 M95.444 144.753 C 95.118 145.601,95.945 146.399,96.536 145.808 C 97.036 145.307,96.726 144.141,96.094 144.141 C 95.865 144.141,95.573 144.416,95.444 144.753 M223.438 164.063 C 223.438 164.277,223.691 164.453,224.000 164.453 C 224.310 164.453,224.672 164.277,224.805 164.063 C 224.937 163.848,224.684 163.672,224.242 163.672 C 223.799 163.672,223.438 163.848,223.438 164.063 M242.969 164.063 C 242.969 164.277,243.574 164.453,244.313 164.453 C 245.052 164.453,245.766 164.277,245.898 164.063 C 246.044 163.827,245.512 163.672,244.554 163.672 C 243.682 163.672,242.969 163.848,242.969 164.063 M222.363 164.321 C 221.747 164.570,221.720 165.625,222.331 165.625 C 222.581 165.625,222.671 165.509,222.529 165.368 C 222.388 165.227,222.468 164.875,222.707 164.587 C 223.168 164.032,223.138 164.009,222.363 164.321 M275.977 165.234 C 275.817 165.493,283.004 165.625,297.243 165.625 C 311.320 165.625,318.750 165.490,318.750 165.234 C 318.750 164.979,311.401 164.844,297.484 164.844 C 283.728 164.844,276.133 164.982,275.977 165.234 M319.151 185.702 C 319.131 199.760,319.255 206.665,319.528 206.834 C 319.807 207.007,319.928 200.549,319.915 186.175 C 319.904 173.938,319.748 165.173,319.538 165.043 C 319.322 164.910,319.168 173.146,319.151 185.702 M184.766 181.868 C 184.766 188.441,184.873 190.263,185.254 190.135 C 185.624 190.010,185.742 187.968,185.742 181.704 C 185.742 175.351,185.629 173.438,185.254 173.438 C 184.878 173.438,184.766 175.384,184.766 181.868 M244.051 190.926 C 243.746 192.093,244.121 196.672,244.534 196.810 C 245.194 197.031,245.044 212.369,244.379 212.625 C 244.027 212.760,243.881 213.289,243.964 214.131 C 244.034 214.845,244.102 215.656,244.116 215.932 C 244.136 216.332,246.762 216.411,257.129 216.322 C 265.537 216.250,270.083 216.073,270.020 215.820 C 269.958 215.573,265.409 215.392,257.617 215.327 L 245.313 215.223 245.313 203.315 L 245.313 191.406 257.008 191.406 C 264.384 191.406,268.793 191.551,268.945 191.797 C 269.318 192.400,270.313 192.258,270.313 191.602 C 270.313 191.279,270.126 191.016,269.899 191.016 C 269.671 191.016,269.571 190.876,269.676 190.706 C 269.782 190.536,269.528 190.371,269.114 190.340 C 268.699 190.308,268.359 190.452,268.359 190.659 C 268.359 190.891,264.042 191.023,257.031 191.004 C 250.194 190.985,245.703 190.827,245.703 190.604 C 245.703 189.933,244.236 190.220,244.051 190.926 M205.361 197.950 C 204.763 198.611,204.697 199.589,204.776 206.671 L 204.865 214.648 204.980 207.052 C 205.075 200.790,205.204 199.337,205.713 198.774 C 206.052 198.399,206.264 197.893,206.182 197.649 C 206.091 197.375,205.777 197.490,205.361 197.950 M262.035 215.917 C 259.094 215.983,254.172 215.983,251.098 215.917 C 248.023 215.851,250.430 215.797,256.445 215.797 C 262.461 215.797,264.976 215.851,262.035 215.917 M283.747 217.024 C 283.878 217.364,283.984 217.716,283.984 217.805 C 283.984 217.895,287.061 217.969,290.820 217.969 L 297.656 217.969 297.751 240.527 L 297.845 263.086 297.960 241.016 C 298.023 228.877,297.973 218.374,297.848 217.676 L 297.621 216.406 290.566 216.406 C 284.292 216.406,283.536 216.475,283.747 217.024 M95.451 247.858 C 95.135 248.681,95.573 249.609,96.277 249.609 C 97.071 249.609,97.069 247.814,96.274 247.509 C 95.932 247.378,95.578 247.528,95.451 247.858 M101.246 254.199 C 101.319 254.575,101.637 254.883,101.953 254.883 C 102.270 254.883,102.588 254.575,102.660 254.199 C 102.752 253.720,102.541 253.516,101.953 253.516 C 101.365 253.516,101.154 253.720,101.246 254.199 M275.781 254.079 C 275.781 254.796,276.335 255.141,277.048 254.867 C 277.960 254.517,277.697 253.516,276.693 253.516 C 276.160 253.516,275.781 253.749,275.781 254.079 M80.186 263.667 C 80.151 264.134,80.366 264.453,80.717 264.453 C 81.058 264.453,81.254 264.178,81.181 263.802 C 80.996 262.850,80.255 262.749,80.186 263.667 M305.078 272.047 C 305.078 272.634,305.779 273.257,306.090 272.947 C 306.362 272.674,305.823 271.484,305.427 271.484 C 305.235 271.484,305.078 271.738,305.078 272.047 M68.209 277.564 C 68.080 277.900,67.797 278.065,67.581 277.931 C 67.089 277.627,67.081 278.134,67.567 278.901 C 67.878 279.394,68.057 279.349,68.752 278.603 C 69.203 278.120,69.464 277.551,69.333 277.339 C 68.981 276.769,68.475 276.870,68.209 277.564 M309.450 277.764 C 309.527 277.995,309.757 278.184,309.961 278.184 C 310.165 278.184,310.395 277.995,310.472 277.764 C 310.549 277.533,310.319 277.344,309.961 277.344 C 309.603 277.344,309.373 277.533,309.450 277.764 M310.707 278.272 C 310.380 279.122,310.609 279.351,311.336 278.901 C 311.783 278.625,311.805 278.445,311.435 278.076 C 311.066 277.707,310.907 277.749,310.707 278.272 M156.641 283.161 C 156.641 283.353,156.904 283.611,157.227 283.735 C 157.549 283.859,157.813 284.230,157.813 284.560 C 157.813 285.096,161.254 285.150,189.941 285.061 L 222.070 284.961 222.194 283.887 L 222.318 282.813 189.479 282.813 C 170.470 282.813,156.641 282.959,156.641 283.161 M62.596 284.212 C 61.969 284.882,61.972 285.547,62.601 285.547 C 63.339 285.547,64.159 284.105,63.554 283.873 C 63.294 283.773,62.863 283.926,62.596 284.212 M153.428 286.096 C 152.078 287.736,152.470 288.185,154.139 286.912 C 154.842 286.376,155.619 285.938,155.866 285.938 C 156.619 285.938,156.046 284.966,155.243 284.882 C 154.803 284.836,154.051 285.339,153.428 286.096 M222.917 285.026 C 222.494 285.449,222.618 285.938,223.149 285.938 C 223.419 285.938,224.125 286.386,224.716 286.934 C 226.294 288.397,226.803 287.688,225.311 286.106 C 224.072 284.792,223.437 284.506,222.917 285.026 M316.797 285.765 C 316.797 286.100,316.960 286.273,317.160 286.150 C 317.359 286.027,317.579 286.324,317.648 286.811 C 317.730 287.388,318.021 287.675,318.484 287.637 C 318.945 287.598,319.121 287.770,318.984 288.125 C 318.847 288.484,319.049 288.672,319.571 288.672 C 320.246 288.672,320.289 288.584,319.852 288.098 C 319.568 287.783,318.905 286.992,318.378 286.340 C 317.318 285.030,316.797 284.841,316.797 285.765 M227.093 290.043 C 226.798 290.812,152.596 290.930,151.671 290.163 C 151.257 289.819,150.979 289.869,150.471 290.377 C 149.849 290.999,149.862 291.053,150.686 291.268 C 151.168 291.394,151.562 291.609,151.562 291.745 C 151.562 291.881,168.539 291.948,189.289 291.895 C 229.251 291.792,229.051 291.801,228.384 290.064 C 228.086 289.287,227.387 289.276,227.093 290.043 M321.971 292.831 C 321.956 293.821,321.690 294.773,321.324 295.138 C 320.636 295.826,320.578 296.103,321.002 296.680 C 321.631 297.536,322.266 297.242,322.266 296.094 C 322.266 295.449,322.450 294.922,322.676 294.922 C 322.917 294.922,323.050 294.146,322.999 293.034 C 322.890 290.630,322.007 290.456,321.971 292.831 M56.641 295.271 C 56.641 296.001,57.530 296.637,57.956 296.211 C 58.256 295.911,57.485 294.531,57.018 294.531 C 56.810 294.531,56.641 294.864,56.641 295.271 M58.740 300.182 C 58.619 300.498,58.611 300.981,58.721 301.257 C 58.848 301.571,58.934 301.504,58.954 301.074 C 58.970 300.698,59.258 300.391,59.593 300.391 C 59.928 300.391,60.094 300.215,59.961 300.000 C 59.609 299.430,58.993 299.522,58.740 300.182 M170.512 300.384 C 169.838 301.474,171.266 301.563,189.476 301.563 C 205.372 301.563,208.203 301.479,208.203 301.009 C 208.203 300.705,208.423 300.370,208.691 300.266 C 208.960 300.162,200.535 300.056,189.969 300.032 C 177.323 300.002,170.673 300.123,170.512 300.384 M198.757 300.683 C 193.670 300.745,185.232 300.745,180.007 300.683 C 174.783 300.622,178.945 300.571,189.258 300.571 C 199.570 300.571,203.845 300.622,198.757 300.683 M311.400 305.762 C 311.486 306.213,311.927 306.466,312.699 306.507 C 313.487 306.549,313.581 306.508,312.988 306.382 C 312.505 306.280,312.109 305.944,312.109 305.637 C 312.109 305.330,311.921 305.078,311.690 305.078 C 311.460 305.078,311.329 305.386,311.400 305.762 M66.797 305.833 C 66.797 306.034,66.313 306.271,65.723 306.361 C 64.723 306.512,64.736 306.528,65.918 306.582 C 66.812 306.623,67.188 306.467,67.188 306.055 C 67.188 305.732,67.100 305.469,66.992 305.469 C 66.885 305.469,66.797 305.633,66.797 305.833 M71.355 306.119 C 70.031 307.443,68.151 307.422,189.482 307.422 C 302.022 307.422,307.863 307.388,307.738 306.738 C 307.603 306.035,72.056 305.418,71.355 306.119 " stroke="none" fill="#675c4c" fill-rule="evenodd"></path><path id="path3" d="M159.869 3.796 C 160.462 3.886,161.341 3.883,161.822 3.791 C 162.302 3.698,161.816 3.624,160.742 3.627 C 159.668 3.630,159.275 3.706,159.869 3.796 M239.355 3.791 C 239.839 3.884,240.630 3.884,241.113 3.791 C 241.597 3.698,241.201 3.622,240.234 3.622 C 239.268 3.622,238.872 3.698,239.355 3.791 M250.391 142.398 L 250.391 160.568 268.652 160.460 L 286.914 160.352 286.914 142.383 L 286.914 124.414 268.652 124.321 L 250.391 124.228 250.391 142.398 M212.109 147.266 L 212.109 160.547 224.773 160.547 C 231.738 160.547,237.714 160.440,238.054 160.310 C 238.967 159.959,238.998 135.156,238.086 135.156 C 237.764 135.156,237.500 134.893,237.500 134.570 C 237.500 134.061,235.829 133.984,224.805 133.984 L 212.109 133.984 212.109 147.266 M222.424 164.123 C 222.251 164.402,222.316 164.468,222.596 164.295 C 222.844 164.142,223.047 164.203,223.047 164.430 C 223.047 164.658,222.861 164.844,222.633 164.844 C 222.406 164.844,222.328 165.020,222.461 165.234 C 222.594 165.449,222.516 165.625,222.289 165.625 C 222.006 165.625,221.875 169.472,221.875 177.734 L 221.875 189.844 234.961 189.844 L 248.047 189.844 248.047 177.107 C 248.047 166.069,247.970 164.399,247.473 164.590 C 247.158 164.711,246.779 164.614,246.632 164.376 C 246.456 164.091,246.553 164.050,246.912 164.255 C 247.356 164.508,247.368 164.467,246.973 164.042 C 246.593 163.633,246.380 163.620,246.016 163.984 C 245.450 164.550,242.969 164.614,242.969 164.063 C 242.969 163.452,225.597 163.544,224.553 164.160 C 223.891 164.551,223.691 164.551,223.549 164.160 C 223.328 163.549,222.790 163.531,222.424 164.123 M287.402 164.746 C 293.042 164.807,302.271 164.807,307.910 164.746 C 313.550 164.685,308.936 164.635,297.656 164.635 C 286.377 164.635,281.763 164.685,287.402 164.746 M318.750 165.625 C 318.750 165.983,318.976 166.276,319.252 166.276 C 319.528 166.276,319.754 165.983,319.754 165.625 C 319.754 165.267,319.528 164.974,319.252 164.974 C 318.976 164.974,318.750 165.267,318.750 165.625 M185.449 172.419 C 184.695 172.991,184.561 173.438,185.143 173.438 C 185.350 173.438,185.708 173.086,185.938 172.656 C 186.425 171.746,186.370 171.719,185.449 172.419 M206.912 172.634 C 207.028 173.076,207.278 173.438,207.467 173.438 C 207.994 173.438,207.879 172.807,207.257 172.291 C 206.802 171.913,206.740 171.975,206.912 172.634 M226.953 207.798 C 226.953 218.019,226.931 218.314,226.159 218.559 C 225.279 218.838,224.262 218.857,214.648 218.774 C 205.704 218.696,205.778 218.693,206.055 219.141 C 206.410 219.716,225.585 219.661,226.686 219.082 C 228.063 218.357,228.077 218.249,228.112 207.775 C 228.141 199.124,228.064 197.716,227.549 197.519 C 227.024 197.317,226.953 198.537,226.953 207.798 M172.386 199.861 C 172.042 200.000,171.912 202.909,171.887 210.962 L 171.854 221.875 183.583 221.875 L 195.313 221.875 195.313 210.742 L 195.313 199.609 184.082 199.640 C 177.905 199.657,172.642 199.756,172.386 199.861 M318.999 207.229 C 318.862 207.583,319.000 207.813,319.348 207.813 C 319.980 207.813,320.124 207.202,319.572 206.861 C 319.380 206.742,319.122 206.908,318.999 207.229 M287.793 208.105 C 293.433 208.166,302.661 208.166,308.301 208.105 C 313.940 208.044,309.326 207.994,298.047 207.994 C 286.768 207.994,282.153 208.044,287.793 208.105 M189.258 300.391 L 170.508 300.597 189.137 300.689 C 201.235 300.749,207.851 300.644,208.008 300.391 C 208.141 300.176,208.195 300.041,208.129 300.092 C 208.062 300.143,199.570 300.277,189.258 300.391 M154.004 387.003 C 154.810 387.088,156.128 387.088,156.934 387.003 C 157.739 386.919,157.080 386.850,155.469 386.850 C 153.857 386.850,153.198 386.919,154.004 387.003 M244.050 387.002 C 244.752 387.089,245.807 387.087,246.394 386.998 C 246.981 386.909,246.406 386.838,245.117 386.840 C 243.828 386.842,243.348 386.915,244.050 387.002 " stroke="none" fill="#e3c314" fill-rule="evenodd"></path><path id="path4" d="M292.872 89.124 C 293.051 89.808,292.952 89.930,292.347 89.772 C 291.619 89.582,291.604 90.149,291.693 114.613 C 291.766 134.489,291.887 139.648,292.279 139.648 C 292.671 139.648,292.794 134.510,292.874 114.746 L 292.975 89.844 318.753 89.844 C 332.931 89.844,344.531 89.731,344.531 89.594 C 344.531 88.370,343.220 88.306,317.908 88.294 L 292.651 88.281 292.872 89.124 M257.878 91.686 C 255.418 92.155,255.446 92.000,255.480 104.978 C 255.507 115.012,255.596 116.797,256.076 116.797 C 256.387 116.797,256.641 117.060,256.641 117.382 C 256.641 117.890,258.254 117.961,268.945 117.919 C 276.277 117.891,281.250 117.724,281.250 117.506 C 281.250 117.306,281.426 117.250,281.641 117.383 C 281.898 117.542,282.031 113.422,282.031 105.316 C 282.031 94.006,281.976 92.975,281.348 92.609 C 280.799 92.290,280.780 92.201,281.250 92.160 C 281.572 92.132,281.396 91.969,280.859 91.797 C 279.853 91.475,259.504 91.377,257.878 91.686 M280.469 104.889 L 280.469 116.809 268.848 116.705 L 257.227 116.602 257.123 104.785 L 257.020 92.969 268.744 92.969 L 280.469 92.969 280.469 104.889 M275.781 166.406 C 275.781 167.258,277.843 167.570,278.324 166.790 C 278.657 166.251,316.621 166.285,317.630 166.825 C 318.327 167.198,318.359 168.077,318.359 186.739 L 318.359 206.263 297.168 206.241 C 276.100 206.218,275.976 206.223,275.851 207.019 C 275.726 207.818,275.746 207.819,297.336 207.718 L 318.945 207.617 319.053 187.500 C 319.113 176.436,319.066 166.987,318.948 166.504 L 318.735 165.625 297.258 165.625 C 276.042 165.625,275.781 165.634,275.781 166.406 M186.336 172.261 C 185.875 172.545,185.797 174.091,185.885 181.170 C 185.975 188.522,185.904 189.822,185.378 190.347 C 184.564 191.161,184.568 193.590,185.384 193.904 C 185.723 194.034,190.909 194.141,196.907 194.141 L 207.813 194.141 207.813 183.789 C 207.813 177.694,207.664 173.438,207.451 173.438 C 207.251 173.438,207.032 173.144,206.962 172.786 C 206.893 172.428,206.452 172.106,205.982 172.072 C 205.168 172.012,205.155 172.062,205.696 173.109 C 206.155 173.997,206.244 175.951,206.160 183.295 L 206.055 192.383 196.231 192.487 L 186.407 192.591 186.365 184.675 C 186.335 179.037,186.479 176.180,186.864 174.752 C 187.446 172.598,187.254 171.694,186.336 172.261 M245.313 203.320 L 245.313 215.234 257.813 215.234 C 270.052 215.234,270.313 215.218,270.313 214.453 C 270.313 213.551,268.088 213.296,267.757 214.160 C 267.612 214.538,265.108 214.628,256.734 214.560 L 245.898 214.472 245.898 203.623 L 245.898 192.773 258.106 192.773 C 264.820 192.773,270.311 192.686,270.310 192.578 C 270.294 191.645,267.536 191.406,256.758 191.406 L 245.313 191.406 245.313 203.320 M269.141 195.751 C 269.141 197.138,269.222 197.294,269.727 196.875 C 270.049 196.608,270.313 195.883,270.313 195.265 C 270.313 194.526,270.112 194.141,269.727 194.141 C 269.300 194.141,269.141 194.580,269.141 195.751 M206.264 198.021 C 206.024 198.470,205.859 201.959,205.859 206.615 C 205.859 213.322,205.775 214.453,205.273 214.453 C 204.951 214.453,204.688 214.629,204.688 214.844 C 204.688 215.289,205.129 215.340,206.023 214.997 C 206.558 214.792,206.641 213.715,206.641 206.989 L 206.641 199.219 216.406 199.219 L 226.172 199.219 226.172 208.226 L 226.172 217.233 216.253 217.161 C 210.797 217.122,206.139 217.210,205.901 217.357 C 205.663 217.504,205.293 217.516,205.078 217.383 C 204.863 217.250,204.688 217.328,204.688 217.555 C 204.688 217.783,204.951 217.969,205.273 217.969 C 205.596 217.969,205.859 218.135,205.859 218.337 C 205.859 218.748,225.266 218.923,226.313 218.521 C 226.884 218.302,226.953 217.141,226.953 207.771 L 226.953 197.266 216.811 197.266 C 207.183 197.266,206.648 197.304,206.264 198.021 M269.141 205.273 C 269.141 210.933,269.250 212.529,269.629 212.402 C 269.995 212.280,270.117 210.499,270.117 205.273 C 270.117 200.048,269.995 198.267,269.629 198.145 C 269.250 198.018,269.141 199.614,269.141 205.273 " stroke="none" fill="#f19c24" fill-rule="evenodd"></path></g></svg>