<svg id="svg" version="1.1" xmlns="http://www.w3.org/2000/svg" xmlns:xlink="http://www.w3.org/1999/xlink" width="400" height="437.3333333333333" viewBox="0, 0, 400,437.3333333333333"><g id="svgg"><path id="path0" d="M213.712 29.095 C 214.764 29.177,216.384 29.176,217.312 29.092 C 218.240 29.008,217.380 28.941,215.400 28.942 C 213.420 28.943,212.660 29.012,213.712 29.095 M226.711 29.093 C 227.651 29.178,229.091 29.177,229.911 29.091 C 230.730 29.005,229.960 28.936,228.200 28.937 C 226.440 28.939,225.770 29.009,226.711 29.093 M209.600 29.600 C 209.600 29.820,210.061 30.000,210.624 30.000 C 211.204 30.000,211.540 29.827,211.400 29.600 C 211.264 29.380,210.803 29.200,210.376 29.200 C 209.949 29.200,209.600 29.380,209.600 29.600 M232.200 29.600 C 232.056 29.833,232.463 30.000,233.176 30.000 C 233.849 30.000,234.400 29.820,234.400 29.600 C 234.400 29.380,233.961 29.200,233.424 29.200 C 232.887 29.200,232.336 29.380,232.200 29.600 M211.791 29.938 C 211.229 30.454,207.200 30.844,207.200 30.381 C 207.200 30.172,206.840 30.000,206.400 30.000 C 205.418 30.000,205.325 30.784,206.300 30.840 C 207.331 30.899,205.230 31.520,204.000 31.520 L 203.000 31.520 204.000 31.200 C 204.713 30.972,204.792 30.868,204.274 30.840 C 202.888 30.764,201.669 31.662,202.609 32.066 C 203.105 32.279,202.670 32.318,201.445 32.170 C 199.811 31.973,199.527 32.033,199.719 32.534 C 199.849 32.871,199.683 33.236,199.342 33.367 C 198.495 33.692,198.316 33.659,198.583 33.228 C 198.709 33.023,198.630 32.742,198.407 32.604 C 198.183 32.466,198.000 32.556,198.000 32.805 C 198.000 33.054,197.775 33.482,197.500 33.756 C 196.856 34.399,195.200 34.835,195.200 34.363 C 195.200 34.163,195.470 34.000,195.800 34.000 C 196.130 34.000,196.400 33.820,196.400 33.600 C 196.400 33.087,196.292 33.096,195.115 33.707 C 194.577 33.985,194.207 34.420,194.291 34.673 C 194.375 34.925,194.029 35.262,193.522 35.420 C 193.015 35.578,192.510 35.819,192.400 35.954 C 191.955 36.501,189.177 37.711,188.931 37.464 C 188.786 37.319,188.997 37.200,189.400 37.200 C 189.803 37.200,190.027 37.094,189.897 36.963 C 189.483 36.549,187.934 37.252,188.131 37.765 C 188.235 38.036,187.985 38.467,187.575 38.723 C 186.961 39.106,186.870 39.083,187.059 38.590 C 187.231 38.143,187.100 38.059,186.545 38.258 C 185.311 38.699,184.751 39.295,184.988 39.912 C 185.151 40.337,184.996 40.440,184.421 40.290 C 183.985 40.176,183.421 40.334,183.166 40.641 C 182.911 40.949,182.827 41.200,182.980 41.200 C 183.272 41.200,182.673 41.825,181.489 42.757 C 180.859 43.252,180.813 43.232,181.067 42.570 C 181.333 41.877,181.297 41.880,180.526 42.614 C 180.071 43.046,179.584 43.775,179.444 44.233 C 179.303 44.692,178.938 45.067,178.632 45.067 C 178.295 45.067,178.170 44.823,178.314 44.447 C 178.472 44.035,178.244 44.114,177.633 44.683 C 177.128 45.154,176.833 45.730,176.978 45.965 C 177.145 46.235,176.989 46.294,176.551 46.126 C 176.038 45.929,175.922 46.020,176.099 46.481 C 176.258 46.896,176.116 47.084,175.668 47.050 C 175.273 47.021,175.021 47.273,175.050 47.668 C 175.084 48.116,174.896 48.258,174.481 48.099 C 174.040 47.930,173.930 48.040,174.099 48.481 C 174.258 48.896,174.116 49.084,173.668 49.050 C 173.273 49.021,173.021 49.273,173.050 49.668 C 173.084 50.116,172.896 50.258,172.481 50.099 C 172.020 49.922,171.929 50.038,172.126 50.551 C 172.294 50.989,172.235 51.145,171.965 50.978 C 171.730 50.833,171.154 51.128,170.683 51.633 C 169.960 52.409,169.939 52.509,170.547 52.276 C 171.710 51.830,171.096 52.924,169.841 53.536 C 169.228 53.835,168.829 54.299,168.939 54.586 C 169.052 54.880,168.868 55.079,168.511 55.050 C 168.167 55.023,167.808 55.270,167.713 55.600 C 167.558 56.133,167.586 56.133,167.963 55.600 C 168.197 55.270,168.391 55.158,168.394 55.352 C 168.397 55.545,167.590 56.458,166.600 57.380 C 165.610 58.302,164.803 59.313,164.806 59.628 C 164.811 60.105,164.876 60.101,165.200 59.600 C 165.641 58.918,165.736 59.580,165.344 60.601 C 165.142 61.129,165.021 61.157,164.760 60.735 C 164.502 60.318,164.304 60.376,163.841 61.002 C 163.160 61.923,162.719 63.297,163.200 63.000 C 163.379 62.889,163.429 63.169,163.310 63.622 C 163.185 64.101,162.871 64.359,162.559 64.240 C 162.264 64.127,161.786 64.251,161.496 64.517 C 160.124 65.774,159.067 66.000,154.505 66.013 C 150.281 66.024,149.879 66.085,150.576 66.613 C 151.345 67.194,151.345 67.200,150.576 67.205 C 150.149 67.208,149.350 67.314,148.800 67.440 C 148.037 67.615,147.940 67.571,148.389 67.256 C 148.898 66.899,148.887 66.808,148.308 66.586 C 147.511 66.280,146.689 66.697,147.023 67.237 C 147.168 67.471,146.628 67.518,145.629 67.358 C 144.533 67.183,144.000 67.245,144.000 67.549 C 144.000 67.797,144.495 68.024,145.100 68.053 C 146.064 68.099,146.027 68.137,144.800 68.361 C 143.998 68.508,143.274 68.443,143.106 68.209 C 142.938 67.976,142.810 68.112,142.806 68.527 C 142.801 69.085,142.603 69.191,141.950 68.984 C 141.324 68.785,141.182 68.848,141.412 69.220 C 141.642 69.591,141.486 69.664,140.831 69.492 C 140.161 69.317,139.992 69.403,140.158 69.834 C 140.327 70.275,140.147 70.352,139.389 70.162 C 138.783 70.009,138.400 70.085,138.400 70.357 C 138.400 70.600,138.175 70.803,137.900 70.806 C 136.971 70.818,136.148 71.566,136.684 71.914 C 137.035 72.142,136.957 72.359,136.399 72.708 C 135.736 73.122,135.665 73.093,135.890 72.494 C 136.119 71.883,136.068 71.867,135.465 72.357 C 135.089 72.663,134.863 72.996,134.963 73.097 C 135.314 73.447,132.750 75.616,132.309 75.344 C 132.023 75.167,131.953 75.300,132.112 75.714 C 132.286 76.167,132.187 76.293,131.780 76.137 C 131.268 75.941,131.016 76.400,131.148 77.286 C 131.171 77.443,130.891 77.456,130.526 77.316 C 130.030 77.126,129.924 77.226,130.110 77.710 C 130.286 78.167,130.188 78.293,129.780 78.137 C 129.257 77.936,129.005 78.424,129.163 79.330 C 129.194 79.511,129.034 79.545,128.807 79.404 C 128.580 79.264,128.080 79.465,127.697 79.852 C 127.034 80.521,127.034 80.542,127.700 80.290 C 128.085 80.144,128.400 80.177,128.400 80.364 C 128.400 80.914,127.353 81.618,127.014 81.297 C 126.841 81.133,126.812 81.363,126.948 81.806 C 127.126 82.389,126.955 82.722,126.334 83.006 C 125.860 83.223,125.324 83.814,125.142 84.320 C 124.905 84.980,124.942 85.159,125.273 84.955 C 125.586 84.761,125.649 84.895,125.468 85.367 C 125.321 85.751,125.200 86.135,125.200 86.220 C 125.200 86.305,124.885 86.257,124.500 86.113 C 123.887 85.883,123.868 85.934,124.349 86.525 C 124.651 86.896,124.786 87.222,124.649 87.250 C 124.512 87.278,124.230 87.323,124.023 87.350 C 123.815 87.378,123.268 87.805,122.807 88.300 C 122.346 88.795,121.706 89.200,121.384 89.200 C 120.674 89.200,120.594 89.988,121.300 90.028 C 121.575 90.044,121.440 90.211,121.000 90.400 C 119.899 90.873,119.508 90.873,119.800 90.400 C 119.947 90.161,119.463 90.000,118.600 90.000 C 117.788 90.000,117.256 90.167,117.388 90.380 C 117.719 90.916,116.281 91.600,114.821 91.600 C 113.558 91.600,112.357 92.137,111.229 93.204 C 110.878 93.537,109.783 94.054,108.796 94.353 C 100.887 96.751,92.269 102.496,89.196 107.418 C 88.778 108.088,87.798 108.887,87.018 109.193 C 86.238 109.499,85.599 109.941,85.597 110.175 C 85.596 110.409,85.222 111.140,84.767 111.800 C 84.020 112.883,83.967 112.904,84.222 112.019 C 84.486 111.104,84.460 111.082,83.841 111.702 C 83.378 112.165,83.258 112.693,83.447 113.443 C 83.635 114.195,83.580 114.435,83.264 114.240 C 82.959 114.051,82.857 114.323,82.952 115.080 C 83.029 115.696,83.014 115.885,82.918 115.500 C 82.569 114.093,81.893 114.784,82.136 116.300 C 82.294 117.284,82.251 117.598,82.010 117.212 C 81.550 116.474,81.335 116.685,81.000 118.201 C 80.800 119.109,80.839 119.254,81.162 118.800 C 81.540 118.267,81.588 118.267,81.588 118.800 C 81.590 120.066,81.103 121.138,80.612 120.949 C 80.250 120.810,80.154 121.080,80.282 121.877 C 80.419 122.728,80.363 122.857,80.053 122.412 C 79.418 121.500,79.005 122.275,79.002 124.379 C 79.001 125.491,78.832 126.231,78.600 126.143 C 78.353 126.049,78.253 126.836,78.337 128.195 C 78.434 129.759,78.638 130.400,79.037 130.400 C 79.484 130.400,79.600 131.237,79.600 134.465 C 79.600 138.209,79.826 139.560,81.238 144.248 C 81.620 145.514,81.389 146.800,80.781 146.800 C 80.598 146.800,80.706 147.295,81.021 147.900 C 81.337 148.505,81.584 149.360,81.569 149.800 L 81.544 150.600 81.200 149.800 C 80.865 149.020,80.856 149.021,80.828 149.851 C 80.793 150.918,81.808 151.885,82.156 151.117 C 82.285 150.833,82.288 151.185,82.164 151.900 C 81.941 153.172,82.493 153.723,82.963 152.700 C 83.089 152.425,83.082 152.650,82.947 153.200 C 82.811 153.750,82.834 154.074,82.998 153.919 C 83.161 153.765,83.544 153.887,83.848 154.190 C 84.600 154.943,84.541 155.228,83.700 154.910 C 83.034 154.658,83.034 154.679,83.697 155.348 C 84.080 155.735,84.573 155.940,84.792 155.805 C 85.025 155.661,85.089 155.824,84.946 156.196 C 84.812 156.546,84.859 156.787,85.051 156.732 C 85.835 156.504,87.089 157.739,86.911 158.563 C 86.786 159.142,86.843 159.243,87.094 158.891 C 87.536 158.273,89.000 159.432,89.000 160.400 C 89.000 160.730,89.301 160.977,89.668 160.950 C 90.065 160.920,90.255 161.112,90.137 161.421 C 89.994 161.792,90.204 161.876,90.868 161.712 C 91.381 161.585,91.667 161.627,91.503 161.804 C 91.149 162.190,91.910 163.203,92.549 163.194 C 92.797 163.191,92.730 163.013,92.400 162.800 C 91.867 162.455,91.867 162.415,92.400 162.434 C 93.194 162.463,94.743 163.136,94.100 163.172 C 93.405 163.211,93.469 164.000,94.167 164.000 C 94.478 164.000,94.809 164.135,94.901 164.300 C 94.993 164.465,95.014 164.375,94.947 164.100 C 94.802 163.505,95.447 163.429,95.800 164.000 C 95.936 164.220,96.442 164.418,96.924 164.440 C 97.744 164.477,97.736 164.502,96.800 164.821 C 96.143 165.045,96.590 165.084,98.100 164.935 C 99.661 164.781,100.400 164.851,100.400 165.154 C 100.400 165.476,105.691 165.600,119.400 165.600 L 138.400 165.600 138.400 180.949 L 138.400 196.298 136.300 196.504 C 134.760 196.655,134.115 196.562,133.880 196.155 C 133.669 195.789,132.819 195.600,131.380 195.600 C 129.906 195.600,129.198 195.438,129.194 195.100 C 129.190 194.764,129.055 194.796,128.782 195.200 C 128.480 195.647,128.440 195.522,128.628 194.714 C 129.015 193.045,127.585 190.246,127.088 191.700 C 126.994 191.975,126.988 191.778,127.076 191.262 C 127.232 190.337,126.551 189.067,126.055 189.358 C 125.915 189.440,125.294 188.988,124.675 188.354 C 124.056 187.719,123.689 187.200,123.859 187.200 C 124.029 187.200,123.365 186.472,122.384 185.583 C 120.775 184.124,120.453 183.991,119.100 184.218 C 118.131 184.381,117.600 184.316,117.600 184.035 C 117.600 183.796,116.997 183.600,116.260 183.600 C 114.567 183.600,112.330 182.837,112.624 182.361 C 112.747 182.162,112.477 182.000,112.024 182.000 C 111.571 182.000,111.245 182.225,111.300 182.500 C 111.372 182.858,110.775 182.980,109.200 182.930 C 107.290 182.869,107.185 182.902,108.400 183.177 L 109.800 183.495 108.100 183.547 C 107.151 183.577,106.400 183.796,106.400 184.045 C 106.400 184.338,105.913 184.398,104.970 184.221 C 103.511 183.947,102.190 184.537,102.638 185.261 C 102.771 185.476,102.432 185.523,101.834 185.373 C 100.890 185.136,100.344 185.678,101.100 186.101 C 101.265 186.193,101.165 186.210,100.879 186.139 C 100.175 185.963,98.648 187.430,98.978 187.965 C 99.145 188.235,98.990 188.294,98.555 188.127 C 98.089 187.949,97.962 188.015,98.158 188.332 C 98.317 188.589,98.269 188.800,98.051 188.800 C 97.832 188.800,97.539 189.163,97.398 189.606 C 97.257 190.049,96.984 190.314,96.790 190.194 C 96.371 189.935,94.797 191.200,94.806 191.789 C 94.809 192.015,94.987 191.930,95.200 191.600 C 95.534 191.083,95.589 191.094,95.594 191.678 C 95.597 192.051,95.105 192.598,94.500 192.894 C 93.629 193.319,93.425 193.665,93.521 194.552 C 93.597 195.260,93.486 195.577,93.220 195.412 C 92.424 194.920,91.925 197.310,92.201 200.301 C 92.415 202.618,92.361 203.174,91.934 203.066 C 91.640 202.992,91.535 203.007,91.700 203.099 C 91.865 203.191,92.000 204.297,92.000 205.557 C 92.000 207.353,93.125 210.683,93.187 209.071 C 93.194 208.891,93.488 209.031,93.840 209.383 C 94.255 209.798,94.394 210.368,94.235 211.001 C 94.035 211.800,94.113 211.932,94.659 211.722 C 95.198 211.515,95.282 211.642,95.091 212.372 C 94.961 212.871,94.946 213.187,95.059 213.074 C 95.171 212.962,96.607 214.204,98.248 215.835 C 99.889 217.466,101.495 218.800,101.816 218.800 C 102.137 218.800,102.400 218.980,102.400 219.200 C 102.400 219.420,102.715 219.603,103.100 219.606 C 103.656 219.611,103.686 219.684,103.246 219.963 C 102.802 220.245,102.856 220.402,103.520 220.757 C 104.584 221.326,105.664 221.360,104.800 220.797 C 104.390 220.530,104.835 220.486,106.200 220.659 C 108.348 220.931,109.076 221.200,107.667 221.200 C 107.190 221.200,106.800 221.357,106.800 221.550 C 106.800 222.017,114.064 221.606,114.696 221.103 C 114.974 220.882,115.959 220.823,116.931 220.969 C 118.985 221.277,121.334 220.594,120.386 219.965 C 119.968 219.687,120.116 219.649,120.900 219.831 C 121.990 220.084,122.514 219.434,121.500 219.088 C 121.225 218.994,121.420 218.988,121.934 219.074 C 122.509 219.172,122.768 219.073,122.610 218.816 C 122.468 218.587,122.554 218.400,122.800 218.400 C 123.046 218.400,123.137 218.222,123.003 218.005 C 122.858 217.771,123.035 217.715,123.434 217.868 C 123.890 218.043,124.052 217.956,123.933 217.599 C 123.731 216.993,125.634 214.820,126.125 215.096 C 126.512 215.313,128.000 214.042,128.000 213.495 C 128.000 213.286,127.705 213.228,127.343 213.366 C 126.794 213.577,126.770 213.518,127.192 213.009 C 127.470 212.674,127.915 212.400,128.181 212.400 C 128.446 212.400,128.649 212.020,128.632 211.555 C 128.601 210.741,128.759 210.712,132.902 210.777 C 137.332 210.847,139.377 210.415,136.800 209.955 L 135.400 209.705 136.900 209.653 C 137.725 209.624,138.400 209.425,138.400 209.210 C 138.400 208.980,140.884 208.776,144.500 208.710 L 150.600 208.600 150.716 204.814 C 150.783 202.645,151.018 200.912,151.267 200.759 C 151.563 200.576,151.767 195.272,151.906 184.145 C 152.048 172.799,152.246 167.710,152.555 167.506 C 152.800 167.344,157.805 167.209,163.678 167.206 L 174.355 167.200 174.478 198.300 L 174.600 229.400 173.656 230.467 C 173.137 231.055,172.809 231.691,172.926 231.881 C 173.044 232.071,172.659 232.221,172.070 232.213 C 171.295 232.204,171.015 232.392,171.055 232.896 C 171.085 233.278,170.939 233.486,170.730 233.357 C 170.243 233.056,168.725 234.412,168.917 234.975 C 169.104 235.522,166.378 238.200,165.633 238.200 C 165.322 238.200,164.993 238.470,164.903 238.800 C 164.757 239.333,164.786 239.333,165.163 238.800 C 165.838 237.846,165.691 238.985,164.906 240.797 C 164.524 241.679,164.074 242.400,163.906 242.400 C 163.738 242.400,163.587 242.715,163.572 243.100 C 163.548 243.702,163.493 243.688,163.180 243.000 C 162.934 242.460,162.895 242.831,163.060 244.144 C 163.203 245.288,163.139 246.194,162.902 246.344 C 162.546 246.571,161.951 254.000,162.290 254.000 C 162.365 254.000,162.603 253.595,162.819 253.100 C 163.120 252.411,163.166 252.669,163.014 254.200 C 162.866 255.688,162.917 255.995,163.211 255.400 C 163.533 254.748,163.579 254.858,163.458 255.994 C 163.334 257.166,163.564 258.016,164.322 259.188 C 164.389 259.292,164.626 259.112,164.848 258.788 C 165.150 258.349,165.184 258.441,164.983 259.150 C 164.783 259.858,164.843 260.021,165.220 259.788 C 165.591 259.558,165.664 259.714,165.492 260.369 C 165.321 261.023,165.406 261.206,165.809 261.052 C 166.186 260.907,166.281 261.044,166.112 261.486 C 165.950 261.906,166.022 262.034,166.317 261.851 C 166.804 261.550,168.488 262.978,168.102 263.364 C 167.668 263.798,169.324 265.215,170.011 264.997 C 170.383 264.879,170.915 265.056,171.193 265.391 C 171.471 265.726,171.573 266.000,171.420 266.000 C 171.268 266.000,171.394 266.251,171.701 266.558 C 172.030 266.888,172.697 267.032,173.329 266.911 C 173.973 266.788,174.400 266.885,174.400 267.153 C 174.400 267.399,174.715 267.603,175.100 267.606 C 175.705 267.611,175.718 267.671,175.200 268.041 C 174.714 268.388,174.766 268.433,175.470 268.280 C 176.094 268.144,176.280 268.248,176.127 268.645 C 175.967 269.063,176.321 269.200,177.557 269.200 C 178.461 269.200,179.200 269.065,179.200 268.900 C 179.200 268.735,180.361 268.587,181.780 268.571 C 183.198 268.555,184.268 268.690,184.156 268.871 C 184.044 269.052,184.593 269.200,185.376 269.200 C 186.302 269.200,186.765 269.025,186.700 268.700 C 186.642 268.411,186.913 268.254,187.340 268.327 C 187.823 268.410,187.980 268.291,187.790 267.984 C 187.579 267.643,187.842 267.590,188.750 267.789 C 189.548 267.964,190.000 267.907,190.000 267.632 C 190.000 267.394,189.685 267.182,189.300 267.160 C 188.853 267.135,188.962 267.017,189.600 266.834 C 190.150 266.677,190.658 266.690,190.729 266.862 C 190.801 267.035,191.097 266.957,191.387 266.688 C 191.678 266.420,191.845 266.082,191.757 265.937 C 191.670 265.793,191.959 265.769,192.399 265.884 C 193.154 266.081,193.549 265.462,192.900 265.099 C 192.735 265.007,192.835 264.990,193.121 265.061 C 193.881 265.251,195.346 263.759,194.981 263.169 C 194.784 262.851,194.842 262.779,195.143 262.965 C 195.785 263.362,197.864 261.173,197.683 260.290 C 197.595 259.859,197.747 259.623,198.069 259.690 C 198.361 259.750,198.551 259.562,198.490 259.270 C 198.430 258.979,198.560 258.852,198.780 258.988 C 199.368 259.351,200.953 255.755,200.581 254.901 C 200.329 254.325,200.223 254.414,199.984 255.400 L 199.695 256.600 199.647 255.524 C 199.621 254.932,199.780 254.336,200.000 254.200 C 200.220 254.064,200.424 253.378,200.453 252.676 L 200.505 251.400 200.759 252.800 C 200.898 253.570,201.011 251.950,201.009 249.200 C 201.006 246.450,200.894 244.920,200.759 245.800 L 200.514 247.400 200.457 245.900 C 200.426 245.075,200.220 244.400,200.000 244.400 C 199.780 244.400,199.600 243.950,199.600 243.400 C 199.600 242.850,199.406 242.400,199.168 242.400 C 198.895 242.400,198.831 241.922,198.992 241.100 C 199.149 240.305,199.112 239.997,198.896 240.308 C 198.634 240.685,198.405 240.557,198.004 239.808 C 197.708 239.254,197.586 238.681,197.733 238.534 C 197.880 238.387,198.000 238.477,198.000 238.733 C 198.000 238.990,198.202 239.200,198.449 239.200 C 198.753 239.200,198.733 239.001,198.385 238.582 C 198.103 238.242,197.640 238.053,197.356 238.161 C 197.073 238.270,196.730 238.008,196.594 237.580 C 196.457 237.151,196.168 236.800,195.949 236.800 C 195.731 236.800,195.683 236.589,195.842 236.332 C 196.038 236.015,195.911 235.949,195.445 236.127 C 195.015 236.292,194.856 236.234,195.018 235.970 C 195.442 235.285,193.968 233.964,193.033 234.191 C 192.575 234.302,192.425 234.289,192.700 234.163 C 193.516 233.788,193.268 233.089,192.400 233.316 C 191.960 233.431,191.600 233.362,191.600 233.163 C 191.600 232.963,191.285 232.797,190.900 232.794 C 190.295 232.789,190.282 232.729,190.800 232.359 C 191.286 232.012,191.234 231.967,190.530 232.120 C 189.879 232.262,189.718 232.158,189.890 231.709 C 190.068 231.245,189.924 231.170,189.261 231.381 C 188.594 231.592,188.401 231.490,188.406 230.927 C 188.410 230.464,188.519 230.368,188.706 230.662 C 188.868 230.916,188.952 216.741,188.893 199.162 L 188.786 167.200 204.993 167.200 L 221.200 167.200 221.200 198.781 L 221.200 230.362 219.554 231.681 C 218.649 232.407,217.753 233.405,217.564 233.900 C 217.375 234.395,216.900 234.797,216.510 234.794 C 215.905 234.789,215.889 234.730,216.400 234.400 C 216.730 234.187,216.803 234.009,216.562 234.006 C 215.893 233.997,214.688 235.494,214.982 235.970 C 215.133 236.215,215.008 236.301,214.685 236.177 C 214.379 236.060,213.897 236.242,213.615 236.582 C 213.312 236.947,213.272 237.200,213.518 237.200 C 213.746 237.200,214.024 236.975,214.135 236.700 C 214.292 236.311,214.344 236.315,214.368 236.717 C 214.386 237.001,214.014 237.631,213.541 238.117 C 213.069 238.603,212.833 238.730,213.018 238.400 C 213.300 237.896,213.252 237.882,212.718 238.315 C 212.369 238.598,212.170 239.166,212.278 239.576 C 212.417 240.106,212.272 240.305,211.780 240.262 C 211.398 240.228,211.008 240.470,210.913 240.800 C 210.758 241.333,210.788 241.333,211.182 240.800 C 211.524 240.335,211.562 240.471,211.350 241.400 C 211.200 242.060,210.924 242.660,210.738 242.733 C 210.552 242.807,210.382 243.347,210.360 243.933 L 210.320 245.000 210.000 244.000 C 209.542 242.571,209.482 243.220,209.588 248.400 C 209.640 250.930,209.867 253.226,210.092 253.502 C 210.324 253.786,210.390 254.699,210.246 255.602 C 210.089 256.582,210.147 257.200,210.395 257.200 C 210.618 257.200,210.813 256.975,210.828 256.700 C 210.844 256.425,211.011 256.560,211.200 257.000 C 211.672 258.098,211.673 258.493,211.205 258.203 C 210.975 258.061,210.913 258.228,211.056 258.602 C 211.197 258.970,211.559 259.148,211.900 259.017 C 212.346 258.846,212.441 258.999,212.277 259.626 C 212.120 260.227,212.214 260.404,212.609 260.252 C 212.986 260.107,213.081 260.244,212.912 260.686 C 212.757 261.090,212.825 261.232,213.095 261.065 C 213.369 260.896,213.449 261.090,213.316 261.599 C 213.089 262.468,213.788 262.716,214.163 261.900 C 214.289 261.625,214.292 261.805,214.169 262.300 C 213.936 263.239,214.579 263.572,214.941 262.700 C 215.056 262.425,215.116 262.630,215.075 263.156 C 215.031 263.711,215.252 264.185,215.600 264.286 C 216.133 264.442,216.133 264.414,215.600 264.037 C 215.067 263.659,215.067 263.612,215.600 263.609 C 215.930 263.607,216.499 264.131,216.865 264.774 C 217.370 265.662,217.735 265.890,218.382 265.721 C 218.851 265.598,219.205 265.656,219.170 265.849 C 218.989 266.833,219.273 267.203,220.100 267.066 C 220.595 266.984,220.775 266.994,220.500 267.088 C 219.309 267.495,220.126 267.989,221.600 267.754 C 222.712 267.576,223.200 267.643,223.200 267.972 C 223.200 268.246,223.412 268.320,223.700 268.147 C 223.992 267.971,223.953 268.151,223.605 268.578 C 223.016 269.304,228.405 269.270,230.950 268.532 C 231.435 268.391,231.604 268.471,231.426 268.757 C 231.246 269.050,231.644 269.200,232.600 269.200 C 233.412 269.200,233.944 269.033,233.812 268.820 C 233.555 268.403,234.835 267.583,235.674 267.628 C 235.963 267.644,235.840 267.826,235.400 268.034 C 234.771 268.331,234.857 268.361,235.799 268.174 C 237.318 267.871,237.524 267.658,236.788 267.152 C 236.349 266.850,236.441 266.816,237.150 267.017 C 237.796 267.200,238.013 267.144,237.826 266.843 C 237.659 266.572,237.882 266.400,238.400 266.400 C 238.866 266.400,239.137 266.222,239.003 266.005 C 238.857 265.769,239.038 265.716,239.449 265.874 C 239.954 266.068,240.077 265.979,239.909 265.541 C 239.778 265.199,239.999 264.743,240.425 264.477 C 241.058 264.082,241.131 264.114,240.909 264.692 C 240.633 265.413,241.494 264.724,243.323 262.760 C 243.998 262.035,244.032 261.902,243.486 262.112 C 242.676 262.422,242.600 262.143,243.304 261.439 C 243.581 261.162,244.031 261.010,244.304 261.101 C 244.802 261.267,244.953 260.800,244.821 259.503 C 244.771 259.010,244.943 258.880,245.405 259.057 C 245.836 259.223,246.023 259.119,245.952 258.754 C 245.748 257.713,246.446 256.230,246.849 256.847 C 247.087 257.210,247.159 256.850,247.059 255.800 C 246.975 254.920,246.984 254.605,247.080 255.100 C 247.175 255.595,247.376 256.000,247.527 256.000 C 247.967 256.000,247.713 243.098,247.250 242.000 C 246.891 241.147,246.856 241.264,247.008 242.800 L 247.186 244.600 246.780 243.007 C 246.557 242.131,246.200 241.240,245.987 241.027 C 245.371 240.411,245.538 240.001,246.287 240.289 C 246.894 240.522,246.906 240.480,246.389 239.926 C 246.067 239.582,245.600 239.378,245.351 239.474 C 245.102 239.570,244.772 239.142,244.618 238.524 C 244.274 237.146,242.659 234.967,241.535 234.365 C 241.046 234.103,240.806 234.086,240.952 234.323 C 241.100 234.561,240.886 234.643,240.428 234.523 C 239.924 234.392,239.739 234.103,239.896 233.695 C 240.052 233.287,239.976 233.168,239.676 233.353 C 239.188 233.655,237.384 232.882,237.742 232.525 C 237.858 232.409,237.513 231.840,236.976 231.261 C 236.439 230.682,236.000 229.891,236.000 229.504 C 236.000 228.486,235.287 228.638,235.082 229.700 C 234.987 230.195,234.896 216.110,234.880 198.400 C 234.861 177.292,234.984 166.533,235.238 167.168 C 235.533 167.907,235.735 168.025,236.092 167.668 C 236.427 167.333,239.773 167.200,247.880 167.200 L 259.200 167.200 259.205 174.900 C 259.208 179.135,259.321 183.013,259.457 183.517 C 259.632 184.173,259.545 184.401,259.151 184.317 C 258.703 184.222,258.577 185.510,258.477 191.200 C 258.342 198.885,258.731 204.518,259.222 202.000 L 259.495 200.600 259.547 202.300 C 259.576 203.235,259.780 204.000,260.000 204.000 C 260.220 204.000,260.403 204.405,260.406 204.900 C 260.414 206.102,260.715 206.450,262.600 207.440 C 263.480 207.902,264.156 208.484,264.102 208.733 C 263.989 209.257,265.596 209.745,266.668 209.512 C 267.071 209.424,267.355 209.138,267.300 208.876 C 267.227 208.530,268.370 208.410,271.500 208.435 C 275.973 208.471,281.377 209.037,278.300 209.147 C 276.282 209.218,276.374 210.000,278.400 210.000 C 279.303 210.000,280.000 210.193,280.000 210.443 C 280.000 210.686,280.252 210.789,280.559 210.671 C 280.870 210.552,281.580 210.975,282.159 211.625 C 283.377 212.992,283.454 213.273,282.514 212.912 C 281.936 212.690,281.951 212.778,282.614 213.474 C 283.046 213.929,283.805 214.425,284.300 214.577 C 284.795 214.729,285.200 215.134,285.200 215.476 C 285.200 215.983,285.090 216.006,284.600 215.600 C 284.227 215.291,284.000 215.262,284.000 215.524 C 284.000 215.756,284.363 216.061,284.806 216.202 C 285.256 216.345,285.492 216.651,285.340 216.897 C 285.168 217.175,285.302 217.246,285.705 217.092 C 286.069 216.952,286.568 217.137,286.871 217.524 C 287.346 218.131,287.329 218.144,286.700 217.651 C 286.268 217.312,286.000 217.268,286.000 217.536 C 286.000 217.774,286.712 218.161,287.583 218.395 C 288.454 218.630,289.274 218.997,289.407 219.211 C 289.539 219.425,289.997 219.600,290.424 219.600 C 290.851 219.600,291.200 219.780,291.200 220.000 C 291.200 220.220,291.515 220.413,291.900 220.428 C 292.501 220.452,292.487 220.507,291.800 220.814 C 291.234 221.067,291.584 221.132,293.000 221.035 C 294.100 220.959,294.685 220.978,294.300 221.077 C 293.915 221.175,293.600 221.423,293.600 221.628 C 293.600 222.055,294.933 222.134,295.336 221.730 C 295.639 221.427,299.714 221.501,302.300 221.857 C 303.422 222.011,304.000 221.939,304.000 221.645 C 304.000 221.400,303.610 221.200,303.133 221.200 C 301.399 221.200,302.732 220.791,305.035 220.617 C 306.569 220.501,307.359 220.273,307.284 219.970 C 307.215 219.696,307.423 219.600,307.784 219.738 C 308.152 219.880,308.400 219.757,308.400 219.433 C 308.400 219.136,308.844 218.601,309.386 218.246 C 310.466 217.538,311.368 217.352,310.400 218.037 C 309.867 218.414,309.867 218.442,310.400 218.287 C 310.730 218.192,310.977 217.833,310.950 217.489 C 310.917 217.081,311.114 216.946,311.515 217.100 C 311.919 217.255,312.032 217.175,311.842 216.868 C 311.675 216.598,311.784 216.400,312.098 216.400 C 312.711 216.400,315.203 213.970,315.194 213.381 C 315.191 213.171,315.013 213.270,314.800 213.600 C 314.473 214.106,314.411 214.085,314.406 213.463 C 314.403 213.057,314.739 212.636,315.154 212.528 C 315.648 212.399,315.842 212.081,315.717 211.604 C 315.581 211.083,315.736 210.894,316.263 210.938 C 316.891 210.991,316.983 210.742,316.888 209.256 C 316.826 208.296,316.939 207.306,317.140 207.056 C 317.588 206.495,317.989 196.000,317.562 196.000 C 317.394 196.000,317.165 196.405,317.055 196.900 C 316.944 197.395,316.894 197.138,316.943 196.328 C 316.993 195.518,316.890 194.944,316.716 195.052 C 316.542 195.159,316.400 194.757,316.400 194.157 C 316.400 193.557,316.282 193.185,316.137 193.330 C 315.838 193.629,314.800 192.879,314.800 192.364 C 314.800 192.177,315.109 192.144,315.487 192.289 C 316.096 192.522,316.107 192.480,315.587 191.918 C 315.264 191.569,314.882 191.355,314.737 191.443 C 314.593 191.530,314.569 191.241,314.684 190.801 C 314.911 189.932,314.212 189.684,313.837 190.500 C 313.711 190.775,313.716 190.568,313.850 190.039 C 314.044 189.271,313.964 189.128,313.451 189.325 C 313.098 189.460,312.829 189.443,312.852 189.286 C 312.984 188.400,312.732 187.941,312.220 188.137 C 311.852 188.278,311.715 188.167,311.843 187.831 C 311.955 187.541,311.756 187.192,311.402 187.056 C 311.028 186.913,310.861 186.975,311.003 187.205 C 311.364 187.788,310.828 187.685,310.190 187.048 C 309.887 186.744,309.765 186.361,309.919 186.198 C 310.074 186.034,309.750 186.011,309.200 186.147 C 308.650 186.282,308.425 186.289,308.700 186.163 C 309.552 185.771,309.254 185.275,308.000 185.000 C 307.340 184.855,306.800 184.571,306.800 184.368 C 306.800 184.166,306.609 184.000,306.376 184.000 C 306.143 184.000,306.062 184.177,306.196 184.394 C 306.471 184.839,303.929 184.452,303.600 183.998 C 303.335 183.632,299.719 183.169,296.000 183.024 C 293.847 182.941,293.452 182.990,294.600 183.197 L 296.200 183.486 294.724 183.543 C 293.912 183.574,293.125 183.798,292.975 184.040 C 292.818 184.295,292.203 184.381,291.519 184.244 C 290.236 183.987,288.634 184.608,289.010 185.215 C 289.141 185.428,288.942 185.476,288.551 185.326 C 288.009 185.118,287.920 185.215,288.137 185.779 C 288.360 186.360,288.253 186.455,287.574 186.277 C 286.973 186.120,286.796 186.214,286.948 186.609 C 287.075 186.939,286.958 187.082,286.657 186.967 C 286.381 186.861,285.642 187.350,285.015 188.054 C 284.325 188.828,284.134 189.234,284.532 189.082 C 285.085 188.869,285.115 188.947,284.723 189.575 C 284.467 189.985,284.043 190.238,283.780 190.137 C 283.518 190.036,283.192 190.244,283.056 190.598 C 282.893 191.023,282.966 191.144,283.273 190.955 C 283.586 190.761,283.649 190.894,283.468 191.367 C 283.321 191.751,283.200 192.135,283.200 192.220 C 283.200 192.305,282.943 192.276,282.629 192.156 C 282.211 191.996,282.117 192.161,282.277 192.774 C 282.455 193.453,282.360 193.560,281.779 193.337 C 281.225 193.124,281.119 193.211,281.313 193.718 C 281.452 194.079,281.393 194.481,281.183 194.611 C 280.972 194.741,280.800 194.657,280.800 194.424 C 280.800 194.191,280.609 194.000,280.376 194.000 C 280.143 194.000,280.064 194.180,280.200 194.400 C 280.345 194.634,279.898 194.812,279.124 194.828 C 278.021 194.852,277.933 194.914,278.600 195.200 C 279.245 195.477,279.113 195.549,277.924 195.572 C 277.112 195.587,276.336 195.780,276.200 196.000 C 276.064 196.220,274.973 196.400,273.776 196.400 L 271.600 196.400 271.600 181.000 L 271.600 165.600 290.600 165.600 C 303.000 165.600,309.600 165.461,309.600 165.200 C 309.600 164.980,310.185 164.796,310.900 164.790 C 311.615 164.785,312.861 164.627,313.669 164.440 C 314.629 164.217,315.288 164.248,315.569 164.529 C 315.877 164.837,316.137 164.823,316.480 164.480 C 316.853 164.107,316.787 163.993,316.180 163.968 C 315.604 163.945,315.557 163.877,316.000 163.708 C 316.330 163.583,316.692 163.341,316.804 163.172 C 317.213 162.553,319.350 162.231,318.991 162.842 C 318.810 163.149,319.053 163.057,319.531 162.638 C 320.009 162.219,320.400 161.615,320.400 161.295 C 320.400 160.923,320.634 160.804,321.051 160.964 C 321.826 161.262,322.900 160.486,322.534 159.893 C 322.389 159.659,322.469 159.595,322.714 159.747 C 323.387 160.163,325.229 157.956,325.001 157.007 C 324.895 156.563,324.911 156.425,325.037 156.700 C 325.412 157.516,326.111 157.268,325.884 156.399 C 325.769 155.959,325.838 155.700,326.037 155.823 C 326.237 155.946,326.400 155.689,326.400 155.252 C 326.400 154.815,326.648 154.209,326.952 153.905 C 327.255 153.602,327.635 152.554,327.796 151.577 C 327.956 150.600,328.563 148.810,329.144 147.600 C 330.168 145.467,330.200 145.176,330.200 138.000 C 330.200 131.196,330.262 130.549,330.967 129.962 C 331.470 129.544,331.638 129.077,331.457 128.605 C 331.305 128.209,331.074 127.993,330.943 128.124 C 330.372 128.695,329.546 127.158,329.801 125.997 C 330.062 124.808,329.501 124.299,329.033 125.300 C 328.904 125.575,328.896 125.080,329.014 124.200 C 329.171 123.037,329.118 122.764,328.821 123.200 C 328.470 123.716,328.411 123.702,328.406 123.100 C 328.403 122.715,328.220 122.400,328.000 122.400 C 327.780 122.400,327.603 122.085,327.606 121.700 C 327.611 121.102,327.669 121.087,328.000 121.600 C 328.294 122.056,328.389 122.071,328.394 121.663 C 328.397 121.367,328.035 121.030,327.589 120.913 C 327.038 120.769,326.848 120.478,326.998 120.007 C 327.323 118.983,326.797 117.916,326.100 118.183 C 325.654 118.354,325.559 118.201,325.723 117.574 C 325.873 117.001,325.781 116.798,325.433 116.932 C 325.082 117.067,324.982 116.830,325.108 116.168 C 325.230 115.533,325.074 115.127,324.646 114.962 C 324.291 114.826,324.000 114.374,324.000 113.957 C 324.000 113.005,323.327 112.964,323.055 113.900 C 322.887 114.478,322.855 114.460,322.872 113.800 C 322.912 112.220,322.793 111.917,322.220 112.137 C 321.812 112.293,321.714 112.167,321.890 111.710 C 322.076 111.226,321.970 111.126,321.474 111.316 C 321.109 111.456,320.829 111.443,320.852 111.286 C 320.976 110.457,320.745 109.952,320.309 110.097 C 320.038 110.187,319.464 109.932,319.033 109.530 C 318.602 109.129,317.968 108.800,317.625 108.799 C 317.281 108.799,315.577 107.732,313.838 106.429 C 307.208 101.463,297.159 98.000,289.374 98.000 C 287.476 98.000,286.352 94.390,287.800 92.943 C 288.506 92.237,288.595 90.568,287.948 90.168 C 287.641 89.978,287.560 88.749,287.697 86.344 C 287.884 83.065,287.526 81.595,287.053 83.700 C 286.942 84.195,286.941 83.580,287.050 82.334 C 287.355 78.867,286.483 75.576,285.876 77.900 C 285.763 78.331,285.675 78.177,285.646 77.500 C 285.621 76.895,285.396 76.400,285.147 76.400 C 284.848 76.400,284.770 75.841,284.917 74.745 C 285.198 72.648,284.512 70.553,283.953 71.800 C 283.666 72.439,283.621 72.340,283.726 71.310 C 283.839 70.208,283.772 70.091,283.265 70.510 C 282.759 70.927,282.702 70.837,282.880 69.900 C 282.995 69.295,282.915 68.800,282.701 68.800 C 282.488 68.800,282.421 68.371,282.553 67.846 C 282.802 66.851,281.953 65.734,281.269 66.157 C 281.068 66.282,280.921 65.696,280.943 64.855 C 280.969 63.856,280.725 63.068,280.239 62.582 C 279.513 61.856,279.502 61.862,279.778 62.819 C 280.033 63.704,279.980 63.683,279.233 62.600 C 278.296 61.242,278.160 60.609,278.900 61.053 C 279.231 61.252,279.212 61.121,278.843 60.667 C 278.537 60.290,278.200 60.066,278.095 60.171 C 277.896 60.371,276.800 59.415,276.800 59.041 C 276.800 58.922,277.109 58.944,277.487 59.089 C 278.096 59.322,278.107 59.280,277.587 58.718 C 277.264 58.369,276.882 58.155,276.737 58.243 C 276.593 58.330,276.569 58.041,276.684 57.601 C 276.801 57.153,276.696 56.800,276.447 56.800 C 276.201 56.800,276.000 57.014,276.000 57.276 C 276.000 57.539,275.750 57.411,275.444 56.993 C 275.139 56.575,274.990 55.971,275.112 55.651 C 275.268 55.245,275.176 55.168,274.806 55.396 C 274.441 55.622,274.371 55.570,274.583 55.227 C 274.935 54.659,272.480 51.903,271.927 52.245 C 271.736 52.363,271.630 52.221,271.690 51.930 C 271.751 51.638,271.562 51.449,271.270 51.510 C 270.979 51.570,270.842 51.456,270.966 51.255 C 271.252 50.792,270.223 49.910,269.842 50.291 C 269.686 50.448,269.675 50.271,269.818 49.898 C 269.972 49.496,269.796 48.939,269.386 48.529 C 268.731 47.873,268.710 47.887,268.995 48.785 C 269.235 49.539,268.940 49.373,267.546 47.966 C 266.583 46.995,265.857 46.056,265.933 45.881 C 266.128 45.428,263.260 42.800,262.572 42.800 C 262.257 42.800,262.000 42.601,262.000 42.357 C 262.000 42.114,261.752 42.009,261.450 42.126 C 261.109 42.256,260.919 42.082,260.950 41.668 C 260.984 41.212,260.728 41.028,260.143 41.088 C 259.583 41.145,259.216 40.903,259.081 40.388 C 258.968 39.954,258.633 39.603,258.337 39.606 C 257.929 39.611,257.944 39.706,258.400 40.000 C 258.730 40.213,258.820 40.385,258.600 40.381 C 258.380 40.378,257.851 40.110,257.424 39.787 C 256.996 39.464,256.794 39.200,256.973 39.200 C 257.152 39.200,257.064 38.918,256.779 38.574 C 256.447 38.175,255.886 38.025,255.230 38.158 C 254.663 38.274,254.425 38.270,254.700 38.151 C 255.520 37.794,255.266 37.089,254.399 37.316 C 253.936 37.437,253.700 37.361,253.840 37.136 C 253.972 36.922,253.837 36.788,253.540 36.838 C 252.763 36.971,250.800 36.370,250.800 36.000 C 250.800 35.828,250.356 35.575,249.814 35.439 C 249.118 35.264,248.900 35.004,249.074 34.551 C 249.280 34.015,249.114 33.955,248.063 34.186 C 247.163 34.384,246.626 34.283,246.174 33.831 C 245.827 33.484,245.682 33.200,245.851 33.200 C 246.021 33.200,245.944 32.984,245.680 32.720 C 245.307 32.347,245.093 32.347,244.720 32.720 C 244.049 33.391,243.469 33.319,243.745 32.600 C 243.981 31.984,242.984 31.714,242.733 32.326 C 242.660 32.505,242.150 32.523,241.600 32.366 C 240.917 32.171,240.830 32.067,241.324 32.040 C 241.722 32.018,241.936 31.819,241.799 31.599 C 241.663 31.378,241.144 31.299,240.647 31.424 C 240.150 31.549,238.530 31.369,237.047 31.025 C 235.564 30.681,233.832 30.400,233.199 30.400 C 232.565 30.400,231.943 30.231,231.816 30.025 C 231.516 29.541,212.314 29.457,211.791 29.938 M231.538 41.037 C 259.259 46.232,277.600 69.569,277.600 99.647 C 277.600 105.315,277.639 105.601,278.565 106.678 L 279.530 107.800 287.065 108.048 C 302.464 108.556,312.214 114.180,317.479 125.591 C 323.844 139.387,320.359 151.240,309.000 154.437 C 306.183 155.230,106.116 155.190,102.748 154.396 C 95.708 152.736,91.151 147.580,89.960 139.926 C 86.635 118.573,101.268 101.797,123.000 102.046 C 130.939 102.137,132.172 101.419,133.176 96.127 C 135.592 83.389,146.561 76.027,159.930 78.171 C 166.791 79.271,167.969 78.695,170.668 72.918 C 179.197 54.669,196.416 42.572,217.200 40.230 C 219.835 39.933,228.140 40.400,231.538 41.037 M286.800 80.200 C 286.800 80.970,286.730 81.600,286.644 81.600 C 286.558 81.600,286.414 80.970,286.324 80.200 C 286.234 79.430,286.304 78.800,286.480 78.800 C 286.656 78.800,286.800 79.430,286.800 80.200 M288.000 86.776 C 288.000 87.669,288.180 88.400,288.400 88.400 C 288.620 88.400,288.800 87.781,288.800 87.024 C 288.800 86.267,288.620 85.536,288.400 85.400 C 288.158 85.251,288.000 85.796,288.000 86.776 M123.367 88.943 C 123.228 89.304,122.864 89.600,122.557 89.600 C 122.133 89.600,122.167 89.425,122.700 88.867 C 123.520 88.008,123.717 88.031,123.367 88.943 M110.800 91.600 C 110.800 91.820,111.261 92.000,111.824 92.000 C 112.404 92.000,112.740 91.827,112.600 91.600 C 112.464 91.380,112.003 91.200,111.576 91.200 C 111.149 91.200,110.800 91.380,110.800 91.600 M79.476 125.100 C 79.375 125.485,79.293 125.170,79.293 124.400 C 79.293 123.630,79.375 123.315,79.476 123.700 C 79.576 124.085,79.576 124.715,79.476 125.100 M330.000 126.600 C 330.000 126.930,330.180 127.200,330.400 127.200 C 330.620 127.200,330.800 126.930,330.800 126.600 C 330.800 126.270,330.620 126.000,330.400 126.000 C 330.180 126.000,330.000 126.270,330.000 126.600 M77.467 127.467 C 77.048 127.885,77.155 129.600,77.600 129.600 C 77.820 129.600,78.000 129.060,78.000 128.400 C 78.000 127.157,77.919 127.015,77.467 127.467 M311.500 165.091 C 310.675 165.178,310.000 165.417,310.000 165.624 C 310.000 166.107,312.120 166.115,312.620 165.634 C 312.829 165.432,313.450 165.187,314.000 165.088 L 315.000 164.909 314.000 164.922 C 313.450 164.929,312.325 165.005,311.500 165.091 M98.800 165.600 C 98.800 165.820,99.070 166.000,99.400 166.000 C 99.730 166.000,100.000 165.820,100.000 165.600 C 100.000 165.380,99.730 165.200,99.400 165.200 C 99.070 165.200,98.800 165.380,98.800 165.600 M100.800 166.400 C 100.800 166.661,107.133 166.800,119.000 166.800 L 137.200 166.800 137.200 181.000 C 137.200 194.933,137.185 195.200,136.400 195.200 C 135.960 195.200,135.600 195.380,135.600 195.600 C 135.600 195.820,136.140 196.000,136.800 196.000 L 138.000 196.000 138.000 181.000 L 138.000 166.000 119.400 166.000 C 107.267 166.000,100.800 166.139,100.800 166.400 M272.000 181.000 L 272.000 196.000 273.200 196.000 C 273.860 196.000,274.400 195.820,274.400 195.600 C 274.400 195.380,274.040 195.200,273.600 195.200 C 272.815 195.200,272.800 194.933,272.800 181.000 L 272.800 166.800 291.000 166.800 C 302.867 166.800,309.200 166.661,309.200 166.400 C 309.200 166.139,302.733 166.000,290.600 166.000 L 272.000 166.000 272.000 181.000 M151.099 186.474 C 151.034 190.283,150.980 187.280,150.980 179.800 C 150.979 172.320,151.033 169.203,151.099 172.874 C 151.165 176.545,151.165 182.665,151.099 186.474 M169.100 166.699 C 166.075 166.767,161.125 166.767,158.100 166.699 C 155.075 166.631,157.550 166.575,163.600 166.575 C 169.650 166.575,172.125 166.631,169.100 166.699 M213.327 166.699 C 208.887 166.764,201.507 166.764,196.927 166.700 C 192.347 166.635,195.980 166.583,205.000 166.583 C 214.020 166.583,217.767 166.635,213.327 166.699 M222.300 214.500 C 222.240 223.355,222.191 216.110,222.191 198.400 C 222.191 180.690,222.240 173.445,222.300 182.300 C 222.360 191.155,222.360 205.645,222.300 214.500 M253.724 166.699 C 250.603 166.766,245.383 166.767,242.124 166.699 C 238.866 166.632,241.420 166.577,247.800 166.577 C 254.180 166.576,256.846 166.631,253.724 166.699 M187.900 214.670 C 187.840 223.432,187.791 216.380,187.790 199.000 C 187.790 181.620,187.840 174.452,187.900 183.070 C 187.960 191.689,187.960 205.909,187.900 214.670 M301.300 183.076 C 301.685 183.176,302.315 183.176,302.700 183.076 C 303.085 182.975,302.770 182.893,302.000 182.893 C 301.230 182.893,300.915 182.975,301.300 183.076 M113.212 195.984 C 112.888 196.189,112.756 196.489,112.918 196.652 C 113.081 196.814,113.412 196.748,113.656 196.504 C 114.148 196.012,115.738 196.547,116.794 197.561 C 117.383 198.126,117.494 203.384,116.960 205.400 C 116.784 206.064,116.824 206.098,117.195 205.600 C 117.572 205.095,117.623 205.127,117.516 205.799 C 117.446 206.239,117.122 206.599,116.795 206.599 C 115.799 206.600,114.536 207.542,115.060 207.893 C 115.313 208.062,113.755 208.200,111.598 208.200 C 109.441 208.200,107.755 208.072,107.853 207.915 C 108.136 207.457,106.414 205.944,105.943 206.235 C 105.653 206.415,105.603 206.096,105.789 205.250 C 106.077 203.940,105.409 203.425,105.076 204.700 C 104.975 205.085,104.875 204.050,104.853 202.400 C 104.825 200.374,104.935 199.594,105.190 199.998 C 105.566 200.592,106.751 199.608,106.787 198.671 C 106.807 198.161,107.883 197.203,108.471 197.172 C 108.762 197.156,108.640 196.989,108.200 196.800 C 107.516 196.506,107.501 196.452,108.100 196.428 C 108.485 196.413,108.800 196.220,108.800 196.000 C 108.800 195.775,109.896 195.603,111.300 195.606 C 112.999 195.610,113.611 195.732,113.212 195.984 M301.637 196.020 C 302.069 196.251,302.298 196.642,302.146 196.888 C 301.963 197.183,302.104 197.246,302.555 197.073 C 302.979 196.910,303.144 196.967,302.986 197.222 C 302.683 197.713,303.550 198.878,304.008 198.595 C 304.183 198.487,304.239 198.804,304.133 199.299 C 303.954 200.137,303.981 200.151,304.517 199.496 C 305.174 198.694,305.649 200.425,305.533 203.200 C 305.483 204.402,305.432 204.317,305.173 202.600 C 304.880 200.659,304.874 200.677,304.968 203.198 C 305.021 204.627,304.991 205.572,304.899 205.298 C 304.561 204.284,303.917 204.815,304.169 205.900 C 304.337 206.624,304.300 206.813,304.059 206.453 C 303.763 206.009,303.535 206.065,302.847 206.753 C 301.825 207.775,301.808 207.904,302.672 208.071 C 303.041 208.142,301.438 208.200,299.110 208.200 C 296.781 208.200,295.084 208.065,295.338 207.900 C 295.671 207.684,295.632 207.490,295.200 207.206 C 294.420 206.694,293.885 206.691,294.200 207.200 C 294.562 207.786,294.031 207.688,293.395 207.052 C 293.086 206.743,292.939 206.090,293.058 205.552 C 293.226 204.797,293.181 204.724,292.841 205.200 C 292.471 205.718,292.411 205.705,292.406 205.100 C 292.403 204.715,292.220 204.400,292.000 204.400 C 291.780 204.400,291.631 203.547,291.670 202.500 L 291.740 200.600 291.893 202.300 C 292.150 205.159,292.886 204.287,292.736 201.300 C 292.619 198.978,292.692 198.615,293.254 198.707 C 293.829 198.801,294.463 198.018,294.565 197.087 C 294.696 195.906,299.945 195.114,301.637 196.020 M109.520 196.480 C 109.893 196.853,110.107 196.853,110.480 196.480 C 110.853 196.107,110.747 196.000,110.000 196.000 C 109.253 196.000,109.147 196.107,109.520 196.480 M93.087 199.495 C 92.995 200.103,92.917 199.700,92.914 198.600 C 92.911 197.500,92.987 197.003,93.082 197.495 C 93.177 197.986,93.179 198.886,93.087 199.495 M114.800 196.925 C 114.800 196.994,115.340 197.568,116.000 198.200 C 117.455 199.594,117.617 199.254,116.182 197.818 C 115.252 196.888,114.800 196.596,114.800 196.925 M318.000 199.600 C 318.000 200.480,318.180 201.200,318.400 201.200 C 318.620 201.200,318.800 200.480,318.800 199.600 C 318.800 198.720,318.620 198.000,318.400 198.000 C 318.180 198.000,318.000 198.720,318.000 199.600 M118.289 203.700 C 118.201 204.415,118.128 203.830,118.128 202.400 C 118.128 200.970,118.201 200.385,118.289 201.100 C 118.378 201.815,118.378 202.985,118.289 203.700 M151.467 201.467 C 151.035 201.899,151.158 207.200,151.600 207.200 C 151.831 207.200,152.000 205.933,152.000 204.200 C 152.000 201.188,151.959 200.975,151.467 201.467 M93.087 206.700 C 92.995 207.305,92.920 206.810,92.920 205.600 C 92.920 204.390,92.995 203.895,93.087 204.500 C 93.178 205.105,93.178 206.095,93.087 206.700 M318.000 205.200 C 318.000 205.860,318.180 206.400,318.400 206.400 C 318.620 206.400,318.800 205.860,318.800 205.200 C 318.800 204.540,318.620 204.000,318.400 204.000 C 318.180 204.000,318.000 204.540,318.000 205.200 M317.200 208.200 C 317.200 208.750,317.380 209.200,317.600 209.200 C 317.820 209.200,318.000 208.750,318.000 208.200 C 318.000 207.650,317.820 207.200,317.600 207.200 C 317.380 207.200,317.200 207.650,317.200 208.200 M138.800 209.600 C 138.800 209.848,140.933 210.000,144.400 210.000 C 147.867 210.000,150.000 209.848,150.000 209.600 C 150.000 209.352,147.867 209.200,144.400 209.200 C 140.933 209.200,138.800 209.352,138.800 209.600 M93.200 210.600 C 93.200 210.930,93.380 211.200,93.600 211.200 C 93.820 211.200,94.000 210.930,94.000 210.600 C 94.000 210.270,93.820 210.000,93.600 210.000 C 93.380 210.000,93.200 210.270,93.200 210.600 M96.693 215.600 C 97.070 216.040,97.516 216.400,97.685 216.400 C 97.854 216.400,97.684 216.040,97.307 215.600 C 96.930 215.160,96.484 214.800,96.315 214.800 C 96.146 214.800,96.316 215.160,96.693 215.600 M114.800 221.600 C 114.800 221.820,115.160 222.000,115.600 222.000 C 116.040 222.000,116.400 221.820,116.400 221.600 C 116.400 221.380,116.040 221.200,115.600 221.200 C 115.160 221.200,114.800 221.380,114.800 221.600 M110.300 222.289 C 111.015 222.378,112.185 222.378,112.900 222.289 C 113.615 222.201,113.030 222.128,111.600 222.128 C 110.170 222.128,109.585 222.201,110.300 222.289 M297.091 222.289 C 297.801 222.377,299.061 222.379,299.891 222.292 C 300.721 222.205,300.140 222.133,298.600 222.131 C 297.060 222.129,296.381 222.200,297.091 222.289 M175.487 228.700 C 175.395 229.305,175.320 228.810,175.320 227.600 C 175.320 226.390,175.395 225.895,175.487 226.500 C 175.578 227.105,175.578 228.095,175.487 228.700 M236.954 231.825 C 237.132 232.289,237.032 232.302,236.385 231.898 C 235.953 231.628,235.600 231.277,235.600 231.116 C 235.600 230.633,236.722 231.220,236.954 231.825 M183.862 243.130 C 183.492 243.202,183.293 243.428,183.420 243.632 C 183.546 243.836,184.095 243.891,184.640 243.754 C 185.185 243.617,185.579 243.665,185.516 243.860 C 185.322 244.454,187.103 246.484,187.312 245.908 C 187.414 245.629,187.407 246.255,187.296 247.300 C 187.069 249.457,187.846 250.030,188.111 247.900 C 188.199 247.185,188.272 247.950,188.272 249.600 C 188.272 251.250,188.199 252.015,188.111 251.300 C 187.908 249.668,187.200 249.587,187.200 251.197 C 187.200 252.018,186.804 252.772,185.937 253.600 C 185.242 254.264,184.792 254.926,184.937 255.070 C 185.082 255.215,185.200 255.123,185.200 254.867 C 185.200 254.610,185.515 254.406,185.900 254.413 C 186.558 254.425,186.557 254.458,185.881 254.970 C 185.486 255.270,184.811 255.423,184.381 255.311 C 183.537 255.090,183.274 255.825,184.099 256.100 C 185.138 256.446,181.336 256.743,180.000 256.420 C 179.230 256.234,178.915 256.063,179.300 256.041 C 180.143 255.992,180.250 255.200,179.413 255.200 C 179.091 255.200,178.203 254.576,177.440 253.813 C 176.595 252.968,175.989 252.617,175.889 252.913 C 175.798 253.181,175.795 252.860,175.881 252.200 C 176.024 251.108,175.987 251.064,175.471 251.705 C 174.953 252.349,174.882 252.275,174.654 250.846 C 174.272 248.458,174.731 246.574,175.470 247.494 C 175.981 248.130,176.013 248.071,175.787 246.900 C 175.586 245.857,175.653 245.645,176.127 245.827 C 176.738 246.062,178.118 244.515,177.783 243.972 C 177.682 243.808,177.959 243.769,178.399 243.884 C 179.226 244.100,179.552 243.384,178.749 243.116 C 178.501 243.034,179.701 242.974,181.415 242.983 C 183.130 242.992,184.231 243.059,183.862 243.130 M231.195 243.133 C 230.347 243.420,230.848 244.075,231.744 243.850 C 232.395 243.686,232.911 243.859,233.406 244.406 C 233.801 244.843,233.935 245.200,233.705 245.200 C 233.474 245.200,233.182 244.930,233.055 244.600 C 232.929 244.270,232.632 244.000,232.397 244.000 C 232.161 244.000,232.357 244.405,232.831 244.900 C 233.306 245.395,233.948 246.392,234.259 247.116 C 234.570 247.840,234.999 248.324,235.212 248.193 C 235.441 248.051,235.588 248.659,235.572 249.676 C 235.550 251.006,235.465 251.217,235.200 250.600 C 234.898 249.898,234.845 249.886,234.768 250.500 C 234.577 252.015,234.619 252.196,235.130 252.090 C 235.421 252.030,235.550 252.157,235.417 252.373 C 235.284 252.588,234.933 252.673,234.639 252.560 C 234.181 252.384,233.550 253.173,233.435 254.067 C 233.416 254.213,233.236 254.483,233.036 254.667 C 232.819 254.865,232.809 254.758,233.013 254.400 C 233.306 253.884,233.259 253.876,232.681 254.345 C 232.311 254.645,232.112 255.057,232.238 255.261 C 232.371 255.476,232.032 255.523,231.434 255.373 C 230.788 255.211,230.400 255.280,230.400 255.557 C 230.400 255.800,230.715 256.018,231.100 256.041 C 231.485 256.063,231.170 256.243,230.400 256.439 C 228.719 256.867,225.956 256.521,226.816 255.990 C 227.124 255.799,227.292 255.589,227.188 255.522 C 225.969 254.734,225.088 254.422,224.722 254.648 C 224.431 254.828,224.390 254.739,224.604 254.394 C 224.839 254.013,224.750 253.933,224.286 254.112 C 223.810 254.294,223.706 254.189,223.890 253.710 C 224.069 253.244,223.968 253.127,223.533 253.293 C 223.018 253.491,222.928 252.941,222.928 249.600 C 222.928 246.259,223.018 245.709,223.533 245.907 C 223.968 246.073,224.069 245.956,223.890 245.490 C 223.714 245.033,223.812 244.907,224.220 245.063 C 224.732 245.259,224.984 244.800,224.852 243.914 C 224.829 243.757,225.069 243.728,225.386 243.850 C 225.702 243.971,226.183 243.934,226.454 243.766 C 226.818 243.542,226.774 243.402,226.288 243.231 C 225.926 243.104,226.970 243.000,228.609 243.000 C 230.249 243.000,231.412 243.060,231.195 243.133 M248.000 249.176 C 248.000 251.592,248.160 253.200,248.400 253.200 C 248.638 253.200,248.800 251.675,248.800 249.424 C 248.800 247.337,248.621 245.537,248.400 245.400 C 248.143 245.241,248.000 246.596,248.000 249.176 M208.944 249.600 C 208.944 251.690,209.012 252.545,209.094 251.500 C 209.176 250.455,209.176 248.745,209.094 247.700 C 209.012 246.655,208.944 247.510,208.944 249.600 M161.200 249.176 C 161.200 250.483,161.380 251.664,161.600 251.800 C 161.851 251.955,162.000 251.071,162.000 249.424 C 162.000 247.941,161.826 246.800,161.600 246.800 C 161.378 246.800,161.200 247.859,161.200 249.176 M221.887 250.700 C 221.795 251.305,221.720 250.810,221.720 249.600 C 221.720 248.390,221.795 247.895,221.887 248.500 C 221.978 249.105,221.978 250.095,221.887 250.700 M187.400 253.600 C 187.250 254.073,187.037 254.370,186.927 254.260 C 186.817 254.150,186.850 253.673,187.000 253.200 C 187.150 252.727,187.363 252.430,187.473 252.540 C 187.583 252.650,187.550 253.127,187.400 253.600 M209.412 254.117 C 209.241 254.512,209.213 254.947,209.351 255.084 C 209.757 255.490,210.084 254.920,209.897 254.131 C 209.732 253.433,209.710 253.432,209.412 254.117 M227.600 269.600 C 227.600 269.820,228.140 270.000,228.800 270.000 C 229.460 270.000,230.000 269.820,230.000 269.600 C 230.000 269.380,229.460 269.200,228.800 269.200 C 228.140 269.200,227.600 269.380,227.600 269.600 " stroke="none" fill="#f48c1c" fill-rule="evenodd"></path><path id="path1" d="M212.008 41.432 C 194.639 44.598,178.968 56.623,171.326 72.648 C 168.387 78.811,166.823 79.763,161.221 78.799 C 152.451 77.288,147.113 78.422,141.377 83.013 C 137.518 86.101,133.600 92.855,133.600 96.418 C 133.600 100.819,130.092 103.007,123.732 102.572 C 105.262 101.309,90.078 115.192,90.014 133.400 C 89.973 145.059,93.984 151.675,102.399 153.831 C 106.600 154.907,305.859 154.946,309.400 153.871 C 320.759 150.423,323.572 136.573,315.629 123.203 C 309.677 113.183,301.462 108.981,286.804 108.461 C 276.746 108.103,277.200 108.483,277.200 100.420 C 277.200 88.662,275.365 79.909,271.127 71.446 C 260.233 49.694,235.517 37.146,212.008 41.432 " stroke="none" fill="#fcfbfa" fill-rule="evenodd"></path><path id="path2" d="M40.800 91.600 C 40.800 91.864,52.667 92.000,75.600 92.000 C 98.533 92.000,110.400 91.864,110.400 91.600 C 110.400 91.336,98.533 91.200,75.600 91.200 C 52.667 91.200,40.800 91.336,40.800 91.600 M288.400 91.600 C 288.400 91.864,300.667 92.000,324.400 92.000 C 348.133 92.000,360.400 91.864,360.400 91.600 C 360.400 91.336,348.133 91.200,324.400 91.200 C 300.667 91.200,288.400 91.336,288.400 91.600 M37.870 91.930 C 37.469 92.096,37.154 92.359,37.170 92.516 C 37.262 93.392,37.133 93.599,36.500 93.594 C 35.955 93.589,35.920 93.512,36.343 93.244 C 36.739 92.993,36.761 92.823,36.424 92.615 C 35.807 92.234,34.684 92.688,34.995 93.193 C 35.136 93.420,34.983 93.492,34.640 93.360 C 33.674 92.989,32.899 93.671,33.827 94.075 C 34.421 94.334,34.352 94.365,33.532 94.207 C 32.220 93.954,29.910 95.163,30.205 95.948 C 30.353 96.340,30.173 96.434,29.574 96.277 C 28.973 96.120,28.796 96.214,28.948 96.609 C 29.087 96.970,28.957 97.082,28.571 96.933 C 27.850 96.657,25.075 99.474,25.458 100.094 C 25.608 100.337,25.537 100.408,25.294 100.258 C 24.716 99.901,23.600 101.068,23.600 102.029 C 23.600 102.453,23.382 102.755,23.115 102.700 C 22.848 102.645,22.445 103.005,22.220 103.500 C 21.995 103.995,21.673 104.400,21.505 104.400 C 21.337 104.400,21.200 104.745,21.200 105.167 C 21.200 105.588,20.975 106.008,20.700 106.100 C 20.368 106.211,20.215 107.062,20.245 108.634 C 20.270 109.935,20.212 110.592,20.117 110.094 C 19.793 108.405,19.159 109.651,19.384 111.535 C 19.524 112.706,19.481 113.110,19.270 112.621 C 18.474 110.776,18.411 118.749,18.411 221.200 C 18.411 322.736,18.479 331.720,19.239 329.779 C 19.521 329.059,19.546 329.068,19.572 329.900 C 19.587 330.395,19.780 330.800,20.000 330.800 C 20.220 330.800,20.400 331.430,20.400 332.200 C 20.400 332.970,20.580 333.600,20.800 333.600 C 21.020 333.600,21.200 333.960,21.200 334.400 C 21.200 334.840,21.020 335.200,20.800 335.200 C 20.580 335.200,20.400 335.380,20.400 335.600 C 20.400 335.820,20.681 336.000,21.024 336.000 C 21.374 336.000,21.528 336.192,21.376 336.438 C 20.986 337.069,22.052 338.866,22.675 338.627 C 22.964 338.516,23.200 338.584,23.200 338.779 C 23.200 338.974,22.977 339.208,22.704 339.299 C 22.161 339.480,23.273 340.862,23.879 340.760 C 24.876 340.591,25.276 340.864,25.088 341.586 C 24.975 342.019,24.999 342.359,25.141 342.343 C 26.031 342.241,27.203 343.041,27.612 344.028 C 28.283 345.650,29.475 346.924,30.011 346.593 C 30.260 346.439,30.714 346.670,31.020 347.107 C 31.558 347.875,33.428 348.693,32.977 347.963 C 32.624 347.391,33.452 347.540,33.948 348.137 C 34.193 348.432,34.260 348.813,34.097 348.982 C 33.933 349.152,34.610 349.190,35.600 349.067 C 36.590 348.943,37.085 348.936,36.700 349.050 C 35.222 349.490,36.095 349.955,38.100 349.795 C 39.569 349.678,39.840 349.718,39.000 349.931 L 37.800 350.234 39.150 350.517 C 39.893 350.673,60.908 350.800,85.850 350.800 L 131.200 350.800 131.200 364.371 C 131.200 376.959,131.251 377.955,131.900 378.124 C 132.285 378.225,127.425 378.328,121.100 378.354 L 109.600 378.400 109.600 386.600 L 109.600 394.800 110.700 394.846 C 111.386 394.875,111.535 394.962,111.095 395.077 C 110.707 395.178,110.493 395.427,110.619 395.630 C 110.925 396.126,291.200 396.129,291.200 395.633 C 291.200 395.432,290.975 395.176,290.700 395.065 C 290.401 394.944,290.482 394.850,290.900 394.832 C 291.543 394.803,291.600 394.131,291.600 386.600 L 291.600 378.400 280.100 378.368 C 273.775 378.351,268.825 378.246,269.100 378.135 C 269.486 377.979,269.600 374.846,269.600 364.367 L 269.600 350.800 315.150 350.800 C 358.162 350.800,364.921 350.680,362.400 349.964 C 361.464 349.698,361.482 349.677,362.676 349.640 C 363.378 349.618,364.074 349.404,364.222 349.164 C 364.382 348.906,365.025 348.828,365.799 348.973 C 366.760 349.154,367.169 349.059,367.338 348.616 C 367.483 348.241,367.826 348.112,368.250 348.275 C 368.738 348.462,368.841 348.391,368.616 348.025 C 368.378 347.642,368.527 347.586,369.210 347.803 C 369.954 348.039,370.074 347.970,369.865 347.425 C 369.713 347.030,369.771 346.859,370.008 347.005 C 370.620 347.383,372.000 346.816,372.000 346.186 C 372.000 345.858,372.243 345.718,372.585 345.850 C 373.319 346.131,375.306 344.054,375.019 343.305 C 374.904 343.005,374.985 342.867,375.199 343.000 C 375.734 343.330,377.349 341.765,377.022 341.235 C 376.857 340.968,377.007 340.904,377.425 341.065 C 377.968 341.273,378.047 341.141,377.850 340.361 C 377.716 339.832,377.711 339.625,377.837 339.900 C 378.118 340.511,378.800 340.562,378.800 339.971 C 378.800 339.736,379.083 339.260,379.429 338.914 C 379.824 338.519,379.979 337.898,379.845 337.242 C 379.728 336.669,379.730 336.425,379.849 336.700 C 380.328 337.801,380.824 337.129,380.588 335.700 C 380.395 334.531,380.440 334.332,380.794 334.800 C 381.159 335.281,381.216 335.162,381.086 334.200 C 380.997 333.540,380.999 333.225,381.091 333.500 C 381.183 333.775,381.421 334.000,381.620 334.000 C 381.835 334.000,381.983 288.147,381.984 221.200 C 381.985 153.801,381.839 108.400,381.622 108.400 C 381.422 108.400,381.162 108.715,381.045 109.100 C 380.927 109.485,380.921 109.080,381.030 108.200 C 381.176 107.032,381.119 106.762,380.821 107.200 C 380.470 107.716,380.411 107.702,380.406 107.100 C 380.403 106.715,380.220 106.400,380.000 106.400 C 379.780 106.400,379.600 106.226,379.600 106.013 C 379.600 105.799,379.870 105.729,380.200 105.855 C 380.530 105.982,380.800 105.886,380.800 105.643 C 380.800 105.399,380.665 105.198,380.500 105.195 C 380.335 105.193,379.854 104.468,379.431 103.585 C 379.008 102.702,378.468 102.046,378.231 102.127 C 377.741 102.295,376.397 100.904,376.406 100.239 C 376.409 99.997,376.587 100.070,376.800 100.400 C 377.013 100.730,377.191 100.803,377.194 100.562 C 377.201 100.047,375.902 98.797,375.369 98.806 C 375.166 98.809,375.270 98.987,375.600 99.200 C 376.108 99.528,376.089 99.589,375.473 99.594 C 374.959 99.598,374.812 99.393,374.970 98.894 C 375.215 98.121,373.850 96.998,373.174 97.416 C 372.957 97.550,372.806 97.511,372.837 97.330 C 372.995 96.424,372.743 95.936,372.220 96.137 C 371.806 96.296,371.713 96.165,371.895 95.680 C 372.117 95.087,372.064 95.070,371.475 95.549 C 370.844 96.062,370.612 95.893,370.774 95.037 C 370.902 94.358,369.805 93.991,368.200 94.175 C 367.320 94.276,366.915 94.264,367.300 94.150 C 368.156 93.895,368.229 93.200,367.400 93.200 C 367.070 93.200,366.800 93.020,366.800 92.800 C 366.800 92.580,366.421 92.400,365.957 92.400 C 365.372 92.400,365.185 92.584,365.345 93.000 C 365.471 93.330,365.446 93.594,365.287 93.587 C 364.753 93.564,363.611 92.523,363.853 92.280 C 363.986 92.147,363.610 91.917,363.018 91.769 C 362.390 91.611,361.754 91.686,361.491 91.949 C 361.163 92.277,351.136 92.400,324.763 92.400 C 292.052 92.400,288.462 92.462,288.243 93.033 C 288.109 93.381,288.000 94.457,288.000 95.425 C 288.000 97.416,287.921 97.373,292.400 97.803 C 300.860 98.615,308.998 101.771,315.000 106.566 C 315.880 107.269,317.176 108.245,317.880 108.735 L 319.160 109.626 340.280 109.706 L 361.400 109.787 341.100 109.897 C 327.677 109.970,320.800 110.145,320.800 110.414 C 320.800 110.686,327.617 110.784,341.362 110.711 C 352.671 110.650,361.844 110.729,361.746 110.887 C 361.649 111.045,361.936 111.403,362.384 111.683 C 362.833 111.963,363.200 112.419,363.200 112.696 C 363.200 113.294,363.875 113.375,364.067 112.800 C 364.140 112.580,364.200 161.247,364.200 220.949 C 364.200 293.141,364.066 329.452,363.800 329.360 C 363.580 329.284,363.077 329.667,362.681 330.211 C 362.286 330.755,362.132 331.200,362.339 331.200 C 362.545 331.200,362.828 330.904,362.967 330.543 C 363.105 330.181,363.309 329.975,363.419 330.085 C 364.004 330.671,363.030 331.644,362.095 331.409 C 361.311 331.213,361.148 331.289,361.332 331.767 C 361.460 332.101,361.388 332.484,361.173 332.617 C 360.957 332.750,360.830 332.668,360.890 332.434 C 360.968 332.135,314.008 332.008,201.800 332.004 C 32.271 331.998,40.430 332.102,38.593 329.918 C 37.833 329.016,37.446 328.802,37.224 329.161 C 36.431 330.445,35.865 117.976,36.651 114.044 C 36.883 112.883,36.946 112.841,37.470 113.494 C 37.980 114.129,38.016 114.059,37.820 112.800 C 37.662 111.783,37.700 111.619,37.958 112.200 C 38.285 112.935,38.337 112.944,38.600 112.300 C 38.757 111.915,39.136 111.600,39.443 111.600 C 39.749 111.600,40.000 111.420,40.000 111.200 C 40.000 110.938,47.867 110.800,62.800 110.800 C 77.733 110.800,85.600 110.662,85.600 110.400 C 85.600 110.139,77.771 109.967,63.100 109.906 L 40.600 109.813 63.757 109.606 L 86.914 109.400 87.957 108.026 C 92.896 101.518,99.530 96.857,107.696 94.156 C 109.619 93.520,111.194 92.867,111.196 92.704 C 111.198 92.542,95.315 92.352,75.900 92.284 C 56.485 92.215,40.150 92.040,39.600 91.894 C 39.050 91.748,38.272 91.764,37.870 91.930 M365.100 275.100 C 365.043 304.745,364.997 280.490,364.997 221.200 C 364.997 161.910,365.043 137.655,365.100 167.300 C 365.157 196.945,365.157 245.455,365.100 275.100 M63.200 129.573 C 63.200 129.779,63.605 130.026,64.100 130.123 C 64.595 130.221,64.221 130.234,63.269 130.153 C 61.486 130.002,58.757 131.475,58.832 132.547 C 58.852 132.834,58.937 132.817,59.065 132.500 C 59.176 132.225,59.513 132.000,59.814 132.000 C 60.114 132.000,59.739 132.603,58.980 133.340 C 58.217 134.081,57.582 135.110,57.560 135.640 L 57.520 136.600 57.260 135.676 C 57.117 135.168,57.000 173.536,57.000 220.938 C 57.000 268.340,57.132 306.916,57.294 306.662 C 57.483 306.364,57.590 306.448,57.594 306.900 C 57.597 307.285,57.780 307.600,58.000 307.600 C 58.220 307.600,58.400 307.774,58.400 307.987 C 58.400 308.201,58.085 308.256,57.700 308.110 C 57.034 307.858,57.034 307.879,57.697 308.548 C 58.080 308.935,58.603 309.122,58.859 308.964 C 59.155 308.780,59.215 308.851,59.025 309.160 C 58.844 309.452,59.241 310.135,60.033 310.892 C 60.752 311.579,61.224 311.839,61.082 311.470 C 60.941 311.102,60.996 310.800,61.205 310.800 C 61.414 310.800,61.696 311.242,61.831 311.782 C 62.045 312.634,62.241 312.732,63.301 312.520 C 64.155 312.349,64.440 312.411,64.246 312.726 C 64.079 312.995,64.336 313.265,64.884 313.397 C 66.391 313.761,337.411 313.429,337.273 313.064 C 337.084 312.561,338.485 311.623,339.400 311.641 L 340.200 311.656 339.400 312.000 C 338.700 312.301,338.689 312.347,339.313 312.372 C 339.704 312.387,340.140 312.085,340.281 311.700 C 340.527 311.027,342.800 308.584,342.800 308.993 C 342.800 309.102,343.160 308.884,343.600 308.507 C 344.040 308.130,344.397 307.637,344.394 307.411 C 344.391 307.185,344.213 307.270,344.000 307.600 C 343.669 308.113,343.611 308.098,343.606 307.500 C 343.603 307.115,343.779 306.800,343.998 306.800 C 344.261 306.800,344.431 277.536,344.498 220.800 C 344.582 149.869,344.508 134.800,344.073 134.800 C 343.716 134.800,343.634 134.523,343.819 133.939 C 344.039 133.247,343.962 133.129,343.425 133.335 C 343.059 133.476,342.859 133.428,342.982 133.229 C 343.337 132.654,341.238 130.410,340.581 130.663 C 340.261 130.785,340.000 130.717,340.000 130.510 C 340.000 130.304,339.055 130.138,337.900 130.142 C 336.745 130.145,334.866 130.001,333.724 129.821 C 330.730 129.350,330.195 129.963,330.823 133.154 C 331.719 137.708,331.136 144.083,329.465 148.000 C 328.667 149.870,327.895 152.030,327.749 152.800 C 327.604 153.570,327.327 154.303,327.134 154.429 C 326.935 154.559,326.788 184.882,326.796 224.529 L 326.809 294.400 200.404 294.400 L 74.000 294.400 74.000 221.200 L 74.000 148.000 77.424 148.000 C 81.991 148.000,81.507 147.225,76.876 147.124 L 73.400 147.049 76.996 146.824 C 81.251 146.559,81.230 146.591,80.027 142.206 C 79.433 140.042,79.200 137.999,79.200 134.967 C 79.200 129.382,79.573 129.650,71.840 129.678 C 68.390 129.690,65.454 129.588,65.317 129.450 C 64.924 129.057,63.200 129.158,63.200 129.573 M336.400 129.600 C 336.400 129.820,336.951 130.000,337.624 130.000 C 338.337 130.000,338.744 129.833,338.600 129.600 C 338.464 129.380,337.913 129.200,337.376 129.200 C 336.839 129.200,336.400 129.380,336.400 129.600 M56.000 221.000 C 56.000 276.867,56.135 305.200,56.400 305.200 C 56.665 305.200,56.800 276.867,56.800 221.000 C 56.800 165.133,56.665 136.800,56.400 136.800 C 56.135 136.800,56.000 165.133,56.000 221.000 M327.500 259.668 C 327.443 278.881,327.396 263.280,327.396 225.000 C 327.396 186.720,327.443 171.001,327.500 190.068 C 327.557 209.136,327.557 240.456,327.500 259.668 M19.467 331.467 C 19.052 331.882,19.153 333.200,19.600 333.200 C 19.820 333.200,20.000 332.750,20.000 332.200 C 20.000 331.153,19.908 331.026,19.467 331.467 M280.100 332.700 C 236.485 332.756,165.115 332.756,121.500 332.700 C 77.885 332.644,113.570 332.598,200.800 332.598 C 288.030 332.598,323.715 332.644,280.100 332.700 M364.800 349.600 C 364.800 349.820,365.070 350.000,365.400 350.000 C 365.730 350.000,366.000 349.820,366.000 349.600 C 366.000 349.380,365.730 349.200,365.400 349.200 C 365.070 349.200,364.800 349.380,364.800 349.600 M149.626 377.925 C 149.903 377.832,150.031 373.297,150.011 364.293 L 149.980 350.800 200.590 350.800 L 251.200 350.800 251.200 364.176 C 251.200 372.545,251.348 377.644,251.595 377.797 C 251.851 377.955,252.028 373.149,252.100 364.120 L 252.211 350.200 252.305 364.300 L 252.400 378.400 200.600 378.400 L 148.800 378.400 148.895 363.900 L 148.990 349.400 149.100 363.732 C 149.174 373.420,149.345 378.018,149.626 377.925 M292.000 386.400 C 292.000 391.200,292.147 394.000,292.400 394.000 C 292.653 394.000,292.800 391.200,292.800 386.400 C 292.800 381.600,292.653 378.800,292.400 378.800 C 292.147 378.800,292.000 381.600,292.000 386.400 M108.967 386.600 C 108.967 390.780,109.026 392.436,109.098 390.279 C 109.171 388.123,109.170 384.703,109.098 382.679 C 109.025 380.656,108.966 382.420,108.967 386.600 " stroke="none" fill="#04040a" fill-rule="evenodd"></path><path id="path3" d="M111.142 92.681 C 111.064 92.864,109.470 93.533,107.600 94.169 C 101.539 96.231,96.349 99.269,92.288 103.135 C 89.812 105.491,87.277 108.800,87.948 108.800 C 88.161 108.800,88.700 108.215,89.146 107.500 C 92.253 102.519,100.852 96.754,108.720 94.378 C 110.654 93.794,111.928 92.995,111.541 92.608 C 111.399 92.466,111.220 92.499,111.142 92.681 M287.700 92.998 C 286.373 94.505,287.543 98.000,289.374 98.000 C 297.159 98.000,307.208 101.463,313.838 106.429 C 315.577 107.732,317.171 108.799,317.380 108.799 C 317.818 108.800,317.722 108.708,315.200 106.712 C 308.905 101.730,300.957 98.625,292.400 97.803 C 287.664 97.348,287.882 97.501,288.079 94.781 C 288.174 93.471,288.240 92.407,288.226 92.415 C 288.211 92.424,287.975 92.686,287.700 92.998 M80.432 118.651 C 80.414 118.899,80.632 119.295,80.916 119.531 C 81.310 119.857,81.449 119.751,81.499 119.085 C 81.545 118.466,81.467 118.368,81.231 118.750 C 80.951 119.203,80.862 119.202,80.680 118.745 C 80.561 118.445,80.449 118.403,80.432 118.651 M79.271 134.696 C 79.216 138.183,79.387 139.874,80.036 142.237 C 80.495 143.913,80.782 145.625,80.673 146.042 C 80.564 146.459,80.619 146.800,80.795 146.800 C 81.392 146.800,81.616 145.502,81.235 144.248 C 81.027 143.562,80.637 142.280,80.370 141.400 C 80.103 140.520,79.762 137.640,79.613 135.000 L 79.342 130.200 79.271 134.696 M330.200 137.838 C 330.200 145.269,330.181 145.439,329.100 147.674 C 328.495 148.925,328.003 150.275,328.007 150.674 C 328.011 151.073,328.669 149.870,329.469 148.000 C 331.154 144.064,331.733 136.787,330.709 132.438 C 330.239 130.440,330.200 130.850,330.200 137.838 M158.100 166.699 C 161.125 166.767,166.075 166.767,169.100 166.699 C 172.125 166.631,169.650 166.575,163.600 166.575 C 157.550 166.575,155.075 166.631,158.100 166.699 M196.927 166.700 C 201.507 166.764,208.887 166.764,213.327 166.699 C 217.767 166.635,214.020 166.583,205.000 166.583 C 195.980 166.583,192.347 166.635,196.927 166.700 M241.900 166.699 C 245.035 166.767,250.165 166.767,253.300 166.699 C 256.435 166.632,253.870 166.576,247.600 166.576 C 241.330 166.576,238.765 166.632,241.900 166.699 M158.100 167.499 C 161.125 167.567,166.075 167.567,169.100 167.499 C 172.125 167.431,169.650 167.375,163.600 167.375 C 157.550 167.375,155.075 167.431,158.100 167.499 M196.927 167.500 C 201.507 167.564,208.887 167.564,213.327 167.499 C 217.767 167.435,214.020 167.383,205.000 167.383 C 195.980 167.383,192.347 167.435,196.927 167.500 M241.900 167.499 C 245.035 167.567,250.165 167.567,253.300 167.499 C 256.435 167.432,253.870 167.376,247.600 167.376 C 241.330 167.376,238.765 167.432,241.900 167.499 M187.790 198.800 C 187.790 216.070,187.840 223.135,187.900 214.500 C 187.960 205.865,187.960 191.735,187.900 183.100 C 187.840 174.465,187.790 181.530,187.790 198.800 M114.598 182.803 C 114.320 183.252,115.492 183.842,115.884 183.449 C 116.021 183.312,115.788 183.182,115.367 183.160 C 114.770 183.129,114.821 183.049,115.600 182.800 C 116.531 182.502,116.539 182.477,115.724 182.440 C 115.242 182.418,114.735 182.581,114.598 182.803 M300.598 182.803 C 300.320 183.252,301.492 183.842,301.884 183.449 C 302.021 183.312,301.788 183.182,301.367 183.160 C 300.770 183.129,300.821 183.049,301.600 182.800 C 302.531 182.502,302.539 182.477,301.724 182.440 C 301.242 182.418,300.735 182.581,300.598 182.803 M307.400 184.749 L 308.200 185.092 307.400 185.323 L 306.600 185.554 307.400 185.472 C 308.378 185.371,308.319 184.637,307.321 184.503 C 306.728 184.424,306.742 184.467,307.400 184.749 M285.606 186.994 C 284.863 187.761,284.377 188.511,284.527 188.661 C 284.677 188.811,284.800 188.713,284.800 188.443 C 284.800 188.173,284.984 188.067,285.210 188.206 C 285.435 188.345,285.570 188.221,285.510 187.930 C 285.449 187.638,285.638 187.449,285.930 187.510 C 286.250 187.576,286.343 187.431,286.164 187.142 C 285.965 186.819,286.078 186.744,286.514 186.912 C 286.989 187.094,287.094 186.989,286.912 186.514 C 286.733 186.050,286.813 185.961,287.194 186.196 C 287.546 186.414,287.628 186.369,287.438 186.062 C 287.060 185.449,287.145 185.406,285.606 186.994 M116.423 199.028 C 116.680 199.338,117.062 199.485,117.272 199.356 C 117.738 199.068,117.392 198.675,116.566 198.554 C 116.084 198.483,116.054 198.583,116.423 199.028 M291.693 202.400 C 291.693 203.170,291.775 203.485,291.876 203.100 C 291.976 202.715,291.976 202.085,291.876 201.700 C 291.775 201.315,291.693 201.630,291.693 202.400 M300.000 207.755 C 300.000 207.840,300.530 207.987,301.179 208.082 C 301.827 208.177,302.267 208.108,302.155 207.928 C 301.957 207.607,300.000 207.450,300.000 207.755 M280.640 210.735 C 280.513 210.941,280.661 211.318,280.969 211.574 C 281.300 211.849,281.623 211.886,281.760 211.665 C 281.887 211.459,281.739 211.082,281.431 210.826 C 281.100 210.551,280.777 210.514,280.640 210.735 M174.472 227.369 C 174.429 228.544,174.124 229.672,173.715 230.169 L 173.030 231.000 173.939 230.164 C 174.702 229.464,174.824 229.010,174.697 227.364 L 174.544 225.400 174.472 227.369 M175.320 227.600 C 175.320 228.810,175.395 229.305,175.487 228.700 C 175.578 228.095,175.578 227.105,175.487 226.500 C 175.395 225.895,175.320 226.390,175.320 227.600 M198.283 240.273 C 198.456 240.722,198.586 240.747,198.815 240.375 C 199.031 240.026,199.182 240.103,199.337 240.642 C 199.548 241.380,199.552 241.380,199.477 240.638 C 199.435 240.219,199.097 239.831,198.728 239.777 C 198.278 239.712,198.131 239.876,198.283 240.273 M228.300 243.482 C 228.795 243.578,229.605 243.578,230.100 243.482 C 230.595 243.387,230.190 243.309,229.200 243.309 C 228.210 243.309,227.805 243.387,228.300 243.482 M186.034 245.484 C 186.885 246.708,187.636 246.900,187.568 245.876 C 187.545 245.521,187.487 245.524,187.339 245.888 C 187.210 246.206,186.793 245.997,186.141 245.288 L 185.142 244.200 186.034 245.484 M200.519 246.400 C 200.615 247.587,201.383 247.753,201.439 246.600 L 201.479 245.800 201.278 246.600 C 201.095 247.330,201.050 247.312,200.758 246.400 L 200.439 245.400 200.519 246.400 M208.534 249.200 C 208.534 250.850,208.605 251.525,208.691 250.700 C 208.778 249.875,208.778 248.525,208.691 247.700 C 208.605 246.875,208.534 247.550,208.534 249.200 M209.334 249.200 C 209.334 250.850,209.405 251.525,209.491 250.700 C 209.578 249.875,209.578 248.525,209.491 247.700 C 209.405 246.875,209.334 247.550,209.334 249.200 M247.693 249.200 C 247.693 249.970,247.775 250.285,247.876 249.900 C 247.976 249.515,247.976 248.885,247.876 248.500 C 247.775 248.115,247.693 248.430,247.693 249.200 M232.435 254.158 C 232.058 254.612,232.067 254.719,232.478 254.659 C 233.030 254.578,233.387 254.053,233.090 253.757 C 232.993 253.660,232.698 253.841,232.435 254.158 " stroke="none" fill="#ac681d" fill-rule="evenodd"></path><path id="path4" d="M217.200 40.230 C 196.424 42.571,180.246 53.855,170.809 72.586 C 167.717 78.723,166.840 79.186,160.000 78.291 C 158.422 78.084,158.122 78.109,158.941 78.378 C 165.341 80.481,168.228 79.145,171.326 72.648 C 189.600 34.330,241.860 29.589,266.651 64.000 C 273.902 74.065,277.200 85.452,277.200 100.420 C 277.200 108.483,276.746 108.103,286.804 108.461 C 301.462 108.981,309.677 113.183,315.629 123.203 C 323.572 136.573,320.759 150.423,309.400 153.871 C 305.859 154.946,106.600 154.907,102.399 153.831 C 93.984 151.675,89.973 145.059,90.014 133.400 C 90.078 115.192,105.262 101.309,123.732 102.572 C 130.092 103.007,133.600 100.819,133.600 96.418 C 133.600 95.984,133.879 94.767,134.219 93.714 C 136.719 85.984,142.741 80.333,150.400 78.532 L 152.600 78.014 150.756 78.192 C 142.775 78.961,134.910 86.985,133.176 96.127 C 132.172 101.419,130.939 102.137,123.000 102.046 C 101.268 101.797,86.635 118.573,89.960 139.926 C 91.151 147.580,95.708 152.736,102.748 154.396 C 106.116 155.190,306.183 155.230,309.000 154.437 C 328.151 149.047,322.280 117.970,300.628 110.124 C 296.421 108.599,294.403 108.290,287.065 108.048 L 279.530 107.800 278.565 106.678 C 277.639 105.601,277.600 105.315,277.600 99.647 C 277.600 80.797,271.840 66.774,259.278 55.044 C 248.370 44.859,230.852 38.691,217.200 40.230 M153.900 77.889 C 154.615 77.978,155.785 77.978,156.500 77.889 C 157.215 77.801,156.630 77.728,155.200 77.728 C 153.770 77.728,153.185 77.801,153.900 77.889 " stroke="none" fill="#e4b98d" fill-rule="evenodd"></path></g></svg>