<svg id="svg" version="1.1" xmlns="http://www.w3.org/2000/svg" xmlns:xlink="http://www.w3.org/1999/xlink" width="400" height="400" viewBox="0, 0, 400,400"><g id="svgg"><path id="path0" d="M135.600 171.888 C 134.830 171.981,134.029 172.224,133.820 172.429 C 133.611 172.633,133.193 172.800,132.892 172.800 C 131.551 172.800,127.762 175.931,126.479 178.100 C 126.120 178.705,125.686 179.200,125.514 179.200 C 125.341 179.200,125.200 179.560,125.200 180.000 C 125.200 180.440,125.040 180.800,124.845 180.800 C 123.817 180.800,122.977 271.537,123.997 272.557 C 124.218 272.778,124.400 273.267,124.400 273.642 C 124.400 276.032,128.582 280.848,132.200 282.623 L 134.600 283.800 200.200 283.800 L 265.800 283.800 267.733 282.840 C 270.446 281.494,273.674 278.414,274.764 276.133 C 275.272 275.070,275.848 273.887,276.044 273.505 C 276.246 273.111,276.397 253.473,276.394 228.105 C 276.388 181.420,276.412 182.109,274.700 179.496 C 274.315 178.909,274.000 178.299,274.000 178.141 C 274.000 177.413,269.815 173.933,267.726 172.923 L 265.400 171.800 201.200 171.760 C 165.890 171.738,136.370 171.796,135.600 171.888 " stroke="none" fill="#435a6a" fill-rule="evenodd"></path><path id="path1" d="M196.465 2.400 C 195.120 3.720,193.898 4.800,193.750 4.800 C 193.601 4.800,192.723 5.601,191.798 6.581 C 190.873 7.560,189.872 8.415,189.573 8.481 C 188.754 8.661,188.057 9.355,188.298 9.752 C 188.415 9.945,188.262 10.021,187.957 9.919 C 187.652 9.817,186.777 10.379,186.011 11.167 C 185.246 11.955,184.525 12.571,184.410 12.535 C 184.294 12.499,183.591 12.989,182.847 13.625 C 182.102 14.261,181.309 14.668,181.085 14.529 C 180.860 14.390,180.788 14.457,180.925 14.678 C 181.061 14.899,180.684 15.332,180.086 15.640 C 179.489 15.948,178.765 16.515,178.477 16.900 C 178.190 17.285,177.695 17.600,177.377 17.600 C 177.060 17.600,176.800 17.780,176.800 18.000 C 176.800 18.220,176.570 18.400,176.288 18.400 C 176.007 18.400,175.517 18.760,175.200 19.200 C 174.883 19.640,174.385 20.000,174.094 20.000 C 173.802 20.000,173.110 20.453,172.556 21.008 C 172.002 21.562,171.352 21.894,171.112 21.746 C 170.851 21.585,170.791 21.662,170.962 21.938 C 171.131 22.212,170.993 22.400,170.624 22.400 C 170.281 22.400,170.000 22.580,170.000 22.800 C 170.000 23.020,169.640 23.200,169.200 23.200 C 168.760 23.200,168.400 23.359,168.400 23.553 C 168.400 23.748,168.085 24.011,167.700 24.138 C 167.315 24.265,165.920 25.017,164.600 25.807 C 163.280 26.598,161.885 27.346,161.500 27.469 C 161.115 27.592,160.800 27.852,160.800 28.047 C 160.800 28.241,160.506 28.400,160.147 28.400 C 159.788 28.400,159.158 28.788,158.747 29.261 C 158.336 29.735,158.000 29.983,158.000 29.812 C 158.000 29.642,157.726 29.730,157.390 30.008 C 157.055 30.286,156.668 30.402,156.531 30.264 C 156.394 30.127,155.993 30.326,155.641 30.707 C 155.288 31.088,154.730 31.458,154.400 31.530 C 154.070 31.601,153.740 31.826,153.667 32.030 C 153.593 32.233,153.203 32.400,152.800 32.400 C 152.397 32.400,152.007 32.535,151.933 32.700 C 151.792 33.019,149.604 34.098,146.000 35.627 C 144.790 36.141,143.485 36.823,143.100 37.142 C 142.715 37.462,142.397 37.561,142.394 37.362 C 142.391 37.163,142.256 37.180,142.094 37.400 C 141.620 38.045,140.075 38.800,139.229 38.800 C 138.799 38.800,138.336 38.980,138.200 39.200 C 138.064 39.420,137.603 39.600,137.176 39.600 C 136.749 39.600,136.400 39.780,136.400 40.000 C 136.400 40.220,136.038 40.400,135.595 40.400 C 135.152 40.400,134.477 40.559,134.095 40.753 C 133.713 40.948,132.950 41.284,132.400 41.500 C 131.850 41.716,130.950 42.081,130.400 42.310 C 129.487 42.691,128.097 43.231,127.600 43.398 C 127.490 43.435,126.860 43.596,126.200 43.757 C 125.540 43.917,124.687 44.217,124.305 44.424 C 123.923 44.631,123.338 44.800,123.005 44.800 C 122.672 44.800,122.400 44.980,122.400 45.200 C 122.400 45.420,121.995 45.605,121.500 45.610 C 120.530 45.621,115.384 47.283,114.938 47.729 C 114.789 47.878,114.056 48.000,113.310 48.000 C 112.563 48.000,112.052 48.160,112.173 48.357 C 112.294 48.553,111.720 48.828,110.897 48.968 C 107.247 49.590,106.800 49.708,106.800 50.044 C 106.800 50.240,106.206 50.400,105.480 50.400 C 104.754 50.400,103.983 50.577,103.767 50.793 C 103.550 51.010,102.722 51.235,101.926 51.293 C 101.129 51.352,100.561 51.535,100.663 51.700 C 100.764 51.865,100.042 52.000,99.057 52.000 C 98.072 52.000,97.207 52.171,97.133 52.380 C 97.060 52.589,96.223 52.805,95.274 52.860 C 94.325 52.915,93.460 53.104,93.351 53.280 C 93.242 53.456,92.443 53.600,91.576 53.600 C 90.709 53.600,90.000 53.780,90.000 54.000 C 90.000 54.220,89.010 54.400,87.800 54.400 C 86.590 54.400,85.600 54.580,85.600 54.800 C 85.600 55.020,84.621 55.200,83.424 55.200 C 82.227 55.200,81.136 55.380,81.000 55.600 C 80.864 55.820,79.694 56.000,78.400 56.000 C 77.106 56.000,75.936 56.180,75.800 56.400 C 75.664 56.620,74.213 56.800,72.576 56.800 C 70.859 56.800,69.600 56.969,69.600 57.200 C 69.600 57.440,68.011 57.600,65.633 57.600 C 63.452 57.600,61.607 57.769,61.533 57.976 C 61.460 58.183,58.083 58.428,54.000 58.521 C 35.712 58.942,30.800 58.980,30.800 58.700 C 30.800 58.535,28.211 58.400,25.047 58.400 L 19.294 58.400 19.229 62.480 C 19.194 64.724,19.012 66.749,18.825 66.980 C 18.638 67.211,18.456 71.090,18.421 75.600 C 18.386 80.127,18.188 83.970,17.979 84.180 C 17.398 84.763,17.502 86.106,18.100 85.747 C 18.491 85.512,18.489 85.583,18.093 86.073 C 17.374 86.960,18.083 116.589,19.192 132.000 C 19.421 135.190,19.709 139.555,19.831 141.700 C 19.953 143.845,20.221 145.600,20.427 145.600 C 20.632 145.600,20.800 147.119,20.800 148.976 C 20.800 150.833,20.980 152.464,21.200 152.600 C 21.420 152.736,21.600 154.266,21.600 156.000 C 21.600 157.734,21.780 159.264,22.000 159.400 C 22.220 159.536,22.400 160.897,22.400 162.424 C 22.400 164.008,22.572 165.200,22.800 165.200 C 23.026 165.200,23.200 166.341,23.200 167.824 C 23.200 169.471,23.349 170.355,23.600 170.200 C 23.851 170.045,24.000 170.929,24.000 172.576 C 24.000 174.059,24.174 175.200,24.400 175.200 C 24.622 175.200,24.800 176.267,24.800 177.600 C 24.800 178.920,24.954 180.000,25.142 180.000 C 25.331 180.000,25.457 180.675,25.423 181.500 C 25.388 182.325,25.509 183.312,25.691 183.694 C 25.873 184.076,26.085 185.238,26.163 186.278 C 26.241 187.318,26.480 188.227,26.694 188.298 C 26.908 188.369,26.999 188.873,26.895 189.416 C 26.791 189.960,26.904 190.644,27.147 190.936 C 27.390 191.229,27.621 192.315,27.660 193.351 C 27.699 194.386,27.882 195.327,28.065 195.440 C 28.249 195.554,28.400 196.141,28.400 196.744 C 28.400 197.347,28.563 198.011,28.761 198.220 C 28.960 198.429,29.210 199.410,29.317 200.400 C 29.424 201.390,29.730 202.920,29.997 203.800 C 30.264 204.680,30.572 206.076,30.683 206.903 C 30.794 207.729,31.045 208.505,31.242 208.626 C 31.439 208.748,31.600 209.557,31.600 210.424 C 31.600 211.291,31.780 212.000,32.000 212.000 C 32.220 212.000,32.400 212.731,32.400 213.624 C 32.400 214.604,32.558 215.149,32.800 215.000 C 33.038 214.853,33.200 215.329,33.200 216.176 C 33.200 216.959,33.380 217.600,33.600 217.600 C 33.820 217.600,34.000 218.320,34.000 219.200 C 34.000 220.080,34.180 220.800,34.400 220.800 C 34.620 220.800,34.800 221.250,34.800 221.800 C 34.800 222.350,34.980 222.800,35.200 222.800 C 35.420 222.800,35.600 223.520,35.600 224.400 C 35.600 225.280,35.780 226.000,36.000 226.000 C 36.220 226.000,36.400 226.540,36.400 227.200 C 36.400 227.860,36.580 228.400,36.800 228.400 C 37.020 228.400,37.200 228.940,37.200 229.600 C 37.200 230.260,37.380 230.800,37.600 230.800 C 37.820 230.800,38.000 231.325,38.000 231.967 C 38.000 232.608,38.178 233.193,38.397 233.267 C 38.615 233.340,38.834 233.895,38.884 234.500 C 38.934 235.105,39.115 235.600,39.287 235.600 C 39.459 235.600,39.600 236.140,39.600 236.800 C 39.600 237.460,39.780 238.000,40.000 238.000 C 40.220 238.000,40.400 238.551,40.400 239.224 C 40.400 239.937,40.567 240.344,40.800 240.200 C 41.020 240.064,41.222 240.323,41.250 240.776 C 41.315 241.840,41.418 242.185,42.438 244.730 C 42.643 245.241,42.717 245.811,42.603 245.996 C 42.488 246.181,42.578 246.393,42.801 246.467 C 43.025 246.542,43.294 247.051,43.400 247.600 C 43.506 248.149,43.764 248.655,43.974 248.725 C 44.183 248.794,44.255 249.111,44.134 249.429 C 44.012 249.746,44.209 250.460,44.573 251.014 C 44.936 251.569,45.125 252.198,44.993 252.411 C 44.861 252.625,44.943 252.800,45.176 252.800 C 45.409 252.800,45.600 253.145,45.600 253.567 C 45.600 253.988,45.788 254.396,46.018 254.473 C 46.248 254.549,46.466 255.014,46.503 255.506 C 46.540 255.998,46.712 256.400,46.885 256.400 C 47.058 256.400,47.200 256.745,47.200 257.167 C 47.200 257.588,47.375 257.993,47.588 258.067 C 47.802 258.140,48.037 258.600,48.111 259.090 C 48.185 259.579,48.371 260.104,48.523 260.256 C 48.675 260.409,48.800 260.874,48.800 261.290 C 48.800 261.707,48.980 261.936,49.200 261.800 C 49.426 261.661,49.600 261.985,49.600 262.543 C 49.600 263.088,49.763 263.593,49.962 263.667 C 50.161 263.740,50.386 264.250,50.462 264.800 C 50.538 265.350,50.690 265.890,50.800 266.000 C 51.286 266.486,52.000 268.044,52.000 268.618 C 52.000 268.964,52.180 269.136,52.400 269.000 C 52.620 268.864,52.806 269.078,52.813 269.476 C 52.820 269.874,53.084 270.542,53.400 270.959 C 53.716 271.376,53.880 271.871,53.764 272.059 C 53.648 272.247,53.743 272.400,53.976 272.400 C 54.209 272.400,54.400 272.670,54.400 273.000 C 54.400 273.330,54.580 273.600,54.800 273.600 C 55.020 273.600,55.200 273.960,55.200 274.400 C 55.200 274.840,55.380 275.200,55.600 275.200 C 55.820 275.200,56.000 275.560,56.000 276.000 C 56.000 276.440,56.180 276.800,56.400 276.800 C 56.620 276.800,56.800 277.160,56.800 277.600 C 56.800 278.040,56.980 278.400,57.200 278.400 C 57.420 278.400,57.600 278.760,57.600 279.200 C 57.600 279.640,57.780 280.000,58.000 280.000 C 58.220 280.000,58.400 280.303,58.400 280.674 C 58.400 281.471,61.156 286.940,61.655 287.133 C 61.845 287.207,62.000 287.522,62.000 287.833 C 62.000 288.145,62.180 288.400,62.400 288.400 C 62.620 288.400,62.800 288.760,62.800 289.200 C 62.800 289.640,62.980 290.000,63.200 290.000 C 63.420 290.000,63.600 290.360,63.600 290.800 C 63.600 291.240,63.780 291.600,64.000 291.600 C 64.220 291.600,64.400 291.836,64.400 292.125 C 64.400 292.413,64.760 293.036,65.200 293.508 C 65.640 293.980,66.000 294.644,66.000 294.983 C 66.000 295.322,66.180 295.600,66.400 295.600 C 66.620 295.600,66.800 295.870,66.800 296.200 C 66.800 296.530,66.980 296.800,67.200 296.800 C 67.420 296.800,67.600 297.070,67.600 297.400 C 67.600 297.730,67.780 298.000,68.000 298.000 C 68.220 298.000,68.400 298.236,68.400 298.525 C 68.400 298.813,68.760 299.436,69.200 299.908 C 69.640 300.380,70.000 301.044,70.000 301.383 C 70.000 301.722,70.180 302.000,70.400 302.000 C 70.620 302.000,70.800 302.270,70.800 302.600 C 70.800 302.930,70.980 303.200,71.200 303.200 C 71.420 303.200,71.600 303.451,71.600 303.757 C 71.600 304.064,71.896 304.428,72.257 304.567 C 72.619 304.705,72.810 304.924,72.681 305.052 C 72.553 305.180,72.797 305.660,73.224 306.118 C 73.651 306.576,74.000 307.187,74.000 307.475 C 74.000 307.764,74.183 308.000,74.406 308.000 C 74.975 308.000,76.410 310.460,76.117 310.934 C 75.984 311.150,76.082 311.196,76.338 311.038 C 76.612 310.869,76.800 311.007,76.800 311.376 C 76.800 311.719,76.980 312.000,77.200 312.000 C 77.420 312.000,77.600 312.248,77.600 312.551 C 77.600 312.853,78.320 313.866,79.200 314.800 C 80.080 315.734,80.800 316.732,80.800 317.016 C 80.800 317.301,80.935 317.593,81.100 317.667 C 81.356 317.780,82.086 318.674,84.589 321.935 C 84.815 322.230,85.495 322.989,86.100 323.622 C 86.705 324.255,87.200 324.943,87.200 325.152 C 87.200 325.360,88.275 326.622,89.588 327.956 C 90.901 329.290,92.447 331.093,93.023 331.963 C 93.899 333.286,99.200 339.032,99.200 338.657 C 99.200 338.592,100.190 339.505,101.400 340.686 C 102.610 341.867,103.600 343.006,103.600 343.217 C 103.600 343.428,103.776 343.600,103.991 343.600 C 104.207 343.600,105.388 344.635,106.617 345.900 C 111.398 350.823,113.410 352.793,113.659 352.796 C 113.802 352.798,114.813 353.676,115.906 354.746 C 116.999 355.816,118.500 357.031,119.241 357.446 C 119.982 357.861,121.273 358.875,122.110 359.700 C 122.946 360.525,123.812 361.200,124.034 361.200 C 124.255 361.200,124.851 361.605,125.358 362.100 C 126.628 363.340,128.388 364.722,129.700 365.511 C 130.305 365.875,130.800 366.314,130.800 366.486 C 130.800 366.659,130.999 366.800,131.242 366.800 C 131.485 366.800,132.180 367.205,132.787 367.700 C 133.393 368.195,134.299 368.870,134.800 369.200 C 135.300 369.530,136.099 370.160,136.573 370.600 C 137.048 371.040,137.672 371.451,137.961 371.514 C 138.250 371.577,138.764 371.907,139.105 372.248 C 139.762 372.905,141.597 373.773,142.100 373.665 C 142.265 373.629,142.400 373.758,142.400 373.951 C 142.400 374.145,142.940 374.527,143.600 374.800 C 144.260 375.073,144.800 375.455,144.800 375.649 C 144.800 375.842,145.094 376.000,145.453 376.000 C 145.812 376.000,146.397 376.315,146.753 376.700 C 147.109 377.085,147.670 377.459,148.000 377.530 C 148.330 377.602,148.660 377.827,148.733 378.030 C 148.807 378.234,149.132 378.400,149.457 378.400 C 149.782 378.400,149.936 378.580,149.800 378.800 C 149.664 379.020,149.923 379.200,150.376 379.200 C 150.829 379.200,151.200 379.380,151.200 379.600 C 151.200 379.820,151.478 380.000,151.817 380.000 C 152.156 380.000,152.820 380.360,153.292 380.800 C 153.764 381.240,154.387 381.600,154.675 381.600 C 154.964 381.600,155.200 381.750,155.200 381.933 C 155.200 382.117,155.425 382.278,155.700 382.292 C 156.612 382.338,161.553 385.113,161.274 385.423 C 161.123 385.591,161.309 385.617,161.687 385.481 C 162.065 385.346,162.478 385.402,162.604 385.607 C 162.731 385.811,163.501 386.289,164.317 386.668 C 165.133 387.048,165.917 387.529,166.060 387.737 C 166.202 387.946,166.594 388.011,166.930 387.882 C 167.267 387.753,167.757 387.907,168.020 388.224 C 168.283 388.541,168.847 388.800,169.273 388.800 C 169.762 388.800,169.941 388.972,169.758 389.268 C 169.566 389.578,169.683 389.654,170.105 389.492 C 170.455 389.357,170.957 389.507,171.220 389.824 C 171.483 390.141,172.115 390.400,172.625 390.400 C 173.135 390.400,173.655 390.566,173.781 390.769 C 173.906 390.972,174.547 391.257,175.205 391.401 C 175.862 391.545,176.400 391.829,176.400 392.032 C 176.400 392.234,176.951 392.400,177.624 392.400 C 178.337 392.400,178.744 392.567,178.600 392.800 C 178.464 393.020,178.723 393.200,179.176 393.200 C 179.629 393.200,180.000 393.380,180.000 393.600 C 180.000 393.820,180.551 394.000,181.224 394.000 C 181.937 394.000,182.344 394.167,182.200 394.400 C 182.060 394.627,182.396 394.800,182.976 394.800 C 183.539 394.800,184.000 394.980,184.000 395.200 C 184.000 395.420,184.429 395.600,184.954 395.600 C 185.479 395.600,186.411 395.861,187.026 396.180 C 187.640 396.498,188.291 396.668,188.471 396.556 C 188.652 396.444,188.800 396.543,188.800 396.776 C 188.800 397.009,189.160 397.200,189.600 397.200 C 190.040 397.200,190.400 397.380,190.400 397.600 C 190.400 397.820,190.839 398.000,191.376 398.000 C 191.913 398.000,192.464 398.180,192.600 398.400 C 192.736 398.620,193.362 398.800,193.990 398.800 C 194.619 398.800,195.208 399.025,195.300 399.300 C 195.531 399.993,204.036 400.000,204.870 399.308 C 205.196 399.037,205.849 398.757,206.321 398.685 C 206.793 398.613,207.304 398.429,207.456 398.277 C 207.609 398.125,208.164 398.000,208.690 398.000 C 209.226 398.000,209.538 397.824,209.400 397.600 C 209.260 397.373,209.596 397.200,210.176 397.200 C 210.739 397.200,211.200 397.020,211.200 396.800 C 211.200 396.580,211.639 396.400,212.176 396.400 C 212.713 396.400,213.264 396.220,213.400 396.000 C 213.536 395.780,214.076 395.600,214.600 395.600 C 215.124 395.600,215.642 395.456,215.751 395.279 C 215.860 395.103,216.861 394.710,217.975 394.407 C 219.089 394.104,220.000 393.708,220.000 393.528 C 220.000 393.347,220.360 393.200,220.800 393.200 C 221.240 393.200,221.600 393.020,221.600 392.800 C 221.600 392.580,222.061 392.400,222.624 392.400 C 223.204 392.400,223.540 392.227,223.400 392.000 C 223.260 391.774,223.588 391.600,224.153 391.600 C 224.703 391.600,225.272 391.408,225.417 391.173 C 225.562 390.938,225.933 390.842,226.240 390.960 C 226.548 391.078,226.800 391.001,226.800 390.787 C 226.800 390.574,227.072 390.400,227.405 390.400 C 227.738 390.400,228.323 390.240,228.705 390.045 C 232.823 387.939,233.601 387.594,233.606 387.875 C 233.609 388.054,233.744 388.011,233.906 387.779 C 234.068 387.548,234.867 387.048,235.683 386.668 C 236.499 386.289,237.269 385.811,237.396 385.607 C 237.522 385.402,237.919 385.348,238.278 385.485 C 238.715 385.653,238.835 385.581,238.642 385.268 C 238.456 384.967,238.655 384.800,239.200 384.800 C 239.666 384.800,239.936 384.620,239.800 384.400 C 239.659 384.172,240.004 384.000,240.600 384.000 C 241.196 384.000,241.541 383.828,241.400 383.600 C 241.260 383.373,241.596 383.200,242.176 383.200 C 242.739 383.200,243.200 383.020,243.200 382.800 C 243.200 382.580,243.481 382.400,243.824 382.400 C 244.167 382.400,244.336 382.220,244.200 382.000 C 244.062 381.776,244.371 381.600,244.901 381.600 C 245.422 381.600,246.236 381.240,246.708 380.800 C 247.180 380.360,247.778 380.000,248.036 380.000 C 248.295 380.000,248.797 379.685,249.153 379.300 C 249.509 378.915,250.070 378.541,250.400 378.470 C 250.730 378.398,251.060 378.173,251.133 377.970 C 251.207 377.766,251.529 377.600,251.850 377.600 C 252.171 377.600,252.820 377.240,253.292 376.800 C 253.764 376.360,254.398 376.000,254.699 376.000 C 255.001 376.000,255.136 375.820,255.000 375.600 C 254.864 375.380,255.021 375.200,255.348 375.200 C 255.933 375.200,260.806 372.491,261.204 371.944 C 261.316 371.790,261.676 371.605,262.004 371.532 C 262.332 371.459,262.870 371.119,263.200 370.775 C 263.999 369.942,267.455 367.600,267.884 367.600 C 268.071 367.600,268.483 367.240,268.800 366.800 C 269.117 366.360,269.613 366.000,269.902 366.000 C 270.190 366.000,271.036 365.415,271.780 364.700 C 274.502 362.084,275.627 361.200,276.231 361.200 C 276.570 361.200,276.736 361.020,276.600 360.800 C 276.464 360.580,276.545 360.400,276.780 360.400 C 277.015 360.400,277.791 359.842,278.504 359.160 C 279.217 358.477,280.284 357.668,280.876 357.362 C 281.467 357.055,282.187 356.479,282.476 356.082 C 282.764 355.685,283.424 355.069,283.942 354.713 C 284.927 354.036,290.304 349.292,290.870 348.600 C 292.277 346.881,293.590 345.600,293.946 345.600 C 294.180 345.600,294.565 345.240,294.800 344.800 C 295.035 344.360,295.502 344.000,295.838 344.000 C 296.173 344.000,296.336 343.820,296.200 343.600 C 296.064 343.380,296.233 343.200,296.576 343.200 C 296.919 343.200,297.179 343.065,297.153 342.900 C 297.021 342.067,297.262 341.600,297.824 341.600 C 298.167 341.600,298.336 341.420,298.200 341.200 C 298.064 340.980,298.120 340.800,298.323 340.800 C 298.719 340.800,304.400 335.349,304.400 334.969 C 304.400 334.845,304.670 334.473,305.000 334.143 C 305.330 333.813,305.601 333.691,305.601 333.871 C 305.602 334.052,305.960 333.615,306.396 332.900 C 306.832 332.185,307.371 331.600,307.594 331.600 C 307.817 331.600,308.000 331.357,308.000 331.061 C 308.000 330.765,309.080 329.387,310.400 328.000 C 311.720 326.613,312.800 325.301,312.800 325.085 C 312.800 324.870,313.295 324.267,313.900 323.747 C 314.505 323.227,314.837 322.801,314.639 322.800 C 314.440 322.800,314.625 322.485,315.050 322.100 C 315.475 321.715,316.446 320.590,317.208 319.600 C 317.970 318.610,318.730 317.740,318.897 317.667 C 319.064 317.593,319.200 317.278,319.200 316.967 C 319.200 316.655,319.380 316.400,319.600 316.400 C 319.820 316.400,320.000 316.194,320.000 315.943 C 320.000 315.692,320.540 314.971,321.200 314.340 C 321.860 313.709,322.400 312.964,322.400 312.685 C 322.400 312.405,322.737 311.934,323.149 311.637 C 323.625 311.293,323.821 310.802,323.686 310.286 C 323.543 309.737,323.624 309.568,323.937 309.761 C 324.192 309.918,324.400 309.833,324.400 309.571 C 324.400 309.308,324.716 308.803,325.103 308.447 C 325.489 308.091,326.060 307.305,326.370 306.700 C 326.681 306.095,327.085 305.600,327.268 305.600 C 327.450 305.600,327.600 305.330,327.600 305.000 C 327.600 304.670,327.780 304.400,328.000 304.400 C 328.220 304.400,328.400 304.130,328.400 303.800 C 328.400 303.470,328.580 303.200,328.800 303.200 C 329.020 303.200,329.200 302.930,329.200 302.600 C 329.200 302.270,329.380 302.000,329.600 302.000 C 329.820 302.000,330.000 301.722,330.000 301.383 C 330.000 301.044,330.360 300.380,330.800 299.908 C 331.240 299.436,331.600 298.813,331.600 298.525 C 331.600 298.236,331.780 298.000,332.000 298.000 C 332.220 298.000,332.400 297.629,332.400 297.176 C 332.400 296.723,332.580 296.464,332.800 296.600 C 333.020 296.736,333.200 296.567,333.200 296.224 C 333.200 295.881,333.380 295.600,333.600 295.600 C 333.820 295.600,334.000 295.317,334.000 294.971 C 334.000 294.626,334.272 294.071,334.604 293.739 C 334.936 293.407,335.120 292.994,335.013 292.821 C 334.906 292.648,335.175 292.185,335.609 291.791 C 336.044 291.398,336.400 290.834,336.400 290.538 C 336.400 290.242,336.580 290.000,336.800 290.000 C 337.020 290.000,337.200 289.640,337.200 289.200 C 337.200 288.760,337.380 288.400,337.600 288.400 C 337.820 288.400,337.979 288.265,337.953 288.100 C 337.837 287.367,338.027 286.769,338.319 286.950 C 338.696 287.183,341.600 281.613,341.600 280.657 C 341.600 280.296,341.780 280.000,342.000 280.000 C 342.220 280.000,342.400 279.640,342.400 279.200 C 342.400 278.760,342.580 278.400,342.800 278.400 C 343.020 278.400,343.200 278.040,343.200 277.600 C 343.200 277.160,343.380 276.800,343.600 276.800 C 343.820 276.800,344.000 276.440,344.000 276.000 C 344.000 275.560,344.146 275.200,344.325 275.200 C 344.504 275.200,344.898 274.570,345.200 273.800 C 345.502 273.030,345.896 272.400,346.075 272.400 C 346.254 272.400,346.400 272.051,346.400 271.624 C 346.400 271.197,346.580 270.736,346.800 270.600 C 347.020 270.464,347.200 269.993,347.200 269.553 C 347.200 269.113,347.380 268.864,347.600 269.000 C 347.827 269.140,348.000 268.804,348.000 268.224 C 348.000 267.661,348.180 267.200,348.400 267.200 C 348.620 267.200,348.800 266.930,348.800 266.600 C 348.800 266.270,348.980 266.000,349.200 266.000 C 349.420 266.000,349.600 265.809,349.600 265.576 C 349.600 265.343,349.437 265.254,349.237 265.377 C 349.038 265.500,349.083 265.152,349.337 264.604 C 349.592 264.055,349.935 263.605,350.100 263.603 C 350.265 263.601,350.400 263.240,350.400 262.800 C 350.400 262.360,350.580 262.000,350.800 262.000 C 351.020 262.000,351.200 261.651,351.200 261.224 C 351.200 260.797,351.380 260.336,351.600 260.200 C 351.820 260.064,352.000 259.513,352.000 258.976 C 352.000 258.439,352.180 258.000,352.400 258.000 C 352.620 258.000,352.779 257.865,352.753 257.700 C 352.610 256.796,352.852 255.985,353.200 256.200 C 353.420 256.336,353.600 256.077,353.600 255.624 C 353.600 255.171,353.801 254.800,354.047 254.800 C 354.301 254.800,354.400 254.445,354.278 253.976 C 354.146 253.472,354.283 253.066,354.629 252.934 C 354.940 252.814,355.099 252.560,354.981 252.369 C 354.863 252.179,355.044 251.600,355.382 251.084 C 355.720 250.568,356.037 249.662,356.086 249.073 C 356.135 248.483,356.315 248.000,356.487 248.000 C 356.659 248.000,356.763 247.865,356.717 247.700 C 356.599 247.271,358.030 243.074,358.449 242.620 C 358.642 242.411,358.800 241.725,358.800 241.096 C 358.800 240.436,358.969 240.057,359.200 240.200 C 359.433 240.344,359.600 239.937,359.600 239.224 C 359.600 238.551,359.780 238.000,360.000 238.000 C 360.220 238.000,360.400 237.460,360.400 236.800 C 360.400 236.140,360.580 235.600,360.800 235.600 C 361.020 235.600,361.179 235.465,361.153 235.300 C 361.004 234.358,361.247 232.782,361.515 232.948 C 361.688 233.055,361.869 232.670,361.917 232.094 C 361.965 231.517,362.138 230.945,362.302 230.822 C 362.466 230.700,362.662 230.150,362.738 229.600 C 362.814 229.050,363.039 228.540,363.238 228.467 C 363.437 228.393,363.600 227.819,363.600 227.190 C 363.600 226.562,363.780 225.936,364.000 225.800 C 364.220 225.664,364.400 225.034,364.400 224.400 C 364.400 223.766,364.580 223.136,364.800 223.000 C 365.020 222.864,365.200 222.313,365.200 221.776 C 365.200 221.239,365.380 220.800,365.600 220.800 C 365.820 220.800,366.000 220.080,366.000 219.200 C 366.000 218.320,366.180 217.600,366.400 217.600 C 366.620 217.600,366.800 217.060,366.800 216.400 C 366.800 215.740,366.980 215.200,367.200 215.200 C 367.420 215.200,367.600 215.009,367.600 214.776 C 367.600 214.543,367.375 214.480,367.100 214.635 C 366.700 214.861,366.700 214.810,367.100 214.379 C 367.375 214.082,367.600 213.325,367.600 212.696 C 367.600 212.036,367.769 211.657,368.000 211.800 C 368.241 211.949,368.400 211.412,368.400 210.447 C 368.400 209.567,368.561 208.748,368.758 208.626 C 368.955 208.505,369.206 207.729,369.317 206.903 C 369.428 206.076,369.735 204.680,370.000 203.800 C 370.265 202.920,370.572 201.524,370.683 200.697 C 370.794 199.871,371.045 199.095,371.242 198.974 C 371.439 198.852,371.600 197.853,371.600 196.753 C 371.600 195.653,371.763 194.853,371.961 194.976 C 372.160 195.099,372.407 194.345,372.510 193.300 C 372.698 191.384,373.023 189.671,373.479 188.200 C 373.616 187.760,373.775 186.860,373.834 186.200 C 373.893 185.540,374.114 184.131,374.325 183.068 C 374.536 182.006,374.623 180.811,374.519 180.413 C 374.415 180.016,374.526 179.569,374.765 179.422 C 375.004 179.274,375.200 178.263,375.200 177.176 C 375.200 176.089,375.380 175.200,375.600 175.200 C 375.826 175.200,376.000 174.059,376.000 172.576 C 376.000 170.820,376.141 170.040,376.427 170.217 C 376.661 170.362,376.820 170.237,376.779 169.940 C 376.533 168.143,376.851 164.259,377.200 164.800 C 377.469 165.216,377.590 164.441,377.594 162.276 C 377.597 160.558,377.755 159.248,377.944 159.365 C 378.133 159.482,378.323 158.102,378.367 156.298 C 378.410 154.495,378.590 152.925,378.766 152.809 C 378.942 152.694,379.124 151.070,379.169 149.200 C 379.214 147.330,379.420 145.740,379.626 145.667 C 379.831 145.593,380.000 143.669,380.000 141.390 C 380.000 139.112,380.162 137.147,380.360 137.025 C 380.558 136.902,380.745 134.417,380.775 131.501 C 380.806 128.515,380.998 126.142,381.215 126.067 C 381.447 125.986,381.600 122.139,381.600 116.367 C 381.600 110.744,381.753 106.800,381.972 106.800 C 382.526 106.800,382.404 85.949,381.845 85.223 C 381.491 84.764,381.522 84.715,382.000 84.982 C 382.488 85.255,382.507 85.217,382.100 84.779 C 381.733 84.384,381.600 82.029,381.600 75.953 C 381.600 71.014,381.445 67.613,381.216 67.533 C 381.004 67.460,380.804 65.375,380.772 62.900 L 380.712 58.400 374.956 58.400 C 371.790 58.400,369.200 58.535,369.200 58.700 C 369.200 58.980,364.288 58.942,346.000 58.521 C 341.917 58.428,338.540 58.183,338.467 57.976 C 338.393 57.769,336.548 57.600,334.367 57.600 C 331.989 57.600,330.400 57.440,330.400 57.200 C 330.400 56.969,329.133 56.800,327.400 56.800 C 325.667 56.800,324.400 56.631,324.400 56.400 C 324.400 56.174,323.267 56.000,321.800 56.000 C 320.333 56.000,319.200 55.826,319.200 55.600 C 319.200 55.374,318.059 55.200,316.576 55.200 C 314.929 55.200,314.045 55.051,314.200 54.800 C 314.352 54.553,313.671 54.400,312.424 54.400 C 311.311 54.400,310.400 54.249,310.400 54.065 C 310.400 53.881,309.545 53.698,308.500 53.658 C 307.455 53.619,306.540 53.410,306.467 53.194 C 306.393 52.977,305.538 52.800,304.567 52.800 C 303.595 52.800,302.800 52.620,302.800 52.400 C 302.800 52.180,302.091 52.000,301.224 52.000 C 300.357 52.000,299.536 51.820,299.400 51.600 C 299.264 51.380,298.544 51.200,297.800 51.200 C 297.056 51.200,296.336 51.020,296.200 50.800 C 296.064 50.580,295.333 50.400,294.576 50.400 C 293.819 50.400,293.200 50.240,293.200 50.044 C 293.200 49.848,292.615 49.588,291.900 49.467 C 289.709 49.095,287.378 48.496,287.800 48.414 C 288.020 48.371,287.044 48.086,285.630 47.779 C 284.217 47.473,282.957 47.064,282.830 46.871 C 282.704 46.679,282.330 46.505,282.000 46.486 C 281.052 46.431,273.827 43.854,273.555 43.474 C 273.421 43.286,273.193 43.161,273.049 43.196 C 272.488 43.334,270.125 42.670,268.625 41.953 C 267.759 41.539,266.634 41.200,266.125 41.200 C 265.616 41.200,265.200 41.020,265.200 40.800 C 265.200 40.580,264.840 40.400,264.400 40.400 C 263.960 40.400,263.600 40.220,263.600 40.000 C 263.600 39.780,263.251 39.600,262.824 39.600 C 262.397 39.600,261.936 39.420,261.800 39.200 C 261.664 38.980,261.113 38.800,260.576 38.800 C 260.039 38.800,259.600 38.620,259.600 38.400 C 259.600 38.180,259.240 38.000,258.800 38.000 C 258.360 38.000,258.000 37.809,258.000 37.576 C 258.000 37.343,257.835 37.255,257.632 37.380 C 257.430 37.505,256.986 37.329,256.647 36.989 C 256.307 36.650,255.932 36.378,255.814 36.386 C 254.760 36.456,254.391 36.339,254.600 36.000 C 254.740 35.773,254.404 35.600,253.824 35.600 C 253.261 35.600,252.800 35.420,252.800 35.200 C 252.800 34.980,252.440 34.800,252.000 34.800 C 251.560 34.800,251.200 34.653,251.200 34.474 C 251.200 34.008,248.069 32.400,247.162 32.400 C 246.743 32.400,246.400 32.220,246.400 32.000 C 246.400 31.780,246.029 31.600,245.576 31.600 C 245.123 31.600,244.839 31.460,244.945 31.290 C 245.050 31.119,244.161 30.534,242.970 29.990 C 241.778 29.445,240.802 28.865,240.801 28.700 C 240.801 28.535,240.440 28.400,240.000 28.400 C 239.560 28.400,239.200 28.264,239.200 28.098 C 239.200 27.931,238.615 27.545,237.900 27.239 C 237.185 26.934,236.266 26.395,235.858 26.042 C 235.450 25.689,235.029 25.463,234.922 25.541 C 234.816 25.619,234.293 25.304,233.761 24.841 C 233.229 24.378,232.608 24.000,232.380 24.000 C 232.153 24.000,231.580 23.640,231.108 23.200 C 230.636 22.760,230.013 22.400,229.725 22.400 C 229.436 22.400,229.200 22.220,229.200 22.000 C 229.200 21.780,228.880 21.600,228.488 21.600 C 228.097 21.600,227.517 21.240,227.200 20.800 C 226.883 20.360,226.343 20.000,226.000 20.000 C 225.657 20.000,225.117 19.640,224.800 19.200 C 224.483 18.760,223.993 18.400,223.712 18.400 C 223.430 18.400,223.200 18.220,223.200 18.000 C 223.200 17.780,222.957 17.600,222.659 17.600 C 222.362 17.600,221.554 17.060,220.863 16.400 C 220.172 15.740,219.415 15.200,219.180 15.200 C 218.945 15.200,218.881 14.992,219.038 14.738 C 219.216 14.450,219.148 14.385,218.855 14.566 C 218.588 14.731,217.873 14.371,217.192 13.728 C 216.535 13.107,215.901 12.652,215.782 12.716 C 215.664 12.779,214.855 12.090,213.984 11.183 C 213.113 10.276,212.400 9.667,212.400 9.829 C 212.400 9.990,212.085 9.780,211.700 9.361 C 211.315 8.943,210.763 8.551,210.473 8.491 C 210.183 8.431,209.544 7.981,209.053 7.491 C 208.562 7.001,207.719 6.277,207.180 5.881 C 206.641 5.486,206.470 5.270,206.800 5.400 C 207.130 5.530,206.879 5.224,206.241 4.719 C 205.604 4.213,204.181 2.945,203.079 1.900 C 200.336 -0.701,199.564 -0.642,196.465 2.400 M201.942 44.716 C 210.506 51.272,227.669 60.965,244.800 68.920 C 252.742 72.608,271.758 79.493,280.000 81.665 C 281.650 82.100,283.540 82.608,284.200 82.795 C 288.671 84.062,297.658 86.195,302.600 87.162 C 315.580 89.702,328.675 91.340,343.800 92.316 L 348.200 92.600 348.336 98.200 C 348.928 122.507,344.577 164.211,338.822 189.400 C 338.620 190.280,338.263 191.855,338.028 192.900 C 337.312 196.078,336.725 198.538,336.381 199.800 C 336.201 200.460,335.864 201.720,335.631 202.600 C 328.203 230.677,318.083 255.341,305.126 276.946 C 300.458 284.729,289.628 300.344,288.027 301.600 C 287.887 301.710,287.401 302.285,286.946 302.878 C 283.470 307.412,274.735 316.807,269.166 322.000 C 266.690 324.310,264.469 326.383,264.232 326.608 C 251.911 338.245,228.897 352.712,210.200 360.573 C 207.780 361.591,205.440 362.579,205.000 362.769 C 204.560 362.959,203.256 363.483,202.102 363.934 L 200.003 364.754 194.102 362.368 C 144.589 342.351,103.436 301.305,81.838 250.397 C 81.419 249.408,80.670 247.700,80.174 246.600 C 74.097 233.129,65.735 207.236,62.347 191.400 C 62.112 190.300,61.779 188.770,61.607 188.000 C 61.107 185.763,58.905 174.516,58.239 170.800 C 56.585 161.575,54.487 144.954,53.619 134.200 C 52.582 121.361,52.399 117.836,52.145 105.711 C 51.917 94.819,51.963 92.797,52.438 92.654 C 52.747 92.562,57.086 92.196,62.080 91.842 C 73.957 91.000,89.957 88.835,99.000 86.848 C 99.880 86.655,102.040 86.189,103.800 85.813 C 106.819 85.169,113.095 83.595,118.000 82.251 C 128.815 79.289,142.588 74.384,154.800 69.146 C 159.587 67.092,175.277 59.079,180.000 56.276 C 189.790 50.465,198.482 44.838,199.024 43.961 C 199.425 43.312,200.458 43.580,201.942 44.716 M135.055 171.111 C 134.949 171.283,136.153 171.364,137.731 171.293 C 142.152 171.093,142.557 170.915,138.724 170.854 C 136.812 170.825,135.161 170.940,135.055 171.111 M182.700 171.100 C 192.215 171.160,207.785 171.160,217.300 171.100 C 226.815 171.040,219.030 170.991,200.000 170.991 C 180.970 170.991,173.185 171.040,182.700 171.100 M258.600 171.037 C 260.429 171.330,265.508 171.390,265.072 171.112 C 264.812 170.947,263.070 170.834,261.200 170.861 C 259.330 170.887,258.160 170.967,258.600 171.037 M268.976 173.013 C 269.404 173.336,269.933 173.600,270.153 173.600 C 270.373 173.600,270.204 173.336,269.776 173.013 C 269.349 172.690,268.820 172.425,268.600 172.425 C 268.380 172.425,268.549 172.690,268.976 173.013 M272.000 174.967 C 272.000 175.388,273.205 176.528,273.421 176.312 C 273.522 176.211,273.244 175.802,272.802 175.402 C 272.361 175.003,272.000 174.807,272.000 174.967 M125.269 178.039 C 124.510 179.254,124.966 179.416,125.755 178.212 C 126.120 177.656,126.278 177.200,126.105 177.200 C 125.933 177.200,125.557 177.578,125.269 178.039 M277.000 228.000 C 277.000 252.378,277.132 272.116,277.294 271.862 C 277.682 271.252,277.688 184.102,277.300 183.862 C 277.135 183.760,277.000 203.622,277.000 228.000 M122.652 185.700 C 122.288 187.060,122.431 269.249,122.800 270.400 C 122.976 270.950,123.138 251.915,123.160 228.100 C 123.182 204.285,123.131 184.800,123.047 184.800 C 122.962 184.800,122.785 185.205,122.652 185.700 M123.228 273.076 C 123.213 273.558,123.380 274.064,123.600 274.200 C 124.073 274.492,124.073 274.101,123.600 273.000 C 123.269 272.229,123.255 272.231,123.228 273.076 M126.331 279.071 C 127.363 280.558,130.504 282.950,132.544 283.802 C 134.992 284.825,134.721 284.438,132.100 283.167 C 130.724 282.500,128.666 281.020,127.524 279.877 C 126.132 278.483,125.740 278.218,126.331 279.071 M271.800 280.686 C 270.480 281.924,269.940 282.562,270.600 282.103 C 271.751 281.304,274.748 278.381,274.378 278.418 C 274.280 278.428,273.120 279.449,271.800 280.686 M136.242 284.877 C 138.187 285.223,262.563 285.199,264.177 284.853 C 264.825 284.714,235.953 284.600,200.019 284.600 C 164.084 284.600,135.384 284.725,136.242 284.877 " stroke="none" fill="#fbb44c" fill-rule="evenodd"></path><path id="path2" d="M199.024 43.961 C 198.482 44.838,189.790 50.465,180.000 56.276 C 175.277 59.079,159.587 67.092,154.800 69.146 C 142.588 74.384,128.815 79.289,118.000 82.251 C 113.095 83.595,106.819 85.169,103.800 85.813 C 102.040 86.189,99.880 86.655,99.000 86.848 C 89.957 88.835,73.957 91.000,62.080 91.842 C 57.086 92.196,52.747 92.562,52.438 92.654 C 51.963 92.797,51.917 94.819,52.145 105.711 C 52.399 117.836,52.582 121.361,53.619 134.200 C 54.487 144.954,56.585 161.575,58.239 170.800 C 58.905 174.516,61.107 185.763,61.607 188.000 C 61.779 188.770,62.112 190.300,62.347 191.400 C 65.735 207.236,74.097 233.129,80.174 246.600 C 80.670 247.700,81.419 249.408,81.838 250.397 C 103.436 301.305,144.589 342.351,194.102 362.368 L 200.003 364.754 202.102 363.934 C 203.256 363.483,204.560 362.959,205.000 362.769 C 205.440 362.579,207.780 361.591,210.200 360.573 C 228.897 352.712,251.911 338.245,264.232 326.608 C 264.469 326.383,266.690 324.310,269.166 322.000 C 274.735 316.807,283.470 307.412,286.946 302.878 C 287.401 302.285,287.887 301.710,288.027 301.600 C 288.481 301.244,297.397 289.091,299.497 285.966 C 306.156 276.056,313.294 262.935,319.607 249.000 C 324.954 237.198,331.470 218.330,335.631 202.600 C 335.864 201.720,336.201 200.460,336.381 199.800 C 336.725 198.538,337.312 196.078,338.028 192.900 C 338.263 191.855,338.620 190.280,338.822 189.400 C 344.577 164.211,348.928 122.507,348.336 98.200 L 348.200 92.600 343.800 92.316 C 328.675 91.340,315.580 89.702,302.600 87.162 C 297.658 86.195,288.671 84.062,284.200 82.795 C 283.540 82.608,281.650 82.100,280.000 81.665 C 271.758 79.493,252.742 72.608,244.800 68.920 C 227.669 60.965,210.506 51.272,201.942 44.716 C 200.458 43.580,199.425 43.312,199.024 43.961 M212.200 91.530 C 231.550 95.861,247.306 108.980,254.319 126.600 C 257.477 134.533,258.080 139.690,257.921 157.400 L 257.800 171.000 261.000 170.887 C 268.187 170.633,276.800 177.026,276.800 182.614 C 276.800 183.130,276.980 183.664,277.200 183.800 C 277.800 184.171,277.746 270.486,277.145 272.372 C 275.488 277.567,273.021 280.882,269.306 282.904 C 264.869 285.319,268.435 285.200,200.371 285.200 C 159.974 285.200,137.353 285.058,135.955 284.794 C 131.602 283.975,126.589 280.488,125.179 277.300 C 124.863 276.585,124.469 276.000,124.302 276.000 C 124.136 276.000,124.000 275.728,124.000 275.395 C 124.000 275.062,123.835 274.477,123.633 274.095 C 122.462 271.877,122.352 267.236,122.507 226.600 C 122.593 203.940,122.796 184.770,122.959 184.000 C 123.262 182.563,123.410 182.154,124.623 179.400 C 125.909 176.480,131.749 171.600,133.958 171.600 C 134.333 171.600,134.834 171.406,135.071 171.169 C 135.333 170.907,136.816 170.790,138.851 170.869 L 142.200 171.000 142.080 157.400 C 141.953 143.149,142.263 138.248,143.631 132.854 C 148.153 115.020,162.824 99.594,181.143 93.410 C 184.446 92.295,186.601 91.784,192.800 90.646 C 195.516 90.148,208.710 90.748,212.200 91.530 M192.600 114.596 C 181.907 117.312,172.277 124.783,168.489 133.300 C 165.818 139.305,165.601 141.096,165.600 157.096 L 165.600 170.791 200.100 170.896 L 234.600 171.000 234.370 155.600 C 234.228 146.107,233.970 139.663,233.697 138.800 C 233.453 138.030,233.123 136.966,232.964 136.436 C 228.468 121.511,208.312 110.606,192.600 114.596 M75.387 309.575 C 75.721 310.221,76.176 310.861,76.398 310.999 C 76.620 311.136,76.423 310.607,75.961 309.824 C 74.948 308.107,74.535 307.928,75.387 309.575 M102.602 342.402 C 103.002 342.844,103.411 343.122,103.512 343.021 C 103.728 342.805,102.588 341.600,102.167 341.600 C 102.007 341.600,102.203 341.961,102.602 342.402 " stroke="none" fill="#fbd35b" fill-rule="evenodd"></path><path id="path3" d="M192.800 90.646 C 186.601 91.784,184.446 92.295,181.143 93.410 C 162.824 99.594,148.153 115.020,143.631 132.854 C 142.270 138.221,141.959 143.153,142.082 157.400 L 142.200 171.000 153.900 171.106 L 165.600 171.212 165.600 157.306 C 165.601 143.965,165.859 140.197,166.990 137.000 C 175.305 113.490,205.446 106.313,224.281 123.357 C 227.842 126.579,231.783 132.516,232.964 136.436 C 233.123 136.966,233.454 138.030,233.699 138.800 C 233.975 139.668,234.230 146.052,234.372 155.600 L 234.600 171.000 246.200 171.000 L 257.800 171.000 257.919 157.400 C 258.074 139.672,257.472 134.522,254.319 126.600 C 247.306 108.980,231.550 95.861,212.200 91.530 C 208.710 90.748,195.516 90.148,192.800 90.646 " stroke="none" fill="#f4f3f2" fill-rule="evenodd"></path><path id="path4" d="M134.114 171.780 C 130.020 173.060,126.577 176.131,124.504 180.352 L 123.400 182.600 123.281 227.000 C 123.198 258.277,123.292 271.873,123.601 273.000 C 124.818 277.446,127.959 281.156,132.304 283.281 L 135.000 284.600 198.564 284.708 C 238.889 284.777,262.905 284.673,264.251 284.424 C 270.386 283.290,275.269 278.607,276.790 272.400 C 277.101 271.129,277.197 257.720,277.115 226.800 L 277.000 183.000 275.705 180.353 C 273.652 176.158,270.452 173.292,266.229 171.866 C 263.558 170.964,136.989 170.882,134.114 171.780 M267.726 172.923 C 269.815 173.933,274.000 177.413,274.000 178.141 C 274.000 178.299,274.315 178.909,274.700 179.496 C 276.412 182.109,276.388 181.420,276.394 228.105 C 276.397 253.473,276.246 273.111,276.044 273.505 C 275.848 273.887,275.272 275.070,274.764 276.133 C 273.674 278.414,270.446 281.494,267.733 282.840 L 265.800 283.800 200.200 283.800 L 134.600 283.800 132.200 282.623 C 128.582 280.848,124.400 276.032,124.400 273.642 C 124.400 273.267,124.218 272.778,123.997 272.557 C 122.977 271.537,123.817 180.800,124.845 180.800 C 125.040 180.800,125.200 180.440,125.200 180.000 C 125.200 179.560,125.341 179.200,125.514 179.200 C 125.686 179.200,126.120 178.705,126.479 178.100 C 127.762 175.931,131.551 172.800,132.892 172.800 C 133.193 172.800,133.611 172.633,133.820 172.429 C 134.522 171.742,136.802 171.720,201.200 171.760 L 265.400 171.800 267.726 172.923 " stroke="none" fill="#7d8464" fill-rule="evenodd"></path></g></svg>